<?xml version="1.0" standalone="no"?>
<!DOCTYPE svg PUBLIC "-//W3C//DTD SVG 1.1//EN" "http://www.w3.org/Graphics/SVG/1.1/DTD/svg11.dtd" >
<svg>
<metadata>
Created by FontForge 20090622 at Sat Aug 19 05:35:51 2017
 By deploy user
Copyright 1994 Bay Animation Inc. All Rights Reserved.
</metadata>
<defs>
<font id="ParisNormal" horiz-adv-x="371" >
  <font-face 
    font-family="Paris"
    font-weight="400"
    font-stretch="normal"
    units-per-em="2048"
    panose-1="2 11 5 0 0 0 0 0 0 0"
    ascent="1638"
    descent="-410"
    x-height="576"
    cap-height="1463"
    bbox="-89 -416 1987 1897"
    underline-thickness="20"
    underline-position="-123"
    unicode-range="U+0020-U+2219"
  />
<missing-glyph horiz-adv-x="1536" 
d="M256 0v1280h1024v-1280h-1024zM1248 32v1216h-960v-1216h960z" />
    <glyph glyph-name=".notdef" horiz-adv-x="1536" 
d="M256 0v1280h1024v-1280h-1024zM1248 32v1216h-960v-1216h960z" />
    <glyph glyph-name=".null" horiz-adv-x="0" 
 />
    <glyph glyph-name="nonmarkingreturn" horiz-adv-x="404" 
 />
    <glyph glyph-name="space" unicode=" " horiz-adv-x="404" 
 />
    <glyph glyph-name="exclam" unicode="!" horiz-adv-x="660" 
d="M303 721q0 172 -19.5 342t-50.5 334l-8 35q5 31 35 31h144q24 0 28 -31l-8 -51q-26 -119 -39 -246l-22 -258l-10 -254l-3 -264q0 -33 -20 -33q-21 0 -21 33zM334 -25q-45 0 -74 33q-31 31 -31 74q0 37 29 70t76 33q49 0 76 -33q26 -35 26 -74q0 -37 -28 -70
q-25 -33 -74 -33z" />
    <glyph glyph-name="quotedbl" unicode="&#x22;" horiz-adv-x="660" 
d="M152 918v545h117v-545h-117zM391 918v545h119v-545h-119z" />
    <glyph glyph-name="numbersign" unicode="#" horiz-adv-x="1108" 
d="M928 463l-12 -86h-178l-54 -377h-92l51 377h-223l-53 -377h-95l53 377h-178l12 86l179 1l34 249h-174l11 86h176l51 377h92l-55 -377h230l51 377h94l-57 -377h184l-14 -86h-180l-35 -250h182zM692 713h-231l-29 -250h223z" />
    <glyph glyph-name="dollar" unicode="$" horiz-adv-x="1108" 
d="M451 572q-253 123 -253 309q0 78 39 137q37 59 107 100q68 41 166 58l10 205q7 26 27 26q23 0 23 -24l-5 -105l-6 -102q56 0 129 -12l11 204q6 29 39 29q20 -8 20 -31v-61q-6 -33 -8 -51l-8 -105q36 -10 75 -43q21 -14 39 -33q11 -10 33 -36q27 -43 27 -60q0 -22 -23 -22
q-12 0 -39 47q-26 47 -49 73q-22 25 -72 35l-38 -432q294 -139 294 -340q0 -65 -26.5 -125.5t-77.5 -110t-113 -77.5q-37 -17 -67 -25q-33 -8 -72 -8l-14 -267q0 -34 -33 -34q-27 0 -27 34q0 64 27 262h-39q-20 0 -43 3q-22 0 -53 6l-19 -265q-6 -40 -36 -40q-23 0 -23 26
l31 283q-127 19 -207 109q-80 88 -80 205q0 59 23 59q30 0 30 -27l-2 -26l-4 -37q0 -90 76 -160q74 -70 164 -86zM465 760l39 377q-84 -12 -143 -57q-62 -48 -62 -125q0 -62 43 -111t123 -84zM512 746l140 -51l36 428q-34 6 -67 10q-35 4 -74 4zM451 29l37 -8l24 -4l80 4
l37 477l-131 51zM637 29q111 0 180 74q68 65 68 141t-33 125q-35 47 -74 65q-10 7 -40 23l-58 25z" />
    <glyph glyph-name="percent" unicode="%" horiz-adv-x="1438" 
d="M391 486q-96 0 -172 51q-75 51 -108 133q-37 84 -37 174q0 158 86 260q86 100 231 100q88 0 150 -49q61 -51 93 -137q30 -86 30 -174q0 -158 -72 -258q-74 -100 -201 -100zM391 514q74 0 129 47q56 48 84 125q29 78 29 158t-29 160q-14 39 -32 69q-21 29 -47 52
q-29 22 -62 34q-33 13 -72 13q-75 0 -118 -31q-43 -35 -62 -102q-7 -37 -12 -80q-4 -45 -4 -115q0 -86 11 -152q9 -67 32 -102q20 -39 59 -57.5t94 -18.5zM391 17l199 370l197 373l194 377l15 31l14 26l12 6q21 0 21 -20l-41 -80l-121 -246l-143 -270l-154 -290l-129 -250
l-21 -43q-6 -13 -10 -17l-8 -8q-27 0 -37 16zM1096 4q108 0 176 97q63 102 63 233q0 41 -4 76q-6 33 -23 80q-26 75 -79 125q-55 47 -133 47q-76 0 -117 -29q-43 -29 -63 -100q-23 -72 -23 -199q0 -96 10 -174q17 -72 60 -113q41 -43 133 -43zM1096 -24q-107 0 -178 53
q-74 51 -109 131q-37 80 -37 174t39 178q37 82 109 131q71 47 172 47q90 0 153 -51q64 -53 93 -135q26 -82 26 -170q0 -154 -71.5 -256t-196.5 -102z" />
    <glyph glyph-name="ampersand" unicode="&#x26;" horiz-adv-x="1438" 
d="M656 910q256 110 256 305q0 73 -35 131q-35 51 -90 78q-58 24 -123 24q-68 0 -123 -37q-55 -39 -55 -139q0 -47 43 -143q41 -99 127 -219zM937 256q-238 256 -435 539q-149 -72 -240 -180q-92 -111 -92 -236q0 -121 50.5 -205t129.5 -118q80 -39 189 -39q225 0 398 239z
M482 832q-72 102 -109 188q-39 84 -47 160l4 24q0 109 54.5 172.5t127.5 90.5q74 26 148 26q90 0 157 -35q68 -36 105 -96q35 -59 35 -139q0 -221 -277 -348l88 -117l92 -121l88 -108l91 -103l67 99q55 79 98 129q72 84 115 84q21 0 25 -25q-6 -4 -8 -8q-25 -29 -50 -51
l-84 -76q-26 -23 -47 -60l-16 -32l-27 -35l-41 -55l82 -87l88 -90l39 -36q10 -11 43 -33l17 -17l12 -14l-6 -12l-15 -19l-12 -14l-74 -74q-18 -21 -30 -21l-35 21l-57 56l-91 94l-71 73q-185 -256 -432 -256q-107 0 -197 46q-92 43 -152 133q-55 98 -55 223q0 158 113 280
q57 58 116.5 103t127.5 80z" />
    <glyph glyph-name="quotesingle" unicode="'" 
d="M248 1276q-31 -18 -65 -22q-46 0 -73 28q-29 29 -29 80q0 49 31 74q28 27 79 27q47 0 80 -46q32 -45 32 -108q0 -62 -37 -133q-18 -39 -34 -62q-17 -22 -47 -55q-48 -47 -74 -47q-19 0 -24 12q0 15 43 53q15 13 38 37l39 45q32 50 41 117z" />
    <glyph glyph-name="parenleft" unicode="(" horiz-adv-x="660" 
d="M168 604q0 203 66 369q63 164 157 281q95 114 183 178q88 61 118 61q13 0 13 -14q-8 -10 -15 -16q-20 -21 -49 -39q-30 -21 -76 -72l-49 -57q-61 -84 -108 -254q-49 -172 -49 -437q0 -280 47 -448.5t110 -243.5q64 -84 127 -127q62 -45 62 -60q0 -16 -10 -16
q-15 0 -101 51q-88 49 -186 154q-99 103 -168 275q-72 172 -72 415z" />
    <glyph glyph-name="parenright" unicode=")" horiz-adv-x="660" 
d="M502 600q0 -209 -74 -381q-73 -172 -170 -281q-98 -108 -184 -168q-89 -61 -103 -61t-14 16q0 11 64 58q63 45 127 125q61 77 109.5 249.5t48.5 442.5q0 267 -48 439q-27 90 -51 149q-27 59 -61 102q-56 78 -121 130q-68 49 -68 59q0 14 14 14q39 0 126 -57
q83 -57 180 -170q94 -115 157 -283q33 -84 52 -180q16 -98 16 -203z" />
    <glyph glyph-name="asterisk" unicode="*" horiz-adv-x="920" 
d="M395 848q0 23 18 78l27 90q10 37 10 94q-37 -16 -73 -47l-65 -67q-37 -39 -58.5 -56.5t-50.5 -17.5q-20 0 -39 16q-21 15 -21 39q0 45 33 62q31 16 121 37.5t139 56.5q-21 14 -51 26q-33 11 -82 25q-72 16 -76 18q-33 9 -49 17q-35 16 -35 61q0 27 23 43q19 19 47 19
q27 0 45 -19l49 -51l63 -68q35 -30 80 -51q0 49 -8 88q-10 37 -14 58q-6 20 -17 49l-16 67q2 33 21 56q14 22 41 22q68 0 68 -78q0 -18 -19 -71l-27 -94q-10 -33 -10 -97q19 8 37 19q19 10 45 32l60 68q32 39 53 55q18 15 49 15q25 0 47 -23q16 -22 16 -47q0 -43 -26 -55
q-4 -2 -47 -13q-45 -10 -76 -18q-100 -22 -141 -55q45 -31 139 -56l67 -18q31 -8 58 -23q26 -14 26 -53q0 -30 -20 -47q-21 -16 -37 -16q-31 0 -55 18q-25 15 -66 60l-63 67q-31 31 -66 47q0 -82 8 -114q9 -33 15 -50.5t20 -50.5q13 -35 13 -51q0 -25 -13 -47
q-14 -25 -47 -25q-70 0 -70 76z" />
    <glyph glyph-name="plus" unicode="+" horiz-adv-x="1192" 
d="M551 432v344h90v-344h340v-86h-340v-346h-90v346h-338v86h338z" />
    <glyph glyph-name="comma" unicode="," horiz-adv-x="404" 
d="M273 -4q-39 -21 -66 -21q-47 0 -76 29q-25 31 -25 78q0 49 29 76t78 27q47 0 80 -41q33 -43 33 -111q0 -60 -34 -130q-36 -71 -83 -118q-49 -49 -78 -49q-19 0 -19 12q0 14 44.5 53t75.5 82q30 41 41 113z" />
    <glyph glyph-name="hyphen" unicode="-" horiz-adv-x="625" 
d="M537 231h-449v111h449v-111z" />
    <glyph glyph-name="period" unicode="." horiz-adv-x="404" 
d="M203 185q41 0 74 -29q30 -31 30 -74q0 -41 -30.5 -74t-73.5 -33q-41 0 -70 33q-31 33 -31 74q0 39 29 72q29 31 72 31z" />
    <glyph glyph-name="slash" unicode="/" horiz-adv-x="551" 
d="M551 1493h90l-637 -1526h-93z" />
    <glyph glyph-name="zero" unicode="0" horiz-adv-x="1108" 
d="M53 588q0 156 70 301q68 143 182 227q115 84 246 84q146 0 262 -71q117 -74 181 -213q61 -142 61 -340q0 -168 -51 -299q-53 -133 -168 -217q-60 -41 -125 -62q-68 -20 -156 -20l-53 2q-127 18 -213 72.5t-137 138.5q-53 84 -76 186q-23 100 -23 211zM565 17
q103 0 187 37q82 36 137 108q25 31 49 80q23 47 40 96q28 111 28 238q0 157 -39 289q-41 131 -139.5 209.5t-257.5 78.5q-64 0 -117 -24q-55 -25 -105 -88q-51 -66 -77 -172q-29 -109 -29 -281q0 -145 17 -250q14 -104 50 -174q35 -72 99 -108q61 -39 157 -39z" />
    <glyph glyph-name="one" unicode="1" horiz-adv-x="551" 
d="M207 154v948l-61 -20l-64 -19q-20 0 -20 14q0 15 26 25l189 74q49 24 73 24q23 0 23 -47v-16v-983l4 -86l2 -43q0 -25 -16 -25h-142q-22 0 -22 25l4 41q4 20 4 47v41z" />
    <glyph glyph-name="two" unicode="2" horiz-adv-x="994" 
d="M350 123q105 90 183 207q69 109 104 238q34 127 34 290q0 162 -56 232q-60 69 -176 69q-84 0 -150 -36q-68 -37 -111 -95.5t-43 -109.5q0 -39 -24 -39q-19 0 -23 31q0 45 25 96q22 51 72 96q22 21 51 39q28 16 69 33q68 26 164 26q99 0 191 -49q90 -49 145 -139
q53 -90 53 -203q0 -153 -123 -342q-59 -96 -143 -182q-86 -88 -207 -182q158 -86 252 -86q72 0 127 21q47 20 68 46q10 10 18 25q2 4 17 28q6 15 16 25q2 2 10 8q19 0 19 -33q-2 -20 -35 -59t-94 -70q-62 -33 -140 -33h-34q-25 6 -46 10q-22 5 -59 21l-68 31l-77 41
q-138 -90 -238 -90q-125 0 -125 86q0 41 35 78t96 37q49 0 101 -15q51 -14 122 -51zM318 94q-95 56 -193 56q-82 0 -88 -72q0 -61 70 -61q80 0 211 77z" />
    <glyph glyph-name="three" unicode="3" horiz-adv-x="994" 
d="M629 635q-96 -43 -172 -43q-57 0 -84 23q-27 20 -27 51q0 72 123 72q31 0 160 -31q10 39 18 98q9 57 9 96q0 138 -45 199q-48 59 -150 59q-92 0 -145 -26q-56 -29 -82 -62q-11 -12 -25 -37q-16 -26 -24 -38q-9 -21 -19 -33q-12 -12 -18 -12q-19 0 -21 20q0 31 13 57
q10 25 38 56q56 55 131 84q78 32 152 32q84 0 166 -28.5t135 -94.5q53 -65 53 -151q0 -80 -30 -133q-33 -55 -105 -111q115 -59 168 -139q51 -80 51 -174q0 -109 -51 -197q-53 -90 -160.5 -143t-259.5 -53q-104 0 -200 41q-99 39 -156 108q-59 70 -59 146q0 26 24 26
q12 0 35 -55q20 -57 49 -100q27 -45 102 -84q76 -41 205 -41q150 0 215 86q65 84 65 256q0 92 -13 159q-17 68 -66 117zM455 628q96 0 143 42q-53 33 -129 33q-90 0 -90 -41q0 -34 76 -34z" />
    <glyph glyph-name="four" unicode="4" horiz-adv-x="1032" 
d="M618 150v141l-73 8l-111 19l-112 16q-47 8 -101 8q-67 0 -108 -6l-66 -14l-34 -8q-21 0 -21 16q0 6 14 29l19 18l663 754q54 73 74 73q23 0 23 -63v-803q60 0 90 15q13 4 27 10q14 4 36 20q29 17 41 17q23 0 23 -21q0 -33 -76 -59q-75 -29 -141 -29v-141l4 -80l2 -45
q0 -10 -2 -15q-2 -4 -4 -6l-19 -4h-129q-26 0 -26 25l4 47zM618 338v649l-544 -610l8 -4q66 14 139 14l101 -6l94 -14l106 -21z" />
    <glyph glyph-name="five" unicode="5" horiz-adv-x="1032" 
d="M753 457q0 328 -271 328q-109 0 -209 -52q0 -102 -25 -153q-25 -53 -61 -53q-31 0 -50 20q-20 18 -20 51q0 74 113 160l6 98l8 185q10 73 22 104q13 31 56 31q22 0 59 -2t86 -6q47 -7 82 -9q33 -4 80 -4l84 11q22 6 47 8q23 2 47 2q45 0 45 -35q0 -47 -71 -47
q-93 0 -150 8l-160 21l-84 10q-34 4 -57 4q-12 0 -18 -12l-11 -31l-4 -41l-2 -37l-10 -129l-8 -111q106 48 209 48q137 0 241 -62q103 -61 158 -158.5t55 -195.5q0 -121 -55 -219.5t-164.5 -155.5t-255.5 -57q-45 0 -92 8t-96 27q-90 28 -156 90q-68 61 -68 127q0 28 25 28
q10 0 37 -45q27 -47 57 -88q15 -18 39 -37q25 -18 60 -36q63 -33 168 -33q118 0 188 49q70 47 98 145q28 96 28 246zM183 563q20 0 32 41q11 39 11 78v29q-70 -51 -70 -113q0 -14 8 -24q6 -11 19 -11z" />
    <glyph glyph-name="six" unicode="6" horiz-adv-x="1067" 
d="M596 -24q-192 0 -313 88t-172 223q-53 133 -53 276q0 107 39 222q36 114 104 206q68 93 168 152q98 57 227 57q58 0 139 -18q82 -18 136 -45q53 -29 53 -55q0 -31 -25 -31q-12 0 -41 20q-22 23 -47 37q-24 15 -76 31q-53 14 -139 14q-157 0 -248 -137q-96 -145 -96 -416
l8 -2q133 178 336 178q101 0 197 -45q94 -45 155 -137q62 -92 62 -217q0 -113 -57.5 -207t-151.5 -143q-96 -51 -205 -51zM957 377q0 119 -56 203q-57 82 -141 121q-84 37 -164 37q-39 0 -78 -11q-41 -10 -82 -28q-40 -19 -67 -37q-29 -19 -57 -47q-52 -47 -60 -88t-8 -115
q0 -395 352 -395q47 0 80 8l45 13q60 20 117 65q55 45 88 114q31 68 31 160z" />
    <glyph glyph-name="seven" unicode="7" horiz-adv-x="881" 
d="M656 1047q-51 4 -86 10q-37 4 -74 12l-154 39q-96 25 -127 25q-61 0 -102 -37q-35 -39 -35 -88q0 -25 8 -43.5t21 -28.5l14 -26q0 -29 -27 -29q-14 0 -36 35q-17 37 -17 92q0 49 25 96q28 43 74 70q43 26 98 26q63 0 119 -14q26 -6 69 -18l111 -39l147 -52q66 99 146 99
q37 0 59 -21q23 -16 23 -45q0 -82 -131 -82q-31 0 -78 13q-29 -56 -58.5 -119.5t-54.5 -132.5q-55 -152 -92 -281l-35 -129l-35 -147l-43 -189q-6 -43 -35 -43q-36 0 -90 -13l-57 -12q-25 0 -25 21q0 33 58 189q20 55 61 157q41 103 79 187l61 137q41 86 100 199
q76 145 119 182zM877 1106q0 10 -10 25q-15 10 -27 10q-64 0 -110 -68q12 -6 46 -6l11 -4q14 0 31.5 4t31.5 10q27 15 27 29z" />
    <glyph glyph-name="eight" unicode="8" horiz-adv-x="1067" 
d="M876 264q0 70 -61 123q-59 60 -155 105l-95 43l-94 35l-71 20q-25 6 -41 8q-50 0 -109 -43q-61 -45 -98 -106q-39 -64 -39 -115q0 -53 12 -96t41 -78q51 -72 139 -106q88 -37 193 -37q160 0 270 57q108 49 108 190zM668 695q18 4 43 16q24 10 45 24q43 33 78 82
q33 54 33 101q0 65 -33 121q-35 55 -107 88q-71 32 -188 32q-166 0 -221 -59q-58 -61 -58 -139q0 -68 74 -127q37 -29 80 -51q41 -25 90 -43q88 -31 164 -45zM338 625q-183 100 -183 266q0 72 35 141q36 70 128 119t237 49q111 0 191 -36q78 -39 118 -105q43 -61 43 -133
q0 -78 -49 -148.5t-153 -111.5q59 -27 110 -60q52 -34 90 -73q76 -76 76 -187q0 -94 -49 -178q-49 -86 -156.5 -139t-271.5 -53q-131 0 -229 45q-101 45 -154 121q-59 77 -59 176q0 61 30 125q31 61 93 114q65 49 153 68z" />
    <glyph glyph-name="nine" unicode="9" horiz-adv-x="1067" 
d="M469 1204q189 0 312 -86q122 -88 176 -221q53 -135 53 -280q0 -109 -33 -217q-35 -111 -106 -209q-74 -101 -176 -157q-103 -58 -226 -58q-55 0 -131 18q-78 16 -137 47q-61 29 -61 58q0 14 8 22t20 8q4 -2 6 -2q19 -10 39 -28q35 -29 90 -52q56 -22 170 -22
q158 0 248 141q90 139 90 410l-4 4q-127 -176 -338 -176q-102 0 -196 47q-95 45 -154 139q-61 92 -61 213q0 82 33 164q32 72 89 129q52 45 134 80q79 28 155 28zM107 799q0 -90 35 -160q20 -39 41 -63q20 -27 50.5 -49.5t57.5 -36.5t59 -24q62 -21 123 -21q80 0 158 35
q76 34 125 83q47 48 59 89q9 40 9 114q0 131 -39 215q-37 90 -119 133q-76 45 -197 45q-84 0 -168 -38q-82 -35 -137 -117q-57 -84 -57 -205z" />
    <glyph glyph-name="colon" unicode=":" horiz-adv-x="404" 
d="M203 185q41 0 74 -29q30 -31 30 -74q0 -41 -30.5 -74t-73.5 -33q-41 0 -70 33q-31 33 -31 74q0 39 29 72q29 31 72 31zM203 588q43 0 73.5 -29.5t30.5 -76.5q0 -43 -30.5 -74t-73.5 -31q-41 0 -70 33q-31 31 -31 72q0 43 29 74.5t72 31.5z" />
    <glyph glyph-name="semicolon" unicode=";" horiz-adv-x="404" 
d="M273 -4q-33 -21 -64 -21q-47 0 -74 29q-29 29 -29 78t29 76q9 6 29 16q19 11 49 11q47 0 84 -43q33 -43 33 -109q0 -60 -34 -134q-40 -73 -87 -118q-49 -45 -78 -45q-19 0 -19 12q0 14 45 53q43 39 75 82q30 41 41 113zM207 592q43 0 74 -31q29 -32 29 -75q0 -45 -29 -74
q-31 -29 -74 -29q-41 0 -70 29q-31 29 -31 74q0 47 29 76.5t72 29.5z" />
    <glyph glyph-name="less" unicode="&#x3c;" horiz-adv-x="1192" 
d="M979 94v-94l-765 350v76l765 350v-94l-662 -295z" />
    <glyph glyph-name="equal" unicode="=" horiz-adv-x="1192" 
d="M955 506h-734v78h734v-78zM955 193h-734v78h734v-78z" />
    <glyph glyph-name="greater" unicode="&#x3e;" horiz-adv-x="1192" 
d="M214 0v94l663 293l-663 295v94l765 -350v-76z" />
    <glyph glyph-name="question" unicode="?" horiz-adv-x="807" 
d="M334 -25q-45 0 -74.5 33t-29.5 74q0 39 28 74q29 29 76 29t78 -31q27 -33 27 -76q0 -41 -29 -70q-27 -33 -76 -33zM547 1131q0 293 -205 293q-47 0 -102 -23q-57 -22 -94 -72q-39 -49 -39 -116q0 -15 -10 -25q-13 -12 -23 -12q-31 0 -31 43q0 65 51 125q52 59 129 100
q82 39 148 39q55 0 119 -23q61 -18 108 -63q54 -45 82.5 -117.5t28.5 -169.5q0 -106 -47 -182q-45 -82 -140 -184q-94 -105 -137 -166.5t-43 -141.5q0 -20 13 -43l12 -26q0 -19 -25 -25q-14 0 -30.5 18.5t-16.5 55.5q0 84 86 231l74 129q37 68 51 103q41 88 41 252z" />
    <glyph glyph-name="at" unicode="@" horiz-adv-x="1592" 
d="M78 738q0 161 59 301q60 137 167.5 240.5t242.5 158.5t279 55q196 0 354 -84t246 -227q88 -145 88 -324q0 -174 -78 -305q-86 -139 -195 -209q-110 -69 -198 -69q-58 0 -95 43q-36 41 -36 94l-4 -4q-43 -49 -117 -90q-76 -43 -144 -43q-36 0 -71 10q-37 10 -72 29
q-65 41 -100 112q-38 70 -38 162q0 154 64 287q62 133 176 225q119 86 242 86q66 0 133 -45q62 -45 94 -133l50 133h116l-190 -598l-23 -107q6 -57 52 -57q59 0 137 68q76 65 127 178q49 110 49 233q0 133 -65 258q-66 123 -191 201q-125 75 -303 75q-125 0 -242 -49
q-117 -48 -203 -136q-88 -89 -138 -213q-52 -125 -52 -273q0 -178 86 -328q84 -149 229 -235q146 -86 320 -86t313 80t213 186h115q-53 -96 -129 -168q-39 -37 -74 -63q-37 -27 -84 -51q-92 -48 -172 -64q-39 -11 -80 -17q-41 -8 -102 -8q-148 0 -281 58q-133 55 -246 158
q-108 108 -167 249q-62 142 -62 306zM848 1063q-98 0 -178 -78q-80 -77 -123 -186q-43 -111 -43 -199q0 -98 52.5 -153.5t123.5 -55.5q76 0 154 70t127 179.5t49 217.5q0 84 -49 146q-51 59 -113 59z" />
    <glyph glyph-name="A" unicode="A" horiz-adv-x="1254" 
d="M226 568l360 890q14 35 47 35q21 0 35 -39l547 -1351l23 -41q16 -33 16 -45q0 -17 -35 -17h-131h-37l-12 2q-9 13 -11 19l-10 24l-184 477h-582l-41 -102l-61 -145l-56 -138l-41 -116q-6 -21 -28 -21q-25 0 -25 17l8 26l113 260l86 219h-149q-54 0 -54 23t54 23h168z
M816 568l-269 675l-270 -675h539z" />
    <glyph glyph-name="B" unicode="B" horiz-adv-x="1180" 
d="M799 858q-82 47 -193 47q-45 0 -77 -14q-35 -14 -35 -39q0 -24 31 -41q16 -8 34 -12q19 -4 47 -4q62 0 101 14q16 6 39 19q4 2 53 30zM826 891q63 76 63 191q0 122 -63 198q-58 74 -152 104.5t-201 30.5h-139v-1370h182q287 0 412 123q122 121 122 338q0 84 -32 156
q-18 35 -39.5 64.5t-46.5 49.5q-24 25 -55 45q-33 21 -37 23q-119 -84 -221 -84q-162 0 -162 96q0 86 166 86l67 -8l82 -26zM439 1463q497 0 497 -386q0 -98 -74 -206q238 -133 238 -402q0 -469 -649 -469h-299q-23 0 -27 25l4 43l1 86v1163l-1 86l-4 45q0 21 23 21l55 -2
l53 -4h183z" />
    <glyph glyph-name="C" unicode="C" horiz-adv-x="1471" 
d="M1340 1219q0 -19 -21 -19q-14 0 -61 50q-25 22 -47 47l-52 43q-47 41 -135 75q-90 33 -213 33q-110 0 -200 -39q-93 -39 -160 -121q-70 -81 -111 -219.5t-41 -339.5q0 -194 41 -331q39 -138 107 -220q80 -88 168 -124q86 -37 196 -37q150 0 252 51q103 49 154 108
q51 60 96 131q43 72 55 72q29 0 29 -33q0 -30 -45 -90q-21 -30 -51 -65q-33 -35 -74 -68q-43 -35 -84 -59q-41 -27 -100 -49q-103 -48 -232 -48q-184 0 -350 82t-275 257.5t-109 426.5q0 197 66 347q66 147 176.5 239t237.5 133t254 41q125 0 250 -49q123 -49 201 -115.5
t78 -109.5z" />
    <glyph glyph-name="D" unicode="D" horiz-adv-x="1327" 
d="M125 154v1163q0 68 -12 133q6 19 27 19l196 -2l197 -4q73 0 134.5 -10.5t131.5 -37.5q127 -45 233 -139q107 -96 167 -231q31 -70 47 -148t16 -168q0 -178 -61 -319q-62 -144 -164 -232q-105 -88 -240 -133t-272 -45h-385q-25 0 -29 17l4 28l8 49zM1215 733
q0 238 -105 392q-104 151 -268 220.5t-340 69.5h-176v-1370h185q67 0 132.5 12.5t133.5 34.5q127 48 225 131q96 82 156 216q57 131 57 294z" />
    <glyph glyph-name="E" unicode="E" horiz-adv-x="1032" 
d="M134 154v1155l-1 57l-4 51l-4 27q2 8 4 12l4 4l23 3h635l43 4l43 2q39 0 39 -29t-39 -29l-39 2l-47 2h-453v-411h453l61 2l68 2q55 0 59 -31q0 -26 -59 -26l-64 4l-65 2h-453v-916h408l100 2l53 2q37 0 37 -20q0 -25 -28 -25h-752q-27 0 -31 25l4 43z" />
    <glyph glyph-name="F" unicode="F" horiz-adv-x="994" 
d="M130 154v1155q0 39 -1 72q-2 32 -8 59q6 23 31 23h629l40 4l46 2q36 0 36 -29t-36 -29l-43 2l-43 2h-447v-411h453l61 2l72 2q53 0 59 -31q0 -26 -63 -26l-62 4l-67 2h-453v-803l4 -82l4 -51q0 -21 -28 -21h-162q-25 0 -31 21q9 47 9 133z" />
    <glyph glyph-name="G" unicode="G" horiz-adv-x="1544" 
d="M73 682q0 256 110 443q108 184 280 276q170 92 356 92q127 0 246 -47q119 -49 195 -117q76 -67 76 -106q0 -23 -21 -23q-10 7 -14 11q-15 12 -31 34q-18 23 -43 48q-14 14 -47 43q-47 43 -135 77q-90 35 -219 35q-136 0 -234 -53q-100 -53 -164 -148q-65 -94 -96 -223
q-16 -63 -27 -133q-10 -70 -10 -141q0 -174 37 -336t154 -279q114 -118 325 -118q88 0 201 36q113 37 219 136q105 97 150 267h-566l-28 -3q-9 2 -15 41l-10 106h713q-21 -149 -84 -270q-64 -123 -152 -199q-90 -78 -205 -121q-114 -43 -231 -43q-188 0 -356 89
q-170 86 -271 249q-103 164 -103 377z" />
    <glyph glyph-name="H" unicode="H" horiz-adv-x="1254" 
d="M125 154v1155q0 72 -12 127q6 27 31 27h163l23 -3q4 -12 4 -16l-4 -47l-4 -88v-379h762v502q0 31 26 31q23 0 23 -31l-4 -600l2 -338l2 -461q0 -33 -19 -33q-18 0 -24 6q-6 7 -6 27v845h-762v-724l4 -84l4 -49q0 -21 -25 -21h-169q-17 0 -23 25q8 39 8 129z" />
    <glyph glyph-name="I" unicode="I" horiz-adv-x="516" 
d="M155 154v1155q0 70 -11 131q2 12 4 16q2 0 6 4q2 3 20 3h164l23 -3q6 -12 6 -16l-4 -49q-2 -16 -2 -33q-2 -18 -2 -31v-22v-1159v-37q0 -19 4 -43l4 -49q0 -21 -25 -21h-168q-24 0 -30 25q11 78 11 129z" />
    <glyph glyph-name="J" unicode="J" horiz-adv-x="920" 
d="M581 436l4 873q0 74 -11 135l7 16l25 3h162l23 -3l4 -16l-4 -47l-4 -88v-795q0 -159 -39 -268q-41 -109 -111 -172q-69 -59 -151 -84q-39 -11 -84 -17q-47 -6 -95 -6q-86 0 -161 35q-76 33 -121 102.5t-45 174.5q0 67 20 100q19 37 49 37q29 0 29 -25q0 -14 -16 -36
l-24 -46q-9 -16 -9 -53q0 -110 84 -174.5t194 -64.5q105 0 166 49q60 47 84 139q24 90 24 231z" />
    <glyph glyph-name="K" unicode="K" horiz-adv-x="1141" 
d="M148 0q-21 0 -27 21q2 16 6 55q3 37 3 78v1155q0 35 -1 68q-2 32 -8 63q6 23 31 23h166q16 0 20 -5l4 -18l-4 -43l-4 -68v-411l139 110l191 152l88 70q74 59 119 98l100 80l18 22q11 13 25 13q18 0 18 -23q0 -20 -22 -33q-12 -6 -47 -35q-25 -18 -47 -36l-205 -170
l-164 -134l549 -946l18 -33q19 -28 19 -36q0 -17 -23 -17h-14q-12 0 -29 29l-551 979l-182 -141v-717l4 -76l4 -49q0 -25 -28 -25h-166z" />
    <glyph glyph-name="L" unicode="L" horiz-adv-x="920" 
d="M134 131v1198l-3 72l-4 39q0 12 6 18q7 5 35 5h141q25 0 29 -5l4 -18l-2 -43l-2 -64v-1292h350l125 2l64 2q39 0 39 -24q0 -13 -11 -19l-38 -2h-697l-30 4q-11 6 -13 21q7 41 7 106z" />
    <glyph glyph-name="M" unicode="M" horiz-adv-x="1618" 
d="M121 211v1225q0 57 23 57q18 0 39 -45l628 -1196l627 1180l8 20l12 21l17 6q22 0 22 -51v-1278l4 -78l5 -51q0 -21 -27 -21h-164q-27 0 -33 21l14 133v923l-515 -987l-17 -37l-22 -38q-4 -9 -9 -11q-6 -4 -8 -4q-10 8 -14 17l-21 36l-18 41l-498 983l-4 -974l2 -35l2 -35
q0 -33 -30 -33q-15 0 -21 10l-10 35q4 31 6 76t2 90z" />
    <glyph glyph-name="N" unicode="N" horiz-adv-x="1254" 
d="M1088 652l-920 587v-1222q0 -17 -20 -17q-21 0 -25 4q-10 13 -10 21q8 35 8 98v1210q0 70 -8 117q6 43 31 43q10 -4 20 -10q8 -6 37 -31l98 -69l789 -502l-4 291v260q0 37 30 37q23 0 23 -41l-2 -47l-2 -68v-1198v-86q0 -21 -4 -25l-19 -4q-22 0 -22 33v619z" />
    <glyph glyph-name="O" unicode="O" horiz-adv-x="1544" 
d="M57 733q0 76 16 152q15 74 48 145q70 148 168 246t225 157.5t258 59.5q197 0 338 -65q140 -68 221 -178q82 -113 119 -246q37 -135 37 -275q0 -149 -48 -286q-47 -140 -134 -244q-90 -107 -225 -168q-138 -64 -308 -64q-176 0 -305 62q-131 61 -227 172q-41 47 -78 114.5
t-58 131.5q-47 137 -47 286zM1439 729q0 160 -45.5 293t-129.5 232q-84 96 -195 151q-112 53 -250 53q-161 0 -266 -65q-106 -68 -164.5 -174.5t-80.5 -233.5q-23 -129 -23 -252q0 -129 19 -247q18 -121 75 -234q55 -112 164 -180q106 -68 276 -68q158 0 277 68
q119 65 192 170q74 102 117 235q34 134 34 252z" />
    <glyph glyph-name="P" unicode="P" horiz-adv-x="1215" 
d="M134 150v1167l-1 53l-4 47l-4 27q4 25 31 25l127 -2l129 -4q178 0 321 -46q142 -45 238 -129q94 -86 139 -196.5t45 -247.5q0 -82 -16 -145q-16 -66 -57 -131q-74 -123 -222 -197q-147 -74 -348 -74q-43 0 -80 4q-36 4 -94 13v-160l4 -86l4 -51q0 -17 -28 -17h-166
q-23 0 -27 13l4 30l4 47zM338 367q41 -6 92 -12q52 -9 90 -9q193 0 326 72t197 184q30 56 49 119q16 62 16 123q0 152 -82 287q-73 127 -227 207q-154 77 -360 77h-101v-1048z" />
    <glyph glyph-name="Q" unicode="Q" horiz-adv-x="1544" 
d="M57 729q0 88 23 176q22 89 67 181q95 178 259 293q162 114 366 114q211 0 373 -86q162 -88 254 -258q45 -86 70 -190q22 -107 22 -226q0 -110 -33 -235q-32 -125 -102 -234q-72 -108 -188 -186q-119 -78 -279 -103q29 -14 74 -39q43 -26 96 -63q72 -47 96 -64
q45 -28 74 -43q59 -35 119 -35q37 0 84 13l59 12q23 0 23 -25q0 -18 -43 -30q-37 -15 -94 -15q-72 0 -146 37q-76 35 -176 109q-102 71 -160 104q-59 31 -123 31q-192 0 -329 70q-138 68 -222 182q-86 113 -125 250q-39 135 -39 260zM1439 729q0 232 -91 400
q-94 168 -234 250q-139 79 -295 79q-147 0 -245.5 -55t-165.5 -156q-60 -94 -94 -231q-29 -133 -29 -283q0 -284 78 -444q76 -160 196 -221q119 -64 260 -64q158 0 304 86q143 84 231 246q85 162 85 393z" />
    <glyph glyph-name="R" unicode="R" horiz-adv-x="1254" 
d="M127 158v1151q0 39 -2 71.5t-8 59.5q6 23 31 23h207q254 0 432 -72q176 -72 272 -215q94 -144 94 -340q0 -166 -102 -303q-103 -140 -285 -195q70 -112 121 -172q43 -57 113 -100q67 -45 159 -45q33 0 33 -21q0 -16 -55 -16q-109 0 -197 66q-82 67 -137 149l-80 123
q-43 -8 -100 -17l-27 -4q-86 0 -143 41q-57 39 -57 90q0 95 116 95q115 0 230 -154q161 53 263.5 176t102.5 287q0 53 -10 108q-10 56 -29 109q-39 108 -118 188q-80 78 -213 127q-134 47 -310 47h-98v-1261l4 -84l4 -49q0 -20 -29 -20h-161q-25 0 -31 24q2 16 6 55
q4 37 4 78zM699 367q-97 123 -195 123q-57 0 -57 -54q0 -38 41 -61q41 -25 98 -25q16 0 39 3q22 0 74 14z" />
    <glyph glyph-name="S" unicode="S" horiz-adv-x="1108" 
d="M203 1102q0 129 73.5 219t184.5 131t219 41q131 0 131 -35q0 -20 -35 -26l-41 6l-49 8l-45 2q-73 0 -129 -20q-55 -23 -96 -64q-78 -78 -78 -168q0 -174 291 -329q61 -31 119 -66q56 -37 97 -72q79 -67 122 -149q39 -84 39 -184q0 -121 -66 -220q-65 -98 -186 -151
q-62 -29 -137 -44q-76 -14 -162 -14q-100 0 -201 48q-102 45 -168 125q-65 77 -65 169q0 17 8 27l20 10q15 0 33 -63q6 -35 17 -55q8 -23 28 -62q33 -61 113 -102q82 -47 225 -47q103 0 191 30q86 29 137 99q51 67 51 172q0 110 -68 190q-32 37 -81 76q-50 37 -117 76
l-191 116q-65 50 -110 103q-37 43 -58 102q-16 60 -16 121z" />
    <glyph glyph-name="T" unicode="T" horiz-adv-x="994" 
d="M395 1424h-256l-110 -13q-33 6 -33 29t45 23h914q43 0 43 -27q0 -19 -37 -25l-47 6q-19 3 -60 3h-256v-1266v-41q0 -20 4 -47l4 -49q0 -17 -28 -17h-166q-23 0 -27 17q10 86 10 104v33v1270z" />
    <glyph glyph-name="U" unicode="U" horiz-adv-x="1327" 
d="M110 1305q0 61 -11 135l8 18q12 5 18 5h170q23 0 23 -27l-4 -47l-5 -80v-791q0 -266 113 -383.5t281 -117.5q121 0 233 68q113 65 174 192q30 65 48.5 147t18.5 174v834q0 31 25 31q21 0 25 -31v-834q0 -67 -10 -133q-10 -65 -27 -123q-35 -110 -108 -200
q-76 -84 -177.5 -129.5t-232.5 -45.5q-270 0 -416 156t-146 426v756z" />
    <glyph glyph-name="V" unicode="V" horiz-adv-x="1215" 
d="M625 -33q-14 0 -29 54l-547 1325l-20 47q-16 29 -21 47q7 23 33 23h127h10q25 0 35 -7q8 -8 17 -36l475 -1151l448 1146q15 48 43 48q23 0 23 -15l-8 -31l-10 -30l-549 -1366l-11 -29l-8 -17q0 -4 -8 -8z" />
    <glyph glyph-name="W" unicode="W" horiz-adv-x="1727" 
d="M559 45l-510 1293l-33 102q5 23 29 23h129q35 0 41 -15l41 -94l428 -1071l170 434l-256 645q-4 15 -22 39q-21 25 -25 43q6 19 47 19h131q35 0 43 -11l23 -49l176 -436l166 448q18 48 41 48q24 0 24 -15q0 -14 -18 -55l-186 -498l237 -612l430 1132q8 21 19 35q2 4 10 13
q37 0 37 -15l-16 -55l-515 -1337l-26 -73q-10 -16 -21 -16q-12 6 -14 8l-10 38l-15 43l-233 600l-238 -623l-12 -33l-12 -25q-8 -4 -10 -4q-5 -2 -7 -4q-14 6 -16 10l-16 36z" />
    <glyph glyph-name="X" unicode="X" horiz-adv-x="1180" 
d="M489 703l-401 659l-23 37l-16 27l-6 18q4 19 45 19h133q25 0 33 -11l27 -32l344 -572l389 584q18 31 37 31q29 0 29 -19q-5 -8 -7 -12q-10 -21 -18 -33l-399 -596l424 -704l14 -25l18 -33l6 -24q0 -17 -34 -17h-140q-26 0 -39 13l-51 77l-342 570l-387 -582
q-24 -35 -33 -43q-26 -29 -51 -35q-11 8 -13 13q7 34 50 98z" />
    <glyph glyph-name="Y" unicode="Y" horiz-adv-x="1215" 
d="M542 377l-497 981q-2 16 -26 47q-9 15 -13 23t-6 16q0 19 49 19h125q23 0 31 -5q6 -6 16 -12l19 -33l24 -51l445 -876l440 929q8 25 21 37q10 11 30 11q11 -9 11 -15q0 -20 -15 -55l-446 -940v-299v-39t4 -43l4 -51q0 -13 -6 -19l-23 -2h-174q-16 0 -18 21l5 133v223z
" />
    <glyph glyph-name="Z" unicode="Z" horiz-adv-x="1180" 
d="M106 115l743 1300h-627q-47 0 -54 21l6 14l11 15q4 4 22 4l127 -2l272 -4h416l45 -3q13 -4 13 -16q0 -10 -29 -61l-45 -78l-722 -1260h582l61 4l83 7q74 0 74 -31q0 -33 -70 -33l-78 4l-82 4h-706h-33q-23 0 -39 4t-19 21q6 22 49 90z" />
    <glyph glyph-name="bracketleft" unicode="[" horiz-adv-x="477" 
d="M164 -131v1464q0 68 -8 103q4 20 10 24q4 3 29 3h248q22 0 26 -5l4 -18q0 -25 -41 -25l-75 5l-76 4v-1643l72 4l79 4q39 0 41 -29q0 -24 -34 -24h-240q-25 0 -31 6q-8 2 -12 22q4 21 6 41q2 21 2 64z" />
    <glyph glyph-name="backslash" unicode="\" horiz-adv-x="551" 
d="M-70 1493h91l602 -1526h-86z" />
    <glyph glyph-name="bracketright" unicode="]" horiz-adv-x="477" 
d="M318 -131l2 -66l2 -39q0 -16 -4 -20q-6 -4 -33 -8h-244q-33 0 -33 24q0 29 37 29l82 -4l76 -4v1643l-80 -4l-74 -5q-41 0 -41 25l5 18l28 5h248q23 0 27 -5q6 -14 6 -22l-2 -43l-2 -60v-1464z" />
    <glyph glyph-name="asciicircum" unicode="^" horiz-adv-x="1192" 
d="M307 498h-95l339 678h86l344 -678h-100l-285 575z" />
    <glyph glyph-name="underscore" unicode="_" horiz-adv-x="994" 
d="M994 -252h-994v103h994v-103z" />
    <glyph glyph-name="grave" unicode="`" 
d="M-25 961h111l199 -266h-47z" />
    <glyph glyph-name="a" unicode="a" horiz-adv-x="733" 
d="M490 45q-97 -65 -187 -65q-114 0 -188 82q-74 80 -74 221q0 94 37 163.5t96 106.5q58 35 121 35q62 0 109 -12q28 -11 45 -19q16 -10 37 -30l4 20q0 12 6 23l8 6h88l25 -2q6 -13 6 -17v-59v-424v-39l2 -27q-14 -7 -27 -7h-96q-4 3 -6 5q-8 11 -10 23zM490 86v391
q-84 68 -172 68q-68 0 -119 -37q-53 -37 -82 -98.5t-29 -126.5q0 -103 59.5 -182.5t170.5 -79.5q88 0 172 65z" />
    <glyph glyph-name="b" unicode="b" horiz-adv-x="733" 
d="M112 131v1231q0 68 -5 103q4 22 8 26l33 2h67q37 0 37 -53l-2 -41l-2 -33v-827q113 59 168 59q98 0 166 -51q57 -49 83.5 -123t26.5 -137q0 -90 -32.5 -158.5t-94.5 -107.5q-63 -42 -149 -42q-45 0 -168 62q0 -41 -33 -41h-71l-29 4q-4 4 -8 25zM248 103q23 -23 35 -33
t43 -25q49 -24 90 -24q57 0 115 30q53 35 84 93q28 57 28 143q0 70 -26 131q-29 61 -80 98q-53 37 -121 37q-39 0 -86 -22.5t-82 -57.5v-370z" />
    <glyph glyph-name="c" unicode="c" horiz-adv-x="592" 
d="M207 486v-412q31 -53 131 -53q58 0 90 15q31 11 58 34q24 20 39 20q14 0 14 -16q0 -39 -72 -66q-74 -28 -129 -28q-131 0 -211 84q-83 84 -83 223q0 80 40 152q37 71 103 116q32 21 71 33q39 10 80 10q31 0 58 -4q24 -6 67 -22q66 -25 66 -74q0 -16 -17 -16l-33 22
q-22 21 -53 35q-39 14 -88 14q-57 0 -90 -20q-35 -21 -41 -47z" />
    <glyph glyph-name="d" unicode="d" horiz-adv-x="733" 
d="M623 131v-61l2 -41q0 -19 -6 -25l-27 -3h-72q-30 0 -34 28l4 12q-121 -61 -168 -61q-133 0 -205 86q-74 84 -74 221q0 43 4 72q4 26 21 67q24 70 86 121q67 51 168 51q43 0 168 -59v827l-8 74q6 53 38 53h72l31 -2q6 -14 6 -22l-4 -37l-2 -70v-1231zM490 103v370
q-30 35 -80 56q-47 24 -88 24q-74 0 -125 -39q-53 -39 -78 -98t-25 -129q0 -131 66 -199q63 -67 162 -67q37 0 90 24l47.5 29t30.5 29z" />
    <glyph glyph-name="e" unicode="e" horiz-adv-x="625" 
d="M373 -21q-104 0 -176 40q-72 34 -111 108q-42 72 -42 160q0 82 48 156q47 71 119 112q35 21 74 33q39 10 78 10q119 0 168 -51q47 -53 47 -123q0 -82 -76 -141q-78 -60 -180 -60q-62 0 -115 21v-176q14 -15 55 -31t80 -16q66 0 99 10q30 10 52.5 28.5t43.5 18.5
q11 -12 11 -22q0 -17 -60 -46q-60 -31 -115 -31zM207 283q45 -14 96 -14q99 0 160 40q70 48 70 117q0 64 -45 94q-25 17 -52 25q-26 8 -63 8q-31 0 -47.5 -2t-56.5 -14q-43 -15 -62 -35v-219z" />
    <glyph glyph-name="f" unicode="f" horiz-adv-x="443" 
d="M143 74v621h-77l-33 4q-8 2 -8 18t8 23q6 6 33 6h77v372q0 146 56 261q53 114 180 114q45 0 78 -14q33 -16 33 -39q0 -20 -25 -20l-33 14q-20 10 -57 14q-102 0 -102 -180l4 -162l4 -231v-129h123q20 0 24 -29q0 -22 -28 -22h-119v-621l2 -39l2 -22q0 -13 -33 -13h-84
q-26 0 -33 13q8 26 8 61z" />
    <glyph glyph-name="g" unicode="g" horiz-adv-x="733" 
d="M477 539q0 22 9 31q6 6 26 6h70q22 0 31 -6q6 -7 6 -25l-2 -37l-2 -63v-560q0 -76 -33 -145q-35 -72 -90 -111q-58 -41 -133 -41q-23 0 -25 21q4 4 12 8q9 4 29 12q41 8 64 33q38 37 38 141v238q-32 -24 -81 -43q-50 -18 -82 -18q-121 0 -199 80q-78 77 -78 227
q0 152 82 231q80 80 195 80q39 0 163 -59zM477 473q-67 80 -163 80q-88 0 -162 -69q-66 -70 -66 -197q0 -135 70 -201q67 -65 158 -65q49 0 96 28q45 27 67 54v370z" />
    <glyph glyph-name="h" unicode="h" horiz-adv-x="772" 
d="M112 131v1231l-1 96q4 27 8 31t25 4h69q27 0 33 -4q6 -6 6 -26l-2 -41l-2 -60v-852q119 88 209 88q203 0 203 -243v-224l2 -59l2 -43q0 -19 -8 -25l-31 -4h-70q-37 0 -43 29q13 68 13 102v318q0 57 -21 78q-20 18 -65 18q-103 0 -191 -82v-332l2 -55l2 -43q0 -16 -6 -25
q-6 -8 -31 -8h-71q-19 0 -25 6l-8 31z" />
    <glyph glyph-name="i" unicode="i" 
d="M116 498l-5 63q2 15 33 15h77l29 -2l6 -13l-2 -24l-2 -39v-424l2 -35l2 -26q0 -13 -35 -13h-69q-37 0 -41 13l5 65v420zM183 750q-27 0 -52 20q-18 25 -18 49q0 31 20 52q17 20 50 24q30 0 53 -22q20 -23 20 -58q-2 -24 -22 -47q-23 -18 -51 -18z" />
    <glyph glyph-name="j" unicode="j" 
d="M116 498l-5 63l8 13l33 2h61l33 -2q6 -13 6 -17v-59v-592q0 -105 -41 -175q-18 -34 -43 -61q-24 -27 -57 -49q-60 -37 -111 -37q-37 0 -37 25q2 10 16 16l38 8q24 4 32 12q31 21 50 78q9 27 13 59.5t4 71.5v644zM183 750q-31 0 -50 22q-20 23 -20 47q0 31 20 50
q19 22 50 22q30 0 53 -20q20 -21 20 -52q0 -26 -20 -49q-25 -20 -53 -20z" />
    <glyph glyph-name="k" unicode="k" horiz-adv-x="660" 
d="M116 131v1231l-5 96q4 25 10 31q6 4 27 4h73q15 0 19 -2t8 -6t4 -31v-92v-1012l217 172l27 23q12 14 26 20q13 7 29 7q6 0 10 -4q2 -5 4 -7l-6 -16l-16 -16l-25 -19l-28 -24l-135 -109l200 -274q15 -21 39 -43q25 -29 25 -35q0 -25 -33 -25h-21l-8 17l-32 51l-207 287
l-66 -62v-162l2 -55l2 -43q0 -16 -6 -27q-10 -6 -29 -6h-73q-19 0 -25 6l-10 31q2 4 2 37q-1 33 1 57z" />
    <glyph glyph-name="l" unicode="l" 
d="M116 1362l-5 101q4 22 10 26q4 4 27 4h73q15 0 19 -2t8 -6t4 -31v-92v-1233l2 -57l2 -43q0 -29 -35 -29h-77q-29 0 -33 29l5 102v1231z" />
    <glyph glyph-name="m" unicode="m" horiz-adv-x="1141" 
d="M144 576h65q21 0 29 -4q6 -7 6 -27v-35q117 82 207 82q53 0 92 -20q8 -4 35 -23q26 -18 45 -35q65 41 110 64q43 20 101 20q94 0 147 -49q51 -49 51 -170l-4 -248l2 -63l2 -43q0 -25 -34 -25h-70q-33 0 -39 29l8 102v318q0 55 -20.5 75.5t-61.5 20.5q-55 0 -88 -16
q-32 -19 -90 -64v-334l2 -59l2 -43q0 -19 -8 -25l-22 -4h-74l-29 4q-6 4 -10 25l6 102v318q0 61 -14 80q-17 16 -51 16q-97 0 -195 -82v-332l2 -59l2 -43q0 -29 -33 -29h-75q-19 0 -25 6l-8 23l6 102v314l-6 98q4 33 37 33z" />
    <glyph glyph-name="n" unicode="n" horiz-adv-x="772" 
d="M144 576h71q21 0 27 -6l2 -25q4 -4 4 -35l111 64q47 24 98 24q203 0 203 -178v-289v-98q0 -20 -6 -27q-7 -6 -29 -6h-74q-29 0 -35 33q9 39 9 98v318q0 47 -15 71q-14 25 -67 25q-107 0 -195 -82v-332l2 -63l2 -43q0 -25 -37 -25h-71q-25 0 -32.5 9.5t-8.5 31.5
q6 60 7 150q2 88 2 96v31v26v25q0 43 -1 86q-2 41 -8 80q3 28 9 35q7 6 32 6z" />
    <glyph glyph-name="o" unicode="o" horiz-adv-x="699" 
d="M350 -20q-108 0 -176 45t-98 112q-34 66 -34 150q0 45 9 80q6 33 25 69q30 72 102 117t172 45q97 0 172 -43q68 -45 101 -112q33 -70 33 -156q0 -82 -31 -154q-33 -67 -103 -110q-69 -43 -172 -43zM611 287q0 88 -35 149q-37 60 -99 86q-59 31 -127 31q-147 0 -147 -96
v-338q0 -51 45 -74q43 -24 102 -24q109 0 185 66.5t76 199.5z" />
    <glyph glyph-name="p" unicode="p" horiz-adv-x="733" 
d="M116 445l-5 98q4 33 37 33h67q37 0 37 -37l47 20l64 27q20 8 53 12q129 0 205 -86q74 -86 74 -225q0 -31 -2 -61q-4 -31 -21 -76q-25 -70 -86 -119q-64 -52 -170 -52q-72 0 -164 62v-324l2 -63l2 -37q0 -21 -6 -27t-29 -6h-73q-25 0 -32 4q-5 14 -5 21l2 38q3 17 3 39v35
v724zM248 473v-370q27 -29 80 -60q51 -22 88 -22q72 0 123 37q49 34 80 100q24 59 24 129q0 84 -28.5 142.5t-81.5 90.5q-56 33 -117 33q-41 0 -88 -22.5t-80 -57.5z" />
    <glyph glyph-name="q" unicode="q" horiz-adv-x="733" 
d="M623 445v-724v-67l2 -41q0 -19 -8 -25l-31 -4h-74q-20 0 -27 6q-6 4 -8 23q8 37 8 104v324q-98 -62 -167 -62q-103 0 -168 50q-58 49 -86 119q-23 73 -23 139q0 94 31 159.5t96 108.5q66 43 150 43q24 0 55 -12l65 -27l47 -20l-3 6q4 31 34 31h70q25 0 33 -6q6 -9 6 -27
l-2 -41v-57zM485 473q-10 15 -31 29q-20 14 -44 27q-49 24 -92 24q-49 0 -88 -16q-39 -19 -76 -55q-66 -72 -66 -195q0 -35 6 -61q7 -29 21 -68q22 -59 78 -98q53 -39 125 -39q41 0 92 25.5t75 56.5v370z" />
    <glyph glyph-name="r" unicode="r" horiz-adv-x="592" 
d="M116 498l-5 63q4 11 10 13l39 2h55l35 -2l6 -13l-2 -22l-2 -33q43 51 82 72q37 20 74 20q61 0 102 -49t41 -100q0 -70 -39 -119q-39 -51 -104 -51q-53 0 -53 30q0 25 18 25l23 -2l24 -2q35 0 59 29q25 28 25 77q0 54 -27 78q-28 31 -69 31q-82 0 -156 -129v-342l2 -35
l2 -26q0 -13 -26 -13h-90q-25 0 -29 13l5 61v424z" />
    <glyph glyph-name="s" unicode="s" horiz-adv-x="551" 
d="M209 258q-140 99 -140 168q0 74 56 123q53 49 148 49q65 0 115.5 -24.5t50.5 -46.5q0 -17 -19 -21l-31 12l-53 25q-22 6 -31.5 8t-35.5 2q-95 0 -95 -59q0 -21 24 -45q19 -19 103 -72q84 -55 127 -104q45 -45 45 -107q0 -61 -32 -102q-17 -23 -35.5 -37t-46.5 -27
q-47 -21 -103 -21q-90 0 -143 40q-56 39 -56 67q0 21 21 21l33 -25q24 -29 59 -43q35 -18 99 -18q55 0 79 22q31 21 31 51q0 35 -39 74q-20 17 -53 39q-45 33 -78 51z" />
    <glyph glyph-name="t" unicode="t" horiz-adv-x="404" 
d="M127 1102q0 43 37 80t84 37q21 0 21 -66v-407h98q24 0 24 -29q0 -22 -24 -22h-98v-621v-61q0 -13 -35 -13h-64q-41 0 -45 13l4 18v22l2 21v621h-88q-26 0 -26 26q0 25 28 25h86l-2 178z" />
    <glyph glyph-name="u" unicode="u" horiz-adv-x="772" 
d="M625 1h-70q-28 0 -35 24l4 39q-73 -43 -114 -63q-43 -21 -96 -21q-88 0 -144 45q-58 43 -58 194v226l-1 98q4 22 10 29q4 4 23 4h71q23 0 29 -8l4 -29v-94v-318q0 -43 16 -69q15 -29 66 -29q104 0 194 82v334q0 65 -8 100q2 16 13 25q8 6 26 6h74q20 0 29 -6q6 -9 6 -43
l-4 -91l-4 -149l4 -184l4 -78q0 -24 -39 -24z" />
    <glyph glyph-name="v" unicode="v" horiz-adv-x="592" 
d="M41 576h84l17 -4l10 -13l8 -14l199 -399l166 381l20 43q12 6 18 6q23 0 23 -23q0 -10 -30 -76l-214 -460q-8 -13 -22 -27q-4 -5 -11 -11q-10 0 -32 42l-269 522l-4 6l-4 8q4 19 41 19z" />
    <glyph glyph-name="w" unicode="w" horiz-adv-x="955" 
d="M252 13l-209 473l-27 67q7 23 37 23h82q19 0 29 -11q8 -10 23 -51l147 -348l143 344l23 53q6 13 20 13q9 0 25 -29l18 -37l175 -344l120 303l17 56l14 43q2 8 19 8q28 0 28 -33q0 -14 -14 -35l-14 -26l-166 -437q-29 -66 -43 -66q-13 4 -17 8l-16 32l-14 26l-179 338
l-147 -354l-21 -29q-6 -10 -12 -15q-6 -4 -8 -6q-19 0 -33 34z" />
    <glyph glyph-name="x" unicode="x" horiz-adv-x="660" 
d="M78 498l-33 33l-8 14q0 31 25 31h108q23 0 31 -11l29 -34l120 -162l140 166l16 20l10 15l17 2q23 0 23 -23q0 -12 -6 -18l-17 -23l-35 -39l-122 -131l198 -260l27 -35l22 -22l6 -17q-10 -4 -18 -4h-121q-17 0 -25 8l-24 23l-25 29l-135 172l-146 -187q-41 -66 -61 -66
q-33 0 -33 29l6 15l29 30l31 33l149 185z" />
    <glyph glyph-name="y" unicode="y" horiz-adv-x="772" 
d="M215 576l31 -2l6 -13l-2 -20l-2 -43v-412q0 -65 86 -65q39 0 96 26q56 27 95 72v379q0 47 -9 63q2 15 39 15h70l31 -2l4 -17v-59v-613q0 -63 -35 -135q-37 -74 -96 -117q-60 -45 -129 -45q-23 0 -25 16l8 13l27 10l35 12q16 6 24 19q21 26 40 73q16 46 16 84v259
q-105 -94 -230 -94q-78 0 -129 47q-54 45 -54 127v344l-1 59q2 8 4 13l4 4l29 2h67z" />
    <glyph glyph-name="z" unicode="z" horiz-adv-x="625" 
d="M391 535h-139l-74 -2l-65 -2q-28 0 -28 18q0 27 28 27h412q30 0 30 -19q0 -10 -35 -63l-311 -453h182l63 2l66 2q35 0 35 -20q0 -25 -39 -25h-438q-27 0 -34 13l33 59z" />
    <glyph glyph-name="braceleft" unicode="{" horiz-adv-x="660" 
d="M529 1493v-86h-90q-48 0 -66 -63q-14 -60 -14 -125v-324q0 -90 -33 -172q-35 -82 -111 -119q74 -41 109 -125q35 -86 35 -170v-326q0 -80 18 -133q23 -50 62 -50h90v-91h-105q-71 0 -127 59q-55 60 -55 187v324q0 104 -29 190q-24 88 -106 88v90q135 0 135 283v324
q0 69 19.5 122.5t62.5 86.5q41 30 100 30h105z" />
    <glyph glyph-name="bar" unicode="|" horiz-adv-x="443" 
d="M178 0v1493h86v-1493h-86z" />
    <glyph glyph-name="braceright" unicode="}" horiz-adv-x="660" 
d="M131 1493h107q55 0 98 -30q41 -31 64 -86q20 -62 20 -123v-324q0 -283 139 -283v-90q-82 0 -110.5 -84t-28.5 -194v-324q0 -123 -53 -185q-55 -61 -129 -61h-107v91h90q82 0 82 184v326q0 90 33 172q33 79 107 118q-35 21 -62 54q-28 30 -45 69q-33 78 -33 172v324
q0 55 -16 125q-18 63 -66 63h-90v86z" />
    <glyph glyph-name="asciitilde" unicode="~" horiz-adv-x="1192" 
d="M209 256l-74 86q93 172 261 172q51 0 94 -18l112 -53l117 -50q45 -16 92 -16t84 35q41 33 90 110l70 -86q-49 -79 -111 -127q-53 -45 -137 -45q-53 0 -94 15l-115 51q-35 18 -53 26t-68 27q-49 16 -102 16q-102 0 -166 -143z" />
    <glyph glyph-name="quotesinglbase" unicode="&#x201a;" horiz-adv-x="455" 
d="M125 29v209h193v-164q0 -134 -31 -195q-41 -78 -135 -121l-43 72q49 18 80 70q28 49 28 129h-92z" />
    <glyph glyph-name="florin" unicode="&#x192;" horiz-adv-x="625" 
d="M220 858q0 84 26 164q28 78 84 129q53 49 135 49q121 0 121 -45q0 -18 -23 -18l-32 12q-27 10 -49 10q-62 0 -82.5 -34.5t-20.5 -108.5v-369h98q56 0 56 -26q0 -21 -56 -21h-98v-600q0 -156 -51 -285q-51 -131 -211 -131q-117 0 -117 39q0 18 29 18l27 -8l57 -6
q43 0 75 33t32 96v844h-77q-55 0 -55 21q0 26 55 26h77v211z" />
    <glyph glyph-name="quotedblbase" unicode="&#x201e;" horiz-adv-x="699" 
d="M564 -4q-33 -21 -66 -21q-47 0 -74.5 29t-27.5 78q0 47 32 76q31 27 76 27q47 0 82 -43q33 -45 33 -109t-35 -134q-37 -71 -82 -116q-45 -47 -78 -52q-20 0 -20 13q0 14 45 55q43 41 74 84q29 41 41 113zM244 -4q-33 -21 -61 -21q-48 0 -76 31q-29 27 -29 76q0 51 33 78
q31 25 76 25q49 0 84 -43q32 -43 32 -109q0 -62 -32 -130q-35 -67 -84 -116q-52 -51 -80 -51q-19 0 -19 12q0 14 43 51q41 37 72 80q31 41 41 117z" />
    <glyph glyph-name="ellipsis" unicode="&#x2026;" horiz-adv-x="1987" 
d="M334 -25q-41 0 -74 31q-35 31 -35 72t31 76q35 31 78 31q39 0 71.5 -31t32.5 -76q0 -41 -30 -72q-33 -31 -74 -31zM1657 -25q-43 0 -74 31q-30 31 -30 72t28 76q31 31 76 31q43 0 74 -31t31 -76q0 -41 -31 -72t-74 -31zM994 -25q-43 0 -74 31t-31 72q0 45 31 76
q28 31 74 31q45 0 77 -31q33 -31 33 -76q0 -41 -33 -72q-32 -31 -77 -31z" />
    <glyph glyph-name="dagger" unicode="&#x2020;" horiz-adv-x="994" 
d="M477 991q-124 0 -196 -12q-29 -6 -76 -20l-92 -33q-7 20 -7 35v121q0 12 3 16l4 4q139 -70 364 -70q0 50 -2 99q-4 49 -12 102q-16 90 -18 98q-11 35 -15 50l-18 69q0 13 35 13h100q35 0 35 -13l-17 -71q-18 -64 -30 -146q-15 -82 -15 -201q97 0 140 9q43 6 67 10
q25 4 56 14l67 25l31 12q2 0 6 -8q2 -8 2 -27v-106q0 -15 -2 -23t-6 -12l-45 18q-33 11 -60.5 19t-64.5 14q-72 14 -191 14q0 -272 58 -348q-31 -190 -43 -329q0 -21 -6 -150q-9 -129 -9 -205l5 -309q0 -19 -15 -19q-14 0 -33 19v157q0 80 -6 187q-14 248 -14 301
q-8 78 -14 158q-9 78 -27 190q35 60 47 125q2 10 8 80q6 68 6 143z" />
    <glyph glyph-name="daggerdbl" unicode="&#x2021;" horiz-adv-x="994" 
d="M578 580q-58 -191 -58 -408q119 0 191 15q27 6 63 16q35 8 61.5 17.5t33.5 13.5q6 2 12 6q4 -6 6 -12q2 -9 2 -23v-102q0 -17 -2 -25t-6 -14l-31 12l-67 25q-45 14 -91.5 20t-87.5 8t-84 2q0 -121 15 -207q12 -92 30 -172l17 -82q0 -12 -19 -12h-16h-100q-35 0 -35 12
l18 82l33 172q6 45 10 99q4 51 4 108q-229 0 -364 -67q-7 10 -7 18v123q0 16 3 25q0 6 4 10q41 -17 86 -31t96 -24q51 -13 182 -13q0 99 -16 203q-16 102 -45 205q25 65 43 143q6 35 12 98q6 64 6 130q-116 0 -200 -19q-64 -10 -164 -53q-7 20 -7 35v127q0 12 7 18
q143 -72 364 -72q0 47 -2 101q-4 53 -12 104t-12 86q-6 33 -21 90l-18 82q0 13 35 13h100q35 0 35 -13l-17 -84q-18 -76 -30 -170q-15 -86 -15 -209q103 0 189 17q41 6 64.5 12t62.5 18l45 19q0 -2 2 -2q6 -14 6 -31v-102q0 -15 -2 -23q-2 -10 -6 -16l-29 14l-65 23
q-35 12 -113 22q-68 13 -154 13q0 -220 58 -371z" />
    <glyph glyph-name="circumflex" unicode="&#x2c6;" 
d="M-29 695h-37l193 266h111l201 -266h-43l-201 219h-17z" />
    <glyph glyph-name="perthousand" unicode="&#x2030;" horiz-adv-x="1874" 
d="M285 17l147 278l156 293l139 266l146 283l14 31l12 26l13 6q24 0 24 -20l-16 -35l-27 -45l-127 -258l-133 -254l-154 -288l-133 -256l-18 -37l-14 -27l-11 -4l-20 3l-14 13l6 10zM342 576q-92 0 -162 43q-69 43 -102 114q-35 72 -35 158q0 137 80 223t219 86
q88 0 142 -45q55 -37 84 -110q28 -76 28 -154q0 -139 -69.5 -227t-184.5 -88zM342 600q68 0 119 41t80 111q24 67 24 139t-24 139q-14 33 -33 60q-18 26 -45 47q-55 39 -121 39q-71 0 -112 -27q-21 -16 -35.5 -37.5t-22.5 -54.5q-16 -66 -16 -166q0 -106 16 -172
q19 -61 60 -90t110 -29zM936 -20q-96 0 -164.5 45t-101.5 115q-33 67 -33 151q0 139 80 227q80 86 219 86q82 0 141 -43q58 -45 84 -114q27 -70 27 -156q0 -137 -67 -223q-68 -88 -185 -88zM936 4q68 0 119 41t80 107q24 67 24 139q0 74 -26.5 142.5t-77.5 107.5t-119 39
q-74 0 -115 -27q-40 -31 -51 -76q-11 -47 -16 -86q-4 -41 -4 -100q0 -104 17.5 -168.5t60.5 -91.5q41 -27 108 -27zM1579 -24q-98 0 -164 45q-65 41 -100 115.5t-35 154.5q0 90 39 164q37 72 103 108q63 41 157 41q127 0 191 -90q63 -92 63 -223q0 -141 -67 -227
q-68 -88 -187 -88zM1579 0q68 0 121 43q25 19 45 45q19 27 31 59.5t20 71.5q9 39 9 72q0 66 -25 135q-27 70 -78 111q-53 39 -123 39q-102 0 -143 -62q-21 -32 -30 -88q-13 -57 -13 -135q0 -102 16 -166q17 -65 60 -98q43 -27 110 -27z" />
    <glyph glyph-name="Scaron" unicode="&#x160;" horiz-adv-x="1108" 
d="M203 1102q0 129 73.5 219t184.5 131t219 41q131 0 131 -35q0 -20 -35 -26l-41 6l-49 8l-45 2q-73 0 -129 -20q-55 -23 -96 -64q-78 -78 -78 -168q0 -174 291 -329q61 -31 119 -66q56 -37 97 -72q79 -67 122 -149q39 -84 39 -184q0 -121 -66 -220q-65 -98 -186 -151
q-62 -29 -137 -44q-76 -14 -162 -14q-100 0 -201 48q-102 45 -168 125q-65 77 -65 169q0 17 8 27l20 10q15 0 33 -63q6 -35 17 -55q8 -23 28 -62q33 -61 113 -102q82 -47 225 -47q103 0 191 30q86 29 137 99q51 67 51 172q0 110 -68 190q-32 37 -81 76q-50 37 -117 76
l-191 116q-65 50 -110 103q-37 43 -58 102q-16 60 -16 121zM326 1897l199 -285l198 285l-198 -154z" />
    <glyph glyph-name="guilsinglleft" unicode="&#x2039;" 
d="M303 17h-59l-183 276l191 268h51l-176 -268z" />
    <glyph glyph-name="OE" unicode="&#x152;" horiz-adv-x="1987" 
d="M1095 68v1315q-134 66 -300 66q-152 0 -268 -101q-117 -103 -177 -264q-61 -164 -61 -359q0 -372 129 -547q129 -174 377 -174q166 0 300 64zM1301 957v-916h406l98 2l59 2q33 0 33 -20q0 -25 -31 -25h-745q-21 0 -21 29q-172 -62 -285 -62q-221 0 -391 84t-264 256
q-95 170 -95 418q0 135 56 271q53 135 156 249q49 54 108 97q60 43 129 75q142 66 301 66q74 0 129 -10q56 -13 94 -25q19 -6 66 -24q-4 4 -4 24q0 15 29 15h618l43 4l43 2q25 0 31 -6.5t6 -22.5q0 -29 -37 -29l-41 2l-45 2h-446v-411h447l59 2l71 2q60 0 60 -27
q0 -30 -60 -30h-22h-23q-16 4 -24 4l-62 2h-446z" />
    <glyph glyph-name="quoteleft" unicode="&#x2018;" 
d="M178 1032q-53 0 -84 52q-33 49 -33 102q0 59 37 131q17 37 35 62q19 24 47 55q54 49 80 49q21 0 21 -14l-10 -15q-13 -16 -35 -37q-45 -38 -77 -84q-32 -45 -38 -110q16 8 35 14q16 4 31 6q47 0 74.5 -30.5t27.5 -79.5q0 -41 -29 -70q-30 -31 -82 -31z" />
    <glyph glyph-name="quoteright" unicode="&#x2019;" 
d="M248 1276q-31 -18 -65 -22q-46 0 -73 28q-29 29 -29 80q0 49 31 74q28 27 79 27q47 0 80 -46q32 -45 32 -108q0 -62 -37 -133q-18 -39 -34 -62q-17 -22 -47 -55q-48 -47 -74 -47q-19 0 -24 12q0 15 43 53q15 13 38 37l39 45q32 50 41 117z" />
    <glyph glyph-name="quotedblleft" unicode="&#x201c;" horiz-adv-x="699" 
d="M135 1223q17 8 35 14q19 4 33 6q45 0 74 -26q26 -29 26 -80q0 -47 -28 -76q-29 -24 -76 -24q-49 0 -82 43q-35 41 -35 110q0 64 37 131q35 68 82 115t76 47q18 0 18 -14q0 -11 -43 -52q-43 -36 -74 -77q-30 -43 -43 -117zM455 1223q22 16 65 20q45 0 74 -30
q29 -33 29 -80q0 -45 -31 -72q-33 -29 -80 -29q-45 0 -80 48q-36 45 -36 110q0 62 37 129q30 64 83 117q52 47 80 47q19 0 19 -14q0 -13 -18 -29l-54 -49q-32 -33 -55 -72q-22 -39 -33 -96z" />
    <glyph glyph-name="quotedblright" unicode="&#x201d;" horiz-adv-x="699" 
d="M566 1276q-33 -22 -64 -26q-47 0 -74.5 29.5t-27.5 82.5q0 41 28 74q33 27 76 27q33 0 61 -19q25 -22 41 -59q17 -39 17 -80q0 -64 -34 -131q-38 -68 -85 -115q-49 -47 -80 -47q-16 0 -16 12q0 15 43 51l74 82q33 50 41 119zM248 1276q-31 -18 -65 -22q-43 0 -72 30
q-29 27 -29 78q0 49 31 74q27 27 78 27q47 0 80 -46q32 -45 32 -108q0 -62 -37 -133q-18 -39 -34 -62q-17 -22 -47 -55q-48 -47 -74 -47q-19 0 -23 12q0 15 43 53q15 13 37 37q23 25 39 45q33 50 41 117z" />
    <glyph glyph-name="bullet" unicode="&#x2022;" horiz-adv-x="994" 
d="M502 363q-55 0 -98 12q-43 10 -86 37q-85 47 -134 133q-50 84 -50 184q0 99 52 185q49 84 134 133q82 47 182 47q96 0 180 -49t133 -133q47 -84 47 -183q0 -102 -49 -184q-45 -82 -129 -131q-86 -51 -182 -51z" />
    <glyph glyph-name="endash" unicode="&#x2013;" horiz-adv-x="994" 
d="M994 248h-994v78h994v-78z" />
    <glyph glyph-name="emdash" unicode="&#x2014;" horiz-adv-x="1987" 
d="M1987 248h-1982l-5 78h1983z" />
    <glyph glyph-name="tilde" unicode="&#x2dc;" 
d="M-62 742q0 28 29 78.5t111 50.5q45 0 109 -21q28 -10 53 -16q24 -8 41 -10q74 0 98 77h53q-16 -73 -53 -102q-37 -31 -94 -31q-37 0 -105 19q-69 16 -102 16q-72 0 -95 -61h-45z" />
    <glyph glyph-name="trademark" unicode="&#x2122;" horiz-adv-x="1966" 
d="M799 1463v-101h-262v-727h-112l-1 727h-264v101h639zM1049 635h-117v828h189l251 -648l250 648h187v-828h-111v719l-293 -719h-69l-285 719z" />
    <glyph glyph-name="scaron" unicode="&#x161;" horiz-adv-x="551" 
d="M209 258q-140 99 -140 168q0 74 56 123q53 49 148 49q65 0 115.5 -24.5t50.5 -46.5q0 -17 -19 -21l-31 12l-53 25q-22 6 -31.5 8t-35.5 2q-95 0 -95 -59q0 -21 24 -45q19 -19 103 -72q84 -55 127 -104q45 -45 45 -107q0 -61 -32 -102q-17 -23 -35.5 -37t-46.5 -27
q-47 -21 -103 -21q-90 0 -143 40q-56 39 -56 67q0 21 21 21l33 -25q24 -29 59 -43q35 -18 99 -18q55 0 79 22q31 21 31 51q0 35 -39 74q-20 17 -53 39q-45 33 -78 51zM80 1047l199 -285l198 285l-198 -154z" />
    <glyph glyph-name="guilsinglright" unicode="&#x203a;" 
d="M61 561h60l186 -282l-190 -262h-56l181 262z" />
    <glyph glyph-name="oe" unicode="&#x153;" horiz-adv-x="1108" 
d="M688 240v-137q33 -82 170 -82q45 0 76 13l60 30l30 18q15 0 15 -18q0 -19 -33 -39q-12 -6 -35 -15.5t-61 -19.5q-41 -10 -84 -10q-60 0 -117 30q-60 29 -94 80q-45 -55 -117 -82q-74 -28 -148 -28q-92 0 -159 37q-70 36 -111 108q-21 35 -29.5 74t-8.5 88q0 96 38 164
q34 67 109 108q73 39 161 39q162 0 265 -125q108 125 247 125q43 0 78 -14q33 -14 66 -41q57 -55 57 -123q0 -61 -43 -108q-47 -48 -108.5 -70.5t-126.5 -22.5q-47 0 -97 21zM203 436v-325q0 -37 43 -66q43 -24 109 -24q145 0 195 78v370q-24 43 -83 63.5t-108 20.5
q-156 0 -156 -117zM688 473v-182q45 -27 119 -27q84 0 144 43q67 43 67 117q0 64 -47 94q-47 35 -113 35q-47 0 -98 -22q-53 -23 -72 -58z" />
    <glyph glyph-name="Ydieresis" unicode="&#x178;" horiz-adv-x="1215" 
d="M542 377l-497 981q-2 16 -26 47q-9 15 -13 23t-6 16q0 19 49 19h125q23 0 31 -5q6 -6 16 -12l19 -33l24 -51l445 -876l440 929q8 25 21 37q10 11 30 11q11 -9 11 -15q0 -20 -15 -55l-446 -940v-299v-39t4 -43l4 -51q0 -13 -6 -19l-23 -2h-174q-16 0 -18 21l5 133v223z
M504 1751q29 0 47 -18q18 -21 18 -49q0 -27 -18 -45q-20 -21 -47 -21q-25 0 -47 19q-18 22 -18 47q0 24 20 47q18 20 45 20zM850 1751q25 0 45 -20q21 -21 21 -43q0 -29 -23 -47q-22 -21 -43 -21q-31 0 -49 20.5t-18 47.5q0 22 16 45q22 18 51 18z" />
    <glyph glyph-name="nonbreakingspace" unicode="&#xa0;" horiz-adv-x="244" 
 />
    <glyph glyph-name="exclamdown" unicode="&#xa1;" horiz-adv-x="660" 
d="M363 350q0 -184 18 -342q17 -160 51 -334v-37q0 -16 -6 -22q-14 -6 -22 -6h-144q-24 0 -31 28l12 54q23 114 37 247l17 138q6 74 6 119q0 57 5.5 145t5.5 101l2 272q0 33 20 33q16 0 21 -33l-5 -70l5 -112l6 -99zM330 1094q45 0 75.5 -31t30.5 -76q0 -39 -30 -69
q-33 -33 -76 -33q-45 0 -72 33q-29 33 -29 73q0 43 27 74q25 29 74 29z" />
    <glyph glyph-name="cent" unicode="&#xa2;" horiz-adv-x="955" 
d="M457 205l76 772q-88 0 -140 -37q-51 -37 -73 -114q-25 -80 -25 -228q0 -139 12 -219q15 -74 52 -121q30 -37 98 -53zM498 158l-16 -207q0 -50 -27 -50t-27 43q0 27 4 35l23 191q-64 8 -139 62q-79 53 -130 139q-52 84 -52 192q0 146 60 250q60 105 154 158t184 53l11 195
q0 22 6 32.5t25 10.5q28 0 28 -31l-4 -39l-2 -39l-18 -129q59 -6 111.5 -30.5t82.5 -57.5q31 -33 31 -55q-10 -10 -18 -10q-13 0 -33 26q-2 4 -17 15q-22 18 -43 28q-38 23 -118 37l-72 -772q104 0 166 23q33 14 54.5 26t37.5 29q37 31 47 31q17 0 17 -13q-3 -32 -46 -65
q-34 -31 -112 -53q-80 -25 -168 -25z" />
    <glyph glyph-name="sterling" unicode="&#xa3;" horiz-adv-x="1108" 
d="M391 848q0 -37 35 -233l35 -191q43 -12 76 -12q43 0 80 12l47 12q14 -4 16 -8l8 -12q0 -49 -168 -49q-36 0 -59 6q0 -37 -4 -57l-12 -78l-9 -58q232 -155 371 -155q66 0 107 29q32 26 39 30q14 13 32 39q11 10 29 29l10 10q15 0 15 -25q0 -22 -31 -63q-33 -35 -86 -61
q-53 -29 -111 -29q-94 0 -180 41q-39 19 -90 49l-117 72q-43 -84 -96 -121q-51 -41 -133 -41q-53 0 -90 33q-39 30 -39 77q0 64 60.5 99t125.5 35q72 0 144 -31q8 24 8 86l-8 57l-9 39l-32 6l-29 4l-35 2l-37 -6l-40 -6l-9 6l-6 15q0 41 92 41l41 -5l41 -4q-10 33 -58 113
q-49 78 -74 139q-27 60 -27 131q0 109 56 195q49 86 142 139q92 51 199 51q129 0 213 -51q84 -53 120 -117q37 -65 37 -102q0 -25 -24 -25q-4 5 -6 7q-17 20 -27 43q-19 53 -45.5 96t-81.5 74q-55 34 -156 34q-90 0 -145 -41t-80 -110q-25 -72 -25 -160zM111 94
q0 -32 22 -51q23 -18 58 -18q63 0 128.5 41t65.5 100q-30 10 -63 16.5t-70 6.5q-45 0 -94 -25q-47 -29 -47 -70z" />
    <glyph glyph-name="currency" unicode="&#xa4;" horiz-adv-x="1108" 
d="M135 90l-78 80l107 113q-51 70 -78 147q-29 76 -29 158q0 88 29 162q27 74 84 145l-113 113l78 82l117 -109q125 101 299 101q90 0 170 -27q78 -29 133 -74l117 109l78 -82l-113 -113q43 -49 78 -131q29 -82 29 -172q0 -176 -103 -309l109 -113l-78 -80l-109 115
q-61 -55 -139 -84q-80 -31 -176 -31q-88 0 -164 31q-76 29 -139 84zM932 588q0 104 -53 193q-55 88 -141 139q-89 51 -175 51q-84 0 -170 -39q-86 -41 -149 -127q-66 -88 -66 -221q0 -109 55.5 -197t139.5 -131q82 -47 174 -47q109 0 197 53q86 52 137 138q51 84 51 188z
" />
    <glyph glyph-name="yen" unicode="&#xa5;" horiz-adv-x="1108" 
d="M729 660h246q31 0 31 -25q0 -22 -31 -22h-270l-64 -160v-45h334q31 0 31 -29q0 -20 -31 -20h-334v-192l2 -95l4 -51q0 -13 -6 -19l-26 -2h-129q-29 0 -31 21l4 30l4 52l1 51v205h-308q-27 0 -35 14l8 14l8 15q13 6 19 6h299l-88 205h-211q-29 0 -31 22q0 21 31 25h190
l-194 422l-17 36l-14 35q6 23 35 23h121h12q14 0 33 -43l289 -651l260 651q16 43 37 43q16 0 16 -21q0 -20 -8 -37z" />
    <glyph glyph-name="brokenbar" unicode="&#xa6;" horiz-adv-x="281" 
d="M187 17v1517h82v-1517h-82z" />
    <glyph glyph-name="section" unicode="&#xa7;" horiz-adv-x="994" 
d="M113 631q0 86 57 166q58 78 137 117q-139 94 -139 250q0 92 49 161q47 68 125 107.5t162 39.5q76 0 145 -28q70 -29 115 -70q43 -43 43 -79q0 -19 -20 -19l-9 6q-8 8 -18 27l-45 59q-25 27 -76 52q-53 24 -129 24q-63 0 -117.5 -27.5t-89.5 -78.5q-30 -54 -30 -115
q0 -90 74 -148q72 -59 225 -141q154 -84 232 -158q77 -73 77 -184q0 -207 -186 -323q157 -129 157 -290q0 -92 -49 -172q-51 -82 -137 -125q-86 -45 -180 -45q-41 0 -80 10t-84 31q-80 37 -133 96q-54 60 -54 103q0 33 21 33q6 -7 8 -11q10 -14 21 -34q20 -41 24 -45
q12 -19 33 -41q14 -21 37 -37q22 -19 59 -40q66 -32 152 -32q67 0 131 28q61 29 104 84.5t43 127.5q0 107 -71 168q-72 59 -240 152q-170 92 -256 178q-88 86 -88 223zM195 699q0 -70 45 -129q43 -62 106 -105q64 -43 181 -100l129 -68q55 12 98 80q45 64 45 133
q0 60 -47 113t-119 98q-57 35 -74 43q-37 21 -90 47l-127 74q-61 -16 -104 -70.5t-43 -115.5z" />
    <glyph glyph-name="dieresis" unicode="&#xa8;" 
d="M13 891q28 0 47 -18q18 -21 18 -49q0 -27 -18 -46q-21 -20 -47 -20t-49 18q-18 23 -18 48q0 24 20 47q19 20 47 20zM359 891q24 0 44.5 -20.5t20.5 -42.5q0 -29 -22 -47q-23 -21 -43 -21q-31 0 -50 21q-18 20 -18 47q0 22 16 45q23 18 52 18z" />
    <glyph glyph-name="copyright" unicode="&#xa9;" horiz-adv-x="1592" 
d="M1494 422q-62 -141 -171 -244q-110 -102 -252 -155q-141 -56 -305 -56t-334 95q-172 94 -282 272q-113 176 -113 395q0 117 23 209q22 90 69 172q86 154 215 238q127 82 246 115q117 30 205 30q137 0 272 -51q135 -53 246 -149q109 -99 176.5 -242t67.5 -318
q0 -168 -63 -311zM371 733q0 152 61 258q60 107 164 165q105 57 215 57q150 0 260 -84q111 -86 125 -234h-112q-33 101 -105 158q-71 53 -160 53q-65 0 -120 -26q-60 -25 -105 -74q-47 -51 -73.5 -119t-26.5 -154q0 -110 47 -198q47 -82 123 -127q74 -45 155 -45
q62 0 109 23q51 20 90 67t66 123h116q-24 -150 -129.5 -234t-244.5 -84q-113 0 -215 49q-105 50 -172 158q-68 109 -68 268zM160 729q0 -98 35 -211q35 -112 113.5 -215.5t203.5 -166.5q123 -64 283 -64q147 0 264 54q117 52 201 145q84 90 129 213q45 120 45 245
q0 183 -82 336q-84 152 -231 238q-70 42 -154 67q-86 22 -172 22q-141 0 -260 -53q-121 -53 -203 -143q-84 -92 -126 -211q-46 -120 -46 -256z" />
    <glyph glyph-name="ordfeminine" unicode="&#xaa;" horiz-adv-x="443" 
d="M309 870q-55 -39 -114 -39q-72 0 -123 48q-48 51 -48 137q0 80 50 135q49 49 113 49q79 0 122 -41q0 29 9 31h8h53q10 0 14 -4q5 -4 7 -6v-39v-250v-39q-9 -8 -15 -8h-63q-13 0 -13 26zM309 901l5 230q-50 37 -107 37q-65 0 -110 -45q-44 -50 -44 -107q0 -61 44 -106
q40 -48 106 -48q25 0 53 10q27 11 53 29z" />
    <glyph glyph-name="guillemotleft" unicode="&#xab;" horiz-adv-x="592" 
d="M307 17h-55l-187 276l191 268h51l-176 -268zM525 17h-59l-185 276l188 268h56l-179 -268z" />
    <glyph glyph-name="logicalnot" unicode="&#xac;" horiz-adv-x="1192" 
d="M893 193v301h-680v90h768v-391h-88z" />
    <glyph glyph-name="minus" unicode="&#xad;" horiz-adv-x="682" 
d="M65 441v180h554v-180h-554z" />
    <glyph glyph-name="registered" unicode="&#xae;" horiz-adv-x="1592" 
d="M160 729q0 -98 35 -211q35 -112 113.5 -215.5t203.5 -166.5q123 -64 283 -64q147 0 264 54q117 52 201 145q84 90 129 213q45 120 45 245q0 183 -82 336q-84 152 -231 238q-70 42 -154 67q-86 22 -172 22q-141 0 -260 -53q-121 -53 -203 -143q-84 -92 -126 -211
q-46 -120 -46 -256zM1494 422q-62 -141 -171 -244q-110 -102 -252 -155q-141 -56 -305 -56t-334 95q-172 94 -282 272q-113 176 -113 395q0 117 23 209q22 90 69 172q86 154 215 238q127 82 246 115q117 30 205 30q137 0 272 -51q135 -53 246 -149q109 -99 176.5 -242
t67.5 -318q0 -168 -63 -311zM625 1086v-310h201q206 0 206 154q0 156 -217 156h-190zM510 1180h342q297 0 297 -250q0 -205 -225 -248l260 -399h-135l-246 395h-178v-395h-115v897z" />
    <glyph glyph-name="macron" unicode="&#xaf;" horiz-adv-x="1131" 
d="M-31 1567v129h1192v-129h-1192z" />
    <glyph glyph-name="degree" unicode="&#xb0;" horiz-adv-x="819" 
d="M129 1215q0 114 80 196q80 80 197 80q114 0 196 -80q80 -82 80 -196q0 -115 -80 -197q-82 -82 -196 -82q-115 0 -195 82q-82 80 -82 197zM238 1215q0 -68 49 -121q53 -49 119 -49q69 0 119 49q48 49 48 121q0 65 -48 116q-50 51 -119 51q-70 0 -119 -49t-49 -118z" />
    <glyph glyph-name="plusminus" unicode="&#xb1;" horiz-adv-x="1192" 
d="M551 506v270h90v-270h340v-86h-340v-270h-90v270h-338v86h338zM213 0v90h768v-90h-768z" />
    <glyph glyph-name="twosuperior" unicode="&#xb2;" horiz-adv-x="660" 
d="M252 553q53 43 94 94q39 50 66 103q49 102 49 246q0 96 -37 139q-37 41 -115 41q-75 0 -139 -47q-57 -47 -57 -97q0 -24 -19 -24q-16 0 -16 16q0 43 29 80q26 37 86 68q57 28 137 28q104 0 180 -65q76 -68 76 -172q0 -49 -34 -129q-33 -66 -103 -142.5t-172 -148.5
q100 -53 162 -53q71 0 100 20q31 15 47 45q16 25 25 25q8 -8 8 -12q0 -48 -64 -74q-63 -29 -112 -29q-43 0 -78 12l-109 50q-88 -54 -153 -54q-43 0 -62.5 12.5t-19.5 41.5q0 30 22 47q19 18 64 18q67 0 145 -39zM230 539q-62 29 -123 29q-62 0 -62 -37q0 -41 49 -41
q52 0 136 49z" />
    <glyph glyph-name="threesuperior" unicode="&#xb3;" horiz-adv-x="660" 
d="M439 862l-52 -14q-43 -12 -61 -12q-74 0 -74 45q0 41 82 41l102 -17q18 66 18 119q0 152 -128 152q-72 0 -113 -25q-33 -24 -57 -63q-8 -15 -21 -27l-10 -10q-12 0 -12 12q0 33 32.5 65.5t84.5 53.5q49 18 96 18q88 0 162 -43q71 -43 71 -120q0 -50 -23 -84
q-22 -35 -67 -62q142 -72 142 -188q0 -64 -35 -119q-35 -57 -101 -86q-65 -33 -168 -33q-104 0 -186 55q-84 54 -84 123q0 13 12 17q7 -6 9 -8q10 -13 16 -27l33 -62q22 -28 71 -51q50 -23 129 -23q101 0 141.5 51.5t40.5 154.5q0 112 -50 167zM322 856q63 0 94 25
q-35 20 -94 20q-45 0 -45 -22q0 -23 45 -23z" />
    <glyph glyph-name="acute" unicode="&#xb4;" 
d="M285 961h106l-260 -262h-46z" />
    <glyph glyph-name="mu" unicode="&#xb5;" horiz-adv-x="772" 
d="M112 236v209l-1 98q4 22 10 29q4 4 23 4h71q23 0 29 -8l4 -29v-94v-318q0 -43 16 -69q15 -29 70 -29q100 0 190 82v334q0 65 -8 100q2 16 13 25q8 6 26 6h74q20 0 29 -11q6 -10 6 -47v-493q0 -25 -39 -25h-70q-28 0 -35 25l4 39q-73 -43 -114 -64q-43 -21 -96 -21l-66 8
v-270l2 -63l2 -37q0 -19 -6 -25l-31 -4h-71q-19 0 -25 6q-8 4 -12 27q5 35 5 96v519z" />
    <glyph glyph-name="paragraph" unicode="&#xb6;" horiz-adv-x="1192" 
d="M511 -326l-1 1025q-121 0 -213 51q-92 49 -145 135q-53 84 -53 188q0 127 53 215q51 86 153 132q101 43 238 43h451v-1789h-113v1694h-256v-1694h-114z" />
    <glyph glyph-name="periodcentered" unicode="&#xb7;" horiz-adv-x="404" 
d="M207 494q37 0 70 -29q30 -35 30 -78t-32.5 -73.5t-67.5 -30.5q-41 0 -76 31q-29 32 -29 73q0 43 31 76q29 31 74 31z" />
    <glyph glyph-name="cedilla" unicode="&#xb8;" 
d="M379 -252q0 -131 -192 -131q-99 0 -204 45l21 41q76 -53 179 -53q67 0 108 26q39 27 39 72q0 67 -60 86q-61 16 -139 16l56 150h26l-39 -115q205 0 205 -137z" />
    <glyph glyph-name="onesuperior" unicode="&#xb9;" horiz-adv-x="660" 
d="M268 568v573l-38 -12l-43 -11q-11 0 -13 9q11 12 17 14l118 45q39 14 54 14q12 0 12 -41v-591l2 -50l2 -28q0 -4 -2 -6q-4 -5 -6 -7h-90q-17 0 -17 13l2 26z" />
    <glyph glyph-name="ordmasculine" unicode="&#xba;" horiz-adv-x="420" 
d="M209 831q-100 0 -149 58q-52 55 -52 127q0 76 50 131q53 53 151 53q105 0 152 -53q51 -53 51 -131q0 -80 -49 -131q-51 -54 -154 -54zM375 1016q0 80 -45 119q-47 37 -121 37q-35 0 -65.5 -13.5t-30.5 -40.5v-204q0 -21 33 -35q30 -17 63 -17q74 0 121 39q45 37 45 115z
" />
    <glyph glyph-name="guillemotright" unicode="&#xbb;" horiz-adv-x="592" 
d="M65 561h60l182 -282l-186 -262h-56l177 262zM281 561h57l187 -282l-191 -262h-53l176 262z" />
    <glyph glyph-name="onequarter" unicode="&#xbc;" horiz-adv-x="1657" 
d="M330 -25h-61l927 1225h70zM272 572v569l-40 -12l-41 -11q-4 0 -6 5q-5 2 -7 4q11 12 17 14l119 45l49 14q12 0 12 -28v-13v-587l4 -52l6 -26l-6 -10l-8 -7h-90q-17 0 -17 17l5 26zM1237 205v387l-348 -369l92 9q25 0 56 -2q30 -4 84 -13zM1237 90v82l-100 17
q-88 16 -156 16q-65 0 -98 -8l-35 -8q-12 0 -14 8l8 16l12 15l426 450q41 43 51 43q17 0 17 -35v-481q37 0 64 8q24 8 36 17l23 14q16 0 16 -16q0 -17 -49 -35q-34 -13 -51 -17q-16 -4 -39 -4v-82l2 -47l2 -30q0 -13 -16 -13h-86q-15 0 -15 13l2 30v47z" />
    <glyph glyph-name="onehalf" unicode="&#xbd;" horiz-adv-x="1657" 
d="M272 572v569l-40 -12l-41 -11q-4 0 -6 5q-5 2 -7 4q11 12 17 14l119 45l49 14q12 0 12 -28v-13v-587l4 -52l6 -26l-6 -10l-8 -7h-90q-17 0 -17 17l5 26zM330 -25h-61l927 1225h70zM1207 72q55 45 94 94q39 47 65 103q49 100 49 249q0 101 -36 142q-37 39 -113 39
q-80 0 -139 -50q-60 -49 -60 -96q0 -26 -18 -26q-10 0 -15 18q0 39 31 80q27 41 86 70q58 26 129 26q68 0 125 -29q58 -28 96 -83q35 -58 35 -127q0 -89 -78 -201q-79 -115 -227 -217q96 -51 162 -51q67 0 100 18q31 18 43 45q10 14 21 23q2 0 4 4q10 0 10 -21
q0 -12 -20 -35q-23 -22 -62 -41q-41 -19 -92 -19h-37q-18 7 -24 9l-58 21l-67 28q-101 -53 -156 -53q-80 0 -80 53q0 31 25 52q24 18 59 18q68 0 148 -43zM1184 60q-55 30 -125 30q-57 0 -57 -45q0 -32 47 -32q61 0 135 47z" />
    <glyph glyph-name="threequarters" unicode="&#xbe;" horiz-adv-x="1657" 
d="M1237 90v82l-100 17q-88 16 -156 16q-65 0 -98 -8l-35 -8q-12 0 -14 8l8 16l12 15l426 450q41 43 51 43q17 0 17 -35v-481q37 0 64 8q24 8 36 17l23 14q16 0 16 -16q0 -17 -49 -35q-34 -13 -51 -17q-16 -4 -39 -4v-82l2 -47l2 -30q0 -13 -16 -13h-86q-15 0 -15 13l2 30
v47zM1237 205v387l-348 -369l92 9q25 0 56 -2q30 -4 84 -13zM391 -25h-61l932 1225h66zM439 862q-27 -8 -60 -16q-33 -10 -49 -10q-74 0 -74 43t82 43l101 -17q18 60 18 115q0 156 -127 156q-76 0 -117 -27q-37 -28 -57 -65q-8 -15 -21 -27l-10 -10q-12 0 -12 16q0 51 74 94
q71 43 143 43q88 0 162 -43q72 -43 72 -120q0 -46 -21 -82q-25 -37 -70 -64q146 -74 146 -188q0 -99 -80 -168.5t-232 -69.5q-69 0 -131 27q-63 24 -98 63q-37 37 -37 88q0 13 12 17q9 0 25 -35l31 -62q20 -28 67 -51t131 -23q99 0 144 52q43 55 43 154q0 114 -55 167z
M326 856q55 0 94 25q-39 20 -94 20q-45 0 -45 -22q0 -23 45 -23z" />
    <glyph glyph-name="questiondown" unicode="&#xbf;" horiz-adv-x="807" 
d="M477 1094q45 0 76 -31q29 -33 29 -72q0 -40 -29 -75q-35 -31 -76 -31q-47 0 -75.5 35t-28.5 71q0 39 29 72q28 31 75 31zM264 -60q0 -151 52 -221q49 -74 153 -74q47 0 105 25q55 25 94 74q37 49 37 114q0 13 12 27q10 12 21 12q28 0 28 -34q0 -70 -51 -136
q-51 -65 -129 -103q-78 -36 -147 -36q-78 0 -156 36q-80 38 -129 122q-52 84 -52 213q0 107 45 185q23 41 55.5 84t84.5 100q92 102 135 168q43 63 43 143q0 21 -8 39l-10 29q0 22 22 22q15 0 33 -18q14 -21 14 -55q0 -656 -252 -716z" />
    <glyph glyph-name="Agrave" unicode="&#xc0;" horiz-adv-x="1254" 
d="M226 568l360 890q14 35 47 35q21 0 35 -39l547 -1351l23 -41q16 -33 16 -45q0 -17 -35 -17h-131h-37l-12 2q-9 13 -11 19l-10 24l-184 477h-582l-41 -102l-61 -145l-56 -138l-41 -116q-6 -21 -28 -21q-25 0 -25 17l8 26l113 260l86 219h-149q-54 0 -54 23t54 23h168z
M816 568l-269 675l-270 -675h539zM424 1821h109l199 -268h-47z" />
    <glyph glyph-name="Aacute" unicode="&#xc1;" horiz-adv-x="1254" 
d="M226 568l360 890q14 35 47 35q21 0 35 -39l547 -1351l23 -41q16 -33 16 -45q0 -17 -35 -17h-131h-37l-12 2q-9 13 -11 19l-10 24l-184 477h-582l-41 -102l-61 -145l-56 -138l-41 -116q-6 -21 -28 -21q-25 0 -25 17l8 26l113 260l86 219h-149q-54 0 -54 23t54 23h168z
M816 568l-269 675l-270 -675h539zM731 1821h109l-262 -264h-45z" />
    <glyph glyph-name="Acircumflex" unicode="&#xc2;" horiz-adv-x="1254" 
d="M226 568l360 890q14 35 47 35q21 0 35 -39l547 -1351l23 -41q16 -33 16 -45q0 -17 -35 -17h-131h-37l-12 2q-9 13 -11 19l-10 24l-184 477h-582l-41 -102l-61 -145l-56 -138l-41 -116q-6 -21 -28 -21q-25 0 -25 17l8 26l113 260l86 219h-149q-54 0 -54 23t54 23h168z
M816 568l-269 675l-270 -675h539zM416 1553h-39l193 268h110l203 -268h-43l-201 219h-16z" />
    <glyph glyph-name="Atilde" unicode="&#xc3;" horiz-adv-x="1254" 
d="M226 568l360 890q14 35 47 35q21 0 35 -39l547 -1351l23 -41q16 -33 16 -45q0 -17 -35 -17h-131h-37l-12 2q-9 13 -11 19l-10 24l-184 477h-582l-41 -102l-61 -145l-56 -138l-41 -116q-6 -21 -28 -21q-25 0 -25 17l8 26l113 260l86 219h-149q-54 0 -54 23t54 23h168z
M816 568l-269 675l-270 -675h539zM381 1600q4 35 33 84q27 47 106 47q37 0 111 -23l94 -26q72 0 99 77h51q-17 -75 -54 -102q-38 -29 -94 -29q-30 0 -57 7q-29 6 -45 10q-72 16 -105 16q-71 0 -94 -61h-45z" />
    <glyph glyph-name="Adieresis" unicode="&#xc4;" horiz-adv-x="1254" 
d="M226 568l360 890q14 35 47 35q21 0 35 -39l547 -1351l23 -41q16 -33 16 -45q0 -17 -35 -17h-131h-37l-12 2q-9 13 -11 19l-10 24l-184 477h-582l-41 -102l-61 -145l-56 -138l-41 -116q-6 -21 -28 -21q-25 0 -25 17l8 26l113 260l86 219h-149q-54 0 -54 23t54 23h168z
M816 568l-269 675l-270 -675h539zM457 1749q27 0 45 -18.5t18 -48.5q0 -25 -18 -45.5t-45 -20.5t-47 21q-21 18 -21 45q0 28 23 49q20 18 45 18zM801 1749q25 0 47 -18q19 -23 19 -45q0 -29 -21 -47q-20 -19 -45 -19q-31 0 -47 19q-20 18 -20 47q0 26 18 44.5t49 18.5z" />
    <glyph glyph-name="Aring" unicode="&#xc5;" horiz-adv-x="1254" 
d="M226 568l360 890q14 35 47 35q21 0 35 -39l547 -1351l23 -41q16 -33 16 -45q0 -17 -35 -17h-131h-37l-12 2q-9 13 -11 19l-10 24l-184 477h-582l-41 -102l-61 -145l-56 -138l-41 -116q-6 -21 -28 -21q-25 0 -25 17l8 26l113 260l86 219h-149q-54 0 -54 23t54 23h168z
M816 568l-269 675l-270 -675h539zM627 1776q-49 0 -78 -29q-29 -31 -29 -78q0 -43 31 -73q27 -31 76 -31q47 0 76 28.5t29 75.5q0 50 -29 78q-29 29 -76 29zM627 1813q61 0 101.5 -41t40.5 -103q0 -63 -40 -100q-39 -39 -102 -39q-62 0 -100 41q-41 41 -41 98q0 58 41 101
t100 43z" />
    <glyph glyph-name="AE" unicode="&#xc6;" horiz-adv-x="1800" 
d="M907 522h-558l-57 -98l-85 -147l-94 -158l-43 -76q-12 -43 -37 -43q-37 0 -37 21l6 14l15 18l16 19l57 94l107 187l102 169h-155q-37 0 -37 27q0 19 37 19h178l450 754l68 114q18 27 33 27h692l39 4l45 2q41 0 41 -29t-41 -29l-41 2l-43 2h-455v-411h455l59 2l70 2
q55 0 57 -27q0 -30 -57 -30l-68 4l-61 2h-455v-916h412l96 2l60 2q32 0 32 -20q0 -25 -28 -25h-750q-33 0 -33 21l3 241zM375 568h532v799q0 57 -14 57q-16 -7 -20 -11l-19 -26l-30 -54z" />
    <glyph glyph-name="Ccedilla" unicode="&#xc7;" horiz-adv-x="1471" 
d="M840 -33l-29 -82q207 0 207 -137q0 -131 -199 -131q-92 0 -196 45l14 41q78 -53 178 -53q68 0 111 26q41 25 41 72q0 67 -64 84q-59 18 -137 18l41 117q-180 0 -348 86q-168 84 -275 258.5t-107 421.5q0 197 66 347q66 147 176.5 239t237.5 133t254 41q125 0 250 -49
q123 -49 201 -115.5t78 -109.5q0 -19 -21 -19q-14 0 -61 50q-25 22 -47 47l-52 43q-47 41 -135 75q-90 33 -213 33q-110 0 -200 -39q-93 -39 -160 -121q-70 -81 -111 -219.5t-41 -339.5q0 -194 41 -331q39 -138 107 -220q80 -88 168 -124q86 -37 196 -37q150 0 252 51
q103 49 154 108q51 60 96 131q43 72 55 72q29 0 29 -33q0 -24 -41 -88q-41 -63 -117 -127q-69 -65 -176 -112q-53 -25 -108.5 -38.5t-114.5 -13.5z" />
    <glyph glyph-name="Egrave" unicode="&#xc8;" horiz-adv-x="1032" 
d="M134 154v1155l-1 57l-4 51l-4 27q2 8 4 12l4 4l23 3h635l43 4l43 2q39 0 39 -29t-39 -29l-39 2l-47 2h-453v-411h453l61 2l68 2q55 0 59 -31q0 -26 -59 -26l-64 4l-65 2h-453v-916h408l100 2l53 2q37 0 37 -20q0 -25 -28 -25h-752q-27 0 -31 25l4 43zM309 1821h111
l199 -268h-49z" />
    <glyph glyph-name="Eacute" unicode="&#xc9;" horiz-adv-x="1032" 
d="M134 154v1155l-1 57l-4 51l-4 27q2 8 4 12l4 4l23 3h635l43 4l43 2q39 0 39 -29t-39 -29l-39 2l-47 2h-453v-411h453l61 2l68 2q55 0 59 -31q0 -26 -59 -26l-64 4l-65 2h-453v-916h408l100 2l53 2q37 0 37 -20q0 -25 -28 -25h-752q-27 0 -31 25l4 43zM619 1821h106
l-260 -264h-45z" />
    <glyph glyph-name="Ecircumflex" unicode="&#xca;" horiz-adv-x="1032" 
d="M134 154v1155l-1 57l-4 51l-4 27q2 8 4 12l4 4l23 3h635l43 4l43 2q39 0 39 -29t-39 -29l-39 2l-47 2h-453v-411h453l61 2l68 2q55 0 59 -31q0 -26 -59 -26l-64 4l-65 2h-453v-916h408l100 2l53 2q37 0 37 -20q0 -25 -28 -25h-752q-27 0 -31 25l4 43zM305 1553h-37
l193 268h109l202 -268h-43l-200 219h-17z" />
    <glyph glyph-name="Edieresis" unicode="&#xcb;" horiz-adv-x="1032" 
d="M134 154v1155l-1 57l-4 51l-4 27q2 8 4 12l4 4l23 3h635l43 4l43 2q39 0 39 -29t-39 -29l-39 2l-47 2h-453v-411h453l61 2l68 2q55 0 59 -31q0 -26 -59 -26l-64 4l-65 2h-453v-916h408l100 2l53 2q37 0 37 -20q0 -25 -28 -25h-752q-27 0 -31 25l4 43zM346 1749
q29 0 47 -18q19 -19 19 -49q0 -27 -19 -45q-20 -21 -47 -21q-26 0 -45 18.5t-23 47.5q0 26 21 46.5t47 20.5zM692 1749q27 0 48 -18q18 -21 18 -45q0 -29 -18 -47q-21 -19 -48 -19q-32 0 -49.5 18.5t-17.5 47.5q0 24 16 45q23 18 51 18z" />
    <glyph glyph-name="Igrave" unicode="&#xcc;" horiz-adv-x="516" 
d="M155 154v1155q0 70 -11 131q2 12 4 16q2 0 6 4q2 3 20 3h164l23 -3q6 -12 6 -16l-4 -49q-2 -16 -2 -33q-2 -18 -2 -31v-22v-1159v-37q0 -19 4 -43l4 -49q0 -21 -25 -21h-168q-24 0 -30 25q11 78 11 129zM49 1821h111l199 -268h-49z" />
    <glyph glyph-name="Iacute" unicode="&#xcd;" horiz-adv-x="516" 
d="M155 154v1155q0 70 -11 131q2 12 4 16q2 0 6 4q2 3 20 3h164l23 -3q6 -12 6 -16l-4 -49q-2 -16 -2 -33q-2 -18 -2 -31v-22v-1159v-37q0 -19 4 -43l4 -49q0 -21 -25 -21h-168q-24 0 -30 25q11 78 11 129zM359 1821h108l-262 -264h-46z" />
    <glyph glyph-name="Icircumflex" unicode="&#xce;" horiz-adv-x="516" 
d="M155 154v1155q0 70 -11 131q2 12 4 16q2 0 6 4q2 3 20 3h164l23 -3q6 -12 6 -16l-4 -49q-2 -16 -2 -33q-2 -18 -2 -31v-22v-1159v-37q0 -19 4 -43l4 -49q0 -21 -25 -21h-168q-24 0 -30 25q11 78 11 129zM45 1553h-37l193 268h108l203 -268h-43l-200 219h-15z" />
    <glyph glyph-name="Idieresis" unicode="&#xcf;" horiz-adv-x="516" 
d="M155 154v1155q0 70 -11 131q2 12 4 16q2 0 6 4q2 3 20 3h164l23 -3q6 -12 6 -16l-4 -49q-2 -16 -2 -33q-2 -18 -2 -31v-22v-1159v-37q0 -19 4 -43l4 -49q0 -21 -25 -21h-168q-24 0 -30 25q11 78 11 129zM86 1749q29 0 47 -18q19 -19 19 -49q0 -27 -19 -45
q-20 -21 -47 -21q-26 0 -45 21q-18 16 -22 45q0 26 20 47q21 20 47 20zM432 1749q27 0 47 -18q19 -21 19 -45q0 -29 -19.5 -47.5t-46.5 -18.5q-32 0 -49.5 18.5t-17.5 47.5q0 26 18 45q19 18 49 18z" />
    <glyph glyph-name="Eth" unicode="&#xd0;" horiz-adv-x="1327" 
d="M125 878h-158q-25 0 -25 23q0 29 25 29h158v387q0 68 -12 133q6 19 27 19l196 -2l197 -4q73 0 134.5 -10.5t131.5 -37.5q127 -45 233 -139q107 -96 167 -231q31 -70 47 -148t16 -168q0 -178 -61 -319q-62 -144 -164 -232q-105 -88 -240 -133t-272 -45h-385q-25 0 -29 17
l4 28l8 49l2 60v724zM326 878v-833h185q67 0 132.5 12.5t133.5 34.5q127 48 225 131q96 82 156 216q57 131 57 294q0 238 -105 392q-104 151 -268 220.5t-340 69.5h-176v-485h387q33 0 33 -29q0 -16 -22 -20z" />
    <glyph glyph-name="Ntilde" unicode="&#xd1;" horiz-adv-x="1254" 
d="M1088 652l-920 587v-1222q0 -17 -20 -17q-21 0 -25 4q-10 13 -10 21q8 35 8 98v1210q0 70 -8 117q6 43 31 43q10 -4 20 -10q8 -6 37 -31l98 -69l789 -502l-4 291v260q0 37 30 37q23 0 23 -41l-2 -47l-2 -68v-1198v-86q0 -21 -4 -25l-19 -4q-22 0 -22 33v619zM404 1600
q0 28 28 80q29 51 111 51q35 0 109 -23l94 -26q71 0 98 77h53q-16 -73 -53 -102q-39 -29 -94 -29q-29 0 -45 2q-17 3 -60 15q-71 16 -102 16q-72 0 -94 -61h-45z" />
    <glyph glyph-name="Ograve" unicode="&#xd2;" horiz-adv-x="1544" 
d="M57 733q0 76 16 152q15 74 48 145q70 148 168 246t225 157.5t258 59.5q197 0 338 -65q140 -68 221 -178q82 -113 119 -246q37 -135 37 -275q0 -149 -48 -286q-47 -140 -134 -244q-90 -107 -225 -168q-138 -64 -308 -64q-176 0 -305 62q-131 61 -227 172q-41 47 -78 114.5
t-58 131.5q-47 137 -47 286zM1439 729q0 160 -45.5 293t-129.5 232q-84 96 -195 151q-112 53 -250 53q-161 0 -266 -65q-106 -68 -164.5 -174.5t-80.5 -233.5q-23 -129 -23 -252q0 -129 19 -247q18 -121 75 -234q55 -112 164 -180q106 -68 276 -68q158 0 277 68
q119 65 192 170q74 102 117 235q34 134 34 252zM578 1821h110l199 -268h-47z" />
    <glyph glyph-name="Oacute" unicode="&#xd3;" horiz-adv-x="1544" 
d="M57 733q0 76 16 152q15 74 48 145q70 148 168 246t225 157.5t258 59.5q197 0 338 -65q140 -68 221 -178q82 -113 119 -246q37 -135 37 -275q0 -149 -48 -286q-47 -140 -134 -244q-90 -107 -225 -168q-138 -64 -308 -64q-176 0 -305 62q-131 61 -227 172q-41 47 -78 114.5
t-58 131.5q-47 137 -47 286zM1439 729q0 160 -45.5 293t-129.5 232q-84 96 -195 151q-112 53 -250 53q-161 0 -266 -65q-106 -68 -164.5 -174.5t-80.5 -233.5q-23 -129 -23 -252q0 -129 19 -247q18 -121 75 -234q55 -112 164 -180q106 -68 276 -68q158 0 277 68
q119 65 192 170q74 102 117 235q34 134 34 252zM887 1821h107l-261 -264h-45z" />
    <glyph glyph-name="Ocircumflex" unicode="&#xd4;" horiz-adv-x="1544" 
d="M57 733q0 76 16 152q15 74 48 145q70 148 168 246t225 157.5t258 59.5q197 0 338 -65q140 -68 221 -178q82 -113 119 -246q37 -135 37 -275q0 -149 -48 -286q-47 -140 -134 -244q-90 -107 -225 -168q-138 -64 -308 -64q-176 0 -305 62q-131 61 -227 172q-41 47 -78 114.5
t-58 131.5q-47 137 -47 286zM1439 729q0 160 -45.5 293t-129.5 232q-84 96 -195 151q-112 53 -250 53q-161 0 -266 -65q-106 -68 -164.5 -174.5t-80.5 -233.5q-23 -129 -23 -252q0 -129 19 -247q18 -121 75 -234q55 -112 164 -180q106 -68 276 -68q158 0 277 68
q119 65 192 170q74 102 117 235q34 134 34 252zM574 1553h-37l192 268h111l203 -268h-45l-201 219h-14z" />
    <glyph glyph-name="Otilde" unicode="&#xd5;" horiz-adv-x="1544" 
d="M57 733q0 76 16 152q15 74 48 145q70 148 168 246t225 157.5t258 59.5q197 0 338 -65q140 -68 221 -178q82 -113 119 -246q37 -135 37 -275q0 -149 -48 -286q-47 -140 -134 -244q-90 -107 -225 -168q-138 -64 -308 -64q-176 0 -305 62q-131 61 -227 172q-41 47 -78 114.5
t-58 131.5q-47 137 -47 286zM1439 729q0 160 -45.5 293t-129.5 232q-84 96 -195 151q-112 53 -250 53q-161 0 -266 -65q-106 -68 -164.5 -174.5t-80.5 -233.5q-23 -129 -23 -252q0 -129 19 -247q18 -121 75 -234q55 -112 164 -180q106 -68 276 -68q158 0 277 68
q119 65 192 170q74 102 117 235q34 134 34 252zM541 1600q0 28 29 82q32 49 110 49q17 0 46.5 -6t62.5 -17l94 -26q76 0 98 77h53q-16 -73 -53 -102q-39 -29 -94 -29q-16 0 -35 2q-18 0 -67 15q-72 16 -105 16q-71 0 -94 -61h-45z" />
    <glyph glyph-name="Odieresis" unicode="&#xd6;" horiz-adv-x="1544" 
d="M57 733q0 76 16 152q15 74 48 145q70 148 168 246t225 157.5t258 59.5q197 0 338 -65q140 -68 221 -178q82 -113 119 -246q37 -135 37 -275q0 -149 -48 -286q-47 -140 -134 -244q-90 -107 -225 -168q-138 -64 -308 -64q-176 0 -305 62q-131 61 -227 172q-41 47 -78 114.5
t-58 131.5q-47 137 -47 286zM1439 729q0 160 -45.5 293t-129.5 232q-84 96 -195 151q-112 53 -250 53q-161 0 -266 -65q-106 -68 -164.5 -174.5t-80.5 -233.5q-23 -129 -23 -252q0 -129 19 -247q18 -121 75 -234q55 -112 164 -180q106 -68 276 -68q158 0 277 68
q119 65 192 170q74 102 117 235q34 134 34 252zM615 1749q28 0 46.5 -18.5t18.5 -48.5q0 -25 -18 -47q-23 -19 -47 -19q-27 0 -45 21q-21 18 -21 45q0 28 21 49q18 18 45 18zM961 1749q22 0 43 -16q20 -19 20 -47q0 -31 -20 -47q-21 -19 -43 -19q-33 0 -49 19q-19 18 -19 47
q0 28 19 47q18 16 49 16z" />
    <glyph glyph-name="multiply" unicode="&#xd7;" horiz-adv-x="1196" 
d="M161 410l314 315l-314 314l124 120l313 -313l314 313l118 -120l-311 -314l313 -313l-120 -123l-314 313l-315 -313z" />
    <glyph glyph-name="Oslash" unicode="&#xd8;" horiz-adv-x="1544" 
d="M447 154q135 -150 372 -150q158 0 277 68q119 65 192 170q74 102 117 235q34 134 34 252q0 117 -22 213q-10 45 -28 97q-19 49 -39 90q-49 92 -109 151zM420 189l791 1116q-39 37 -84 65q-45 29 -93 50q-49 18 -104 28q-57 10 -111 10q-161 0 -266 -65
q-106 -68 -164.5 -174.5t-80.5 -233.5q-23 -129 -23 -252q0 -147 27 -301q32 -143 108 -243zM387 72l-149 -214l-51 -8l172 249q-103 77 -172 176q-33 49 -58 104q-25 53 -41 111q-31 110 -31 243q0 152 66 297q64 146 166 246q100 101 227 160q125 57 256 57
q285 0 463 -147l133 192l62 6l-160 -227q70 -63 117 -149q26 -50 45 -93q16 -45 28 -106q27 -121 27 -240q0 -149 -48 -286q-47 -140 -134 -244q-90 -107 -225 -168q-138 -64 -308 -64q-209 0 -385 105z" />
    <glyph glyph-name="Ugrave" unicode="&#xd9;" horiz-adv-x="1327" 
d="M110 1305q0 61 -11 135l8 18q12 5 18 5h170q23 0 23 -27l-4 -47l-5 -80v-791q0 -266 113 -383.5t281 -117.5q121 0 233 68q113 65 174 192q30 65 48.5 147t18.5 174v834q0 31 25 31q21 0 25 -31v-834q0 -67 -10 -133q-10 -65 -27 -123q-35 -110 -108 -200
q-76 -84 -177.5 -129.5t-232.5 -45.5q-270 0 -416 156t-146 426v756zM490 1821h108l199 -268h-47z" />
    <glyph glyph-name="Uacute" unicode="&#xda;" horiz-adv-x="1327" 
d="M110 1305q0 61 -11 135l8 18q12 5 18 5h170q23 0 23 -27l-4 -47l-5 -80v-791q0 -266 113 -383.5t281 -117.5q121 0 233 68q113 65 174 192q30 65 48.5 147t18.5 174v834q0 31 25 31q21 0 25 -31v-834q0 -67 -10 -133q-10 -65 -27 -123q-35 -110 -108 -200
q-76 -84 -177.5 -129.5t-232.5 -45.5q-270 0 -416 156t-146 426v756zM797 1821h108l-262 -264h-45z" />
    <glyph glyph-name="Ucircumflex" unicode="&#xdb;" horiz-adv-x="1327" 
d="M110 1305q0 61 -11 135l8 18q12 5 18 5h170q23 0 23 -27l-4 -47l-5 -80v-791q0 -266 113 -383.5t281 -117.5q121 0 233 68q113 65 174 192q30 65 48.5 147t18.5 174v834q0 31 25 31q21 0 25 -31v-834q0 -67 -10 -133q-10 -65 -27 -123q-35 -110 -108 -200
q-76 -84 -177.5 -129.5t-232.5 -45.5q-270 0 -416 156t-146 426v756zM486 1553h-39l194 268h109l203 -268h-43l-201 219h-17z" />
    <glyph glyph-name="Udieresis" unicode="&#xdc;" horiz-adv-x="1327" 
d="M110 1305q0 61 -11 135l8 18q12 5 18 5h170q23 0 23 -27l-4 -47l-5 -80v-791q0 -266 113 -383.5t281 -117.5q121 0 233 68q113 65 174 192q30 65 48.5 147t18.5 174v834q0 31 25 31q21 0 25 -31v-834q0 -67 -10 -133q-10 -65 -27 -123q-35 -110 -108 -200
q-76 -84 -177.5 -129.5t-232.5 -45.5q-270 0 -416 156t-146 426v756zM527 1749q26 0 47 -18q18 -19 18 -49q0 -27 -18 -45q-21 -21 -47 -21q-27 0 -45.5 18.5t-22.5 47.5q0 24 18 47q25 20 50 20zM871 1749q24 0 44.5 -18.5t20.5 -44.5q0 -29 -20.5 -47.5t-44.5 -18.5
q-31 0 -50 21q-18 18 -18 45q0 26 18 45q19 18 50 18z" />
    <glyph glyph-name="Yacute" unicode="&#xdd;" horiz-adv-x="1215" 
d="M542 377l-497 981q-2 16 -26 47q-9 15 -13 23t-6 16q0 19 49 19h125q23 0 31 -5q6 -6 16 -12l19 -33l24 -51l445 -876l440 929q8 25 21 37q10 11 30 11q11 -9 11 -15q0 -20 -15 -55l-446 -940v-299v-39t4 -43l4 -51q0 -13 -6 -19l-23 -2h-174q-16 0 -18 21l5 133v223z
M740 1821h108l-262 -264h-45z" />
    <glyph glyph-name="Thorn" unicode="&#xde;" horiz-adv-x="1215" 
d="M134 129v1180l-3 80l-6 47q2 27 27 27h166q26 0 28 -27l-4 -47l-4 -80v-59h74q197 0 336 -43q137 -43 231 -123q92 -80 135 -176q41 -99 41 -218q0 -108 -43 -196t-125 -154q-84 -65 -211 -103q-129 -37 -288 -37l-150 9v-80l4 -72l4 -44q0 -13 -28 -13h-166
q-23 0 -27 13l4 24l4 41zM338 264l174 -16q201 0 330 66q131 59 201 161q28 50 46.5 107t18.5 108q0 97 -45 189t-129 166q-86 73 -211 114q-127 41 -284 41h-101v-936z" />
    <glyph glyph-name="germandbls" unicode="&#xdf;" horiz-adv-x="733" 
d="M111 131v1022q0 340 239 340q70 0 122.5 -45t82.5 -115q31 -69 31 -139q0 -141 -39 -223q-41 -82 -156 -115q99 -6 160 -75q64 -66 91 -162q26 -99 26 -199q0 -154 -59 -297q-62 -144 -189 -144q-55 0 -86 40q-31 32 -31 92q0 33 23 35q16 0 22 -13q7 -14 7 -55
q0 -65 65 -65q39 0 57 24q23 23 35 102.5t12 239.5q0 197 -14 295q-16 96 -57 127q-41 27 -119 27q-49 0 -49 24q0 23 70 23q59 0 92 61q30 62 30 250q0 102 -10 163.5t-41 90.5q-28 23 -84 23q-49 0 -73 -15q-27 -16 -27 -80v-1237l2 -106q0 -25 -35 -25h-69q-37 0 -37 25
l4 51z" />
    <glyph glyph-name="agrave" unicode="&#xe0;" horiz-adv-x="733" 
d="M490 45q-97 -65 -187 -65q-114 0 -188 82q-74 80 -74 221q0 94 37 163.5t96 106.5q58 35 121 35q62 0 109 -12q28 -11 45 -19q16 -10 37 -30l4 20q0 12 6 23l8 6h88l25 -2q6 -13 6 -17v-59v-424v-39l2 -27q-14 -7 -27 -7h-96q-4 3 -6 5q-8 11 -10 23zM490 86v391
q-84 68 -172 68q-68 0 -119 -37q-53 -37 -82 -98.5t-29 -126.5q0 -103 59.5 -182.5t170.5 -79.5q88 0 172 65zM140 965h108l199 -266h-47z" />
    <glyph glyph-name="aacute" unicode="&#xe1;" horiz-adv-x="733" 
d="M490 45q-97 -65 -187 -65q-114 0 -188 82q-74 80 -74 221q0 94 37 163.5t96 106.5q58 35 121 35q62 0 109 -12q28 -11 45 -19q16 -10 37 -30l4 20q0 12 6 23l8 6h88l25 -2q6 -13 6 -17v-59v-424v-39l2 -27q-14 -7 -27 -7h-96q-4 3 -6 5q-8 11 -10 23zM490 86v391
q-84 68 -172 68q-68 0 -119 -37q-53 -37 -82 -98.5t-29 -126.5q0 -103 59.5 -182.5t170.5 -79.5q88 0 172 65zM447 965h109l-261 -262h-47z" />
    <glyph glyph-name="acircumflex" unicode="&#xe2;" horiz-adv-x="733" 
d="M490 45q-97 -65 -187 -65q-114 0 -188 82q-74 80 -74 221q0 94 37 163.5t96 106.5q58 35 121 35q62 0 109 -12q28 -11 45 -19q16 -10 37 -30l4 20q0 12 6 23l8 6h88l25 -2q6 -13 6 -17v-59v-424v-39l2 -27q-14 -7 -27 -7h-96q-4 3 -6 5q-8 11 -10 23zM490 86v391
q-84 68 -172 68q-68 0 -119 -37q-53 -37 -82 -98.5t-29 -126.5q0 -103 59.5 -182.5t170.5 -79.5q88 0 172 65zM135 699h-38l194 266h109l203 -266h-43l-201 219h-17z" />
    <glyph glyph-name="atilde" unicode="&#xe3;" horiz-adv-x="733" 
d="M490 45q-97 -65 -187 -65q-114 0 -188 82q-74 80 -74 221q0 94 37 163.5t96 106.5q58 35 121 35q62 0 109 -12q28 -11 45 -19q16 -10 37 -30l4 20q0 12 6 23l8 6h88l25 -2q6 -13 6 -17v-59v-424v-39l2 -27q-14 -7 -27 -7h-96q-4 3 -6 5q-8 11 -10 23zM490 86v391
q-84 68 -172 68q-68 0 -119 -37q-53 -37 -82 -98.5t-29 -126.5q0 -103 59.5 -182.5t170.5 -79.5q88 0 172 65zM101 742q4 30 32 79q27 50 109 50q43 0 106 -21l95 -26q73 0 100 77h54q-19 -75 -56 -102q-37 -31 -94 -31q-35 0 -103 19q-71 16 -102 16q-72 0 -96 -61h-45z
" />
    <glyph glyph-name="adieresis" unicode="&#xe4;" horiz-adv-x="733" 
d="M490 45q-97 -65 -187 -65q-114 0 -188 82q-74 80 -74 221q0 94 37 163.5t96 106.5q58 35 121 35q62 0 109 -12q28 -11 45 -19q16 -10 37 -30l4 20q0 12 6 23l8 6h88l25 -2q6 -13 6 -17v-59v-424v-39l2 -27q-14 -7 -27 -7h-96q-4 3 -6 5q-8 11 -10 23zM490 86v391
q-84 68 -172 68q-68 0 -119 -37q-53 -37 -82 -98.5t-29 -126.5q0 -103 59.5 -182.5t170.5 -79.5q88 0 172 65zM176 891q31 0 45 -20q21 -19 21 -47q0 -27 -19.5 -46.5t-46.5 -19.5q-24 0 -43.5 17.5t-23.5 48.5q0 26 20 47q21 20 47 20zM520 891q27 0 45 -20q21 -19 21 -43
q0 -29 -21 -47q-20 -21 -45 -21q-26 0 -49 18q-18 27 -18 50q0 22 18 43q19 20 49 20z" />
    <glyph glyph-name="aring" unicode="&#xe5;" horiz-adv-x="733" 
d="M490 45q-97 -65 -187 -65q-114 0 -188 82q-74 80 -74 221q0 94 37 163.5t96 106.5q58 35 121 35q62 0 109 -12q28 -11 45 -19q16 -10 37 -30l4 20q0 12 6 23l8 6h88l25 -2q6 -13 6 -17v-59v-424v-39l2 -27q-14 -7 -27 -7h-96q-4 3 -6 5q-8 11 -10 23zM490 86v391
q-84 68 -172 68q-68 0 -119 -37q-53 -37 -82 -98.5t-29 -126.5q0 -103 59.5 -182.5t170.5 -79.5q88 0 172 65zM346 918q-47 0 -75 -29q-29 -31 -29 -78q0 -45 29 -73q28 -31 75 -31q45 0 78 28q27 33 27 76q0 45 -27 78q-33 29 -78 29zM346 955q62 0 103 -41q41 -43 41 -103
q0 -59 -41 -100q-37 -41 -103 -41q-59 0 -100 41t-41 100q0 62 41 101q41 43 100 43z" />
    <glyph glyph-name="ae" unicode="&#xe6;" horiz-adv-x="994" 
d="M574 473v-182q35 -22 110 -22q88 0 154 38q65 39 65 119q0 70 -47 96q-47 31 -118 31q-111 0 -164 -80zM574 244v-115q0 -53 49 -80.5t110 -27.5q58 0 91 14q30 14 49 33q12 10 18 14l12 4q17 0 17 -22q0 -27 -68 -56q-67 -28 -119 -28q-90 0 -159 41q0 -33 -19 -33h-90
q-22 0 -22 33q-64 -41 -136 -41q-81 0 -141 39q-65 37 -98 106q-19 33 -27 74q-8 39 -8 88q0 80 35 147q29 64 98 119q68 45 141 45q54 0 132 -49q4 16 8 19q6 8 18 8h78q14 0 22 -11q9 -6 9 -22q106 55 159 55q93 0 152 -41t59 -131q0 -61 -34 -106q-35 -47 -93 -72
q-57 -25 -118 -25q-78 0 -125 21zM439 72v422q-48 59 -132 59q-69 0 -122.5 -41t-80 -102.5t-26.5 -126.5q0 -103 61.5 -182.5t167.5 -79.5q68 0 132 51z" />
    <glyph glyph-name="ccedilla" unicode="&#xe7;" horiz-adv-x="592" 
d="M342 -21l-33 -94q207 0 207 -137q0 -131 -194 -131q-92 0 -201 45l19 41q77 -53 178 -53q67 0 108 26q39 27 39 72q0 102 -196 102l45 129q-60 0 -107 23q-47 21 -88 66q-75 86 -75 219q0 80 40 152q37 71 103 116q32 21 71 33q39 10 80 10q31 0 58 -4q24 -6 67 -22
q66 -25 66 -74q0 -16 -17 -16l-33 22q-22 21 -53 35q-39 14 -88 14q-57 0 -90 -20q-35 -21 -41 -47v-412q31 -53 131 -53q58 0 90 14q31 12 58 35q24 20 39 20q14 0 14 -18q0 -37 -72 -66q-76 -27 -125 -27z" />
    <glyph glyph-name="egrave" unicode="&#xe8;" horiz-adv-x="625" 
d="M373 -21q-104 0 -176 40q-72 34 -111 108q-42 72 -42 160q0 82 48 156q47 71 119 112q35 21 74 33q39 10 78 10q119 0 168 -51q47 -53 47 -123q0 -82 -76 -141q-78 -60 -180 -60q-62 0 -115 21v-176q14 -15 55 -31t80 -16q66 0 99 10q30 10 52.5 28.5t43.5 18.5
q11 -12 11 -22q0 -17 -60 -46q-60 -31 -115 -31zM207 283q45 -14 96 -14q99 0 160 40q70 48 70 117q0 64 -45 94q-25 17 -52 25q-26 8 -63 8q-31 0 -47.5 -2t-56.5 -14q-43 -15 -62 -35v-219zM131 965h111l197 -266h-48z" />
    <glyph glyph-name="eacute" unicode="&#xe9;" horiz-adv-x="625" 
d="M373 -21q-104 0 -176 40q-72 34 -111 108q-42 72 -42 160q0 82 48 156q47 71 119 112q35 21 74 33q39 10 78 10q119 0 168 -51q47 -53 47 -123q0 -82 -76 -141q-78 -60 -180 -60q-62 0 -115 21v-176q14 -15 55 -31t80 -16q66 0 99 10q30 10 52.5 28.5t43.5 18.5
q11 -12 11 -22q0 -17 -60 -46q-60 -31 -115 -31zM207 283q45 -14 96 -14q99 0 160 40q70 48 70 117q0 64 -45 94q-25 17 -52 25q-26 8 -63 8q-31 0 -47.5 -2t-56.5 -14q-43 -15 -62 -35v-219zM439 965h109l-261 -262h-45z" />
    <glyph glyph-name="ecircumflex" unicode="&#xea;" horiz-adv-x="625" 
d="M373 -21q-104 0 -176 40q-72 34 -111 108q-42 72 -42 160q0 82 48 156q47 71 119 112q35 21 74 33q39 10 78 10q119 0 168 -51q47 -53 47 -123q0 -82 -76 -141q-78 -60 -180 -60q-62 0 -115 21v-176q14 -15 55 -31t80 -16q66 0 99 10q30 10 52.5 28.5t43.5 18.5
q11 -12 11 -22q0 -17 -60 -46q-60 -31 -115 -31zM207 283q45 -14 96 -14q99 0 160 40q70 48 70 117q0 64 -45 94q-25 17 -52 25q-26 8 -63 8q-31 0 -47.5 -2t-56.5 -14q-43 -15 -62 -35v-219zM123 699h-37l193 266h108l205 -266h-45l-201 219h-14z" />
    <glyph glyph-name="edieresis" unicode="&#xeb;" horiz-adv-x="625" 
d="M373 -21q-104 0 -176 40q-72 34 -111 108q-42 72 -42 160q0 82 48 156q47 71 119 112q35 21 74 33q39 10 78 10q119 0 168 -51q47 -53 47 -123q0 -82 -76 -141q-78 -60 -180 -60q-62 0 -115 21v-176q14 -15 55 -31t80 -16q66 0 99 10q30 10 52.5 28.5t43.5 18.5
q11 -12 11 -22q0 -17 -60 -46q-60 -31 -115 -31zM207 283q45 -14 96 -14q99 0 160 40q70 48 70 117q0 64 -45 94q-25 17 -52 25q-26 8 -63 8q-31 0 -47.5 -2t-56.5 -14q-43 -15 -62 -35v-219zM164 895q29 0 47 -18q19 -21 19 -49q0 -25 -19 -47q-20 -19 -47 -21
q-22 0 -47 21q-17 20 -21 47q0 22 20.5 44.5t47.5 22.5zM510 895q25 0 45 -18q19 -21 19 -45q0 -29 -19 -47q-20 -21 -45 -21q-31 0 -49 23q-20 20 -20 45q0 24 18 45q18 18 51 18z" />
    <glyph glyph-name="igrave" unicode="&#xec;" 
d="M116 498l-5 63q2 15 33 15h77l29 -2l6 -13l-2 -24l-2 -39v-424l2 -35l2 -26q0 -13 -35 -13h-69q-37 0 -41 13l5 65v420zM-25 965h111l199 -266h-47z" />
    <glyph glyph-name="iacute" unicode="&#xed;" 
d="M116 498l-5 63q2 15 33 15h77l29 -2l6 -13l-2 -24l-2 -39v-424l2 -35l2 -26q0 -13 -35 -13h-69q-37 0 -41 13l5 65v420zM285 965h106l-260 -262h-45z" />
    <glyph glyph-name="icircumflex" unicode="&#xee;" 
d="M116 498l-5 63q2 15 33 15h77l29 -2l6 -13l-2 -24l-2 -39v-424l2 -35l2 -26q0 -13 -35 -13h-69q-37 0 -41 13l5 65v420zM-29 699h-37l193 266h111l201 -266h-43l-201 219h-17z" />
    <glyph glyph-name="idieresis" unicode="&#xef;" 
d="M116 498l-5 63q2 15 33 15h77l29 -2l6 -13l-2 -24l-2 -39v-424l2 -35l2 -26q0 -13 -35 -13h-69q-37 0 -41 13l5 65v420zM13 895q28 0 47 -18q18 -21 18 -49q0 -27 -18.5 -45.5t-46.5 -22.5q-23 0 -48 21q-18 22 -18 47q0 24 20 47q18 20 46 20zM359 895q24 0 44.5 -20.5
t20.5 -42.5q0 -29 -20 -47q-21 -21 -45 -21q-31 0 -50 21q-18 20 -18 47q0 22 16 45q23 18 52 18z" />
    <glyph glyph-name="eth" unicode="&#xf0;" horiz-adv-x="699" 
d="M203 457v-338q0 -51 45 -74.5t102 -23.5q86 0 142 35q55 32 88 94q31 67 31 137q0 76 -31 135q-27 60 -86 96q-62 35 -144 35q-57 0 -102 -20q-45 -23 -45 -76zM186 996l205 149q-82 133 -244 258l-37 33l-25 20l-8 17q0 20 26 20q14 0 92 -61q153 -125 244 -260l213 149
l20 15l20 12l11 6q14 0 16 -21q0 -12 -55 -51l-207 -141q199 -309 199 -741v-103q0 -96 -37 -170q-39 -74 -107.5 -110.5t-161.5 -36.5q-92 0 -159 37q-70 36 -111 108q-21 35 -29.5 74t-8.5 88q0 96 38 164q34 67 109 108q73 39 161 39q156 0 242 -108l6 -8q0 178 -47 337
q-49 158 -135 291l-209 -147l-18 -12q-9 -7 -15 -9t-10 -4q-17 0 -17 23q0 10 6 16z" />
    <glyph glyph-name="ntilde" unicode="&#xf1;" horiz-adv-x="772" 
d="M144 576h71q21 0 27 -6l2 -25q4 -4 4 -35l111 64q47 24 98 24q203 0 203 -178v-289v-98q0 -20 -6 -27q-7 -6 -29 -6h-74q-29 0 -35 33q9 39 9 98v318q0 47 -15 71q-14 25 -67 25q-107 0 -195 -82v-332l2 -63l2 -43q0 -25 -37 -25h-71q-25 0 -32.5 9.5t-8.5 31.5
q6 60 7 150q2 88 2 96v31v26v25q0 43 -1 86q-2 41 -8 80q3 28 9 35q7 6 32 6zM141 738q0 28 29 79q27 50 111 50q41 0 108 -21q29 -10 54 -16q24 -9 41 -11q71 0 98 78h54q-17 -73 -52 -102q-37 -29 -96 -29q-17 0 -35 2q-19 0 -68 15q-71 16 -104 16q-72 0 -94 -61h-46z
" />
    <glyph glyph-name="ograve" unicode="&#xf2;" horiz-adv-x="699" 
d="M350 -20q-108 0 -176 45t-98 112q-34 66 -34 150q0 45 9 80q6 33 25 69q30 72 102 117t172 45q97 0 172 -43q68 -45 101 -112q33 -70 33 -156q0 -82 -31 -154q-33 -67 -103 -110q-69 -43 -172 -43zM611 287q0 88 -35 149q-37 60 -99 86q-59 31 -127 31q-147 0 -147 -96
v-338q0 -51 45 -74q43 -24 102 -24q109 0 185 66.5t76 199.5zM143 965h109l199 -266h-47z" />
    <glyph glyph-name="oacute" unicode="&#xf3;" horiz-adv-x="699" 
d="M350 -20q-108 0 -176 45t-98 112q-34 66 -34 150q0 45 9 80q6 33 25 69q30 72 102 117t172 45q97 0 172 -43q68 -45 101 -112q33 -70 33 -156q0 -82 -31 -154q-33 -67 -103 -110q-69 -43 -172 -43zM611 287q0 88 -35 149q-37 60 -99 86q-59 31 -127 31q-147 0 -147 -96
v-338q0 -51 45 -74q43 -24 102 -24q109 0 185 66.5t76 199.5zM451 957h108l-260 -262h-47z" />
    <glyph glyph-name="ocircumflex" unicode="&#xf4;" horiz-adv-x="699" 
d="M350 -20q-108 0 -176 45t-98 112q-34 66 -34 150q0 45 9 80q6 33 25 69q30 72 102 117t172 45q97 0 172 -43q68 -45 101 -112q33 -70 33 -156q0 -82 -31 -154q-33 -67 -103 -110q-69 -43 -172 -43zM611 287q0 88 -35 149q-37 60 -99 86q-59 31 -127 31q-147 0 -147 -96
v-338q0 -51 45 -74q43 -24 102 -24q109 0 185 66.5t76 199.5zM140 699h-40l195 266h109l202 -266h-43l-200 219h-17z" />
    <glyph glyph-name="otilde" unicode="&#xf5;" horiz-adv-x="699" 
d="M350 -20q-108 0 -176 45t-98 112q-34 66 -34 150q0 45 9 80q6 33 25 69q30 72 102 117t172 45q97 0 172 -43q68 -45 101 -112q33 -70 33 -156q0 -82 -31 -154q-33 -67 -103 -110q-69 -43 -172 -43zM611 287q0 88 -35 149q-37 60 -99 86q-59 31 -127 31q-147 0 -147 -96
v-338q0 -51 45 -74q43 -24 102 -24q109 0 185 66.5t76 199.5zM104 738q2 16 10 36q7 21 21 43q27 50 109 50q45 0 109 -21q28 -10 53 -16q24 -9 41 -11q73 0 100 78h51q-16 -73 -51 -102q-37 -29 -96 -29q-31 0 -58.5 6t-44.5 11q-71 16 -104 16q-70 0 -94 -61h-46z" />
    <glyph glyph-name="odieresis" unicode="&#xf6;" horiz-adv-x="699" 
d="M350 -20q-108 0 -176 45t-98 112q-34 66 -34 150q0 45 9 80q6 33 25 69q30 72 102 117t172 45q97 0 172 -43q68 -45 101 -112q33 -70 33 -156q0 -82 -31 -154q-33 -67 -103 -110q-69 -43 -172 -43zM611 287q0 88 -35 149q-37 60 -99 86q-59 31 -127 31q-147 0 -147 -96
v-338q0 -51 45 -74q43 -24 102 -24q109 0 185 66.5t76 199.5zM178 891q29 0 48 -20q18 -17 18 -47q0 -29 -18 -48q-19 -18 -48 -18q-26 0 -45 20q-21 19 -21 46q0 24 19 47q25 20 47 20zM525 891q26 0 45 -20q20 -19 20 -43q0 -29 -20 -47q-21 -21 -45 -21q-27 0 -50 18
q-18 27 -18 50q0 22 18 43q19 20 50 20z" />
    <glyph glyph-name="divide" unicode="&#xf7;" horiz-adv-x="1125" 
d="M459 922v205h205v-205h-205zM1047 639h-969v168h969v-168zM459 320v205h205v-205h-205z" />
    <glyph glyph-name="oslash" unicode="&#xf8;" horiz-adv-x="699" 
d="M203 457v-338q0 -16 10 -47l273 450q-54 31 -136 31q-57 0 -102 -20q-45 -23 -45 -76zM77 -158l110 183q-68 35 -105 104q-40 66 -40 158q0 96 38 164q34 67 109 108q73 39 161 39q89 0 160 -41l86 142h38l-97 -156q53 -35 86 -102.5t33 -153.5q0 -94 -35 -162
q-37 -67 -107.5 -106t-163.5 -39q-77 0 -141 29l-96 -167h-36zM512 506l-274 -457q39 -28 112 -28q86 0 142 35q55 32 88 94q31 67 31 137q0 145 -99 219z" />
    <glyph glyph-name="ugrave" unicode="&#xf9;" horiz-adv-x="772" 
d="M625 1h-70q-28 0 -35 24l4 39q-73 -43 -114 -63q-43 -21 -96 -21q-88 0 -144 45q-58 43 -58 194v226l-1 98q4 22 10 29q4 4 23 4h71q23 0 29 -8l4 -29v-94v-318q0 -43 16 -69q15 -29 66 -29q104 0 194 82v334q0 65 -8 100q2 16 13 25q8 6 26 6h74q20 0 29 -6q6 -9 6 -43
l-4 -91l-4 -149l4 -184l4 -78q0 -24 -39 -24zM178 965h111l199 -266h-49z" />
    <glyph glyph-name="uacute" unicode="&#xfa;" horiz-adv-x="772" 
d="M625 1h-70q-28 0 -35 24l4 39q-73 -43 -114 -63q-43 -21 -96 -21q-88 0 -144 45q-58 43 -58 194v226l-1 98q4 22 10 29q4 4 23 4h71q23 0 29 -8l4 -29v-94v-318q0 -43 16 -69q15 -29 66 -29q104 0 194 82v334q0 65 -8 100q2 16 13 25q8 6 26 6h74q20 0 29 -6q6 -9 6 -43
l-4 -91l-4 -149l4 -184l4 -78q0 -24 -39 -24zM484 957h108l-262 -262h-45z" />
    <glyph glyph-name="ucircumflex" unicode="&#xfb;" horiz-adv-x="772" 
d="M625 1h-70q-28 0 -35 24l4 39q-73 -43 -114 -63q-43 -21 -96 -21q-88 0 -144 45q-58 43 -58 194v226l-1 98q4 22 10 29q4 4 23 4h71q23 0 29 -8l4 -29v-94v-318q0 -43 16 -69q15 -29 66 -29q104 0 194 82v334q0 65 -8 100q2 16 13 25q8 6 26 6h74q20 0 29 -6q6 -9 6 -43
l-4 -91l-4 -149l4 -184l4 -78q0 -24 -39 -24zM174 695h-37l193 266h109l203 -266h-43l-201 219h-15z" />
    <glyph glyph-name="udieresis" unicode="&#xfc;" horiz-adv-x="772" 
d="M625 1h-70q-28 0 -35 24l4 39q-73 -43 -114 -63q-43 -21 -96 -21q-88 0 -144 45q-58 43 -58 194v226l-1 98q4 22 10 29q4 4 23 4h71q23 0 29 -8l4 -29v-94v-318q0 -43 16 -69q15 -29 66 -29q104 0 194 82v334q0 65 -8 100q2 16 13 25q8 6 26 6h74q20 0 29 -6q6 -9 6 -43
l-4 -91l-4 -149l4 -184l4 -78q0 -24 -39 -24zM215 891q29 0 47 -18q19 -21 19 -49q0 -27 -19.5 -46.5t-46.5 -19.5q-26 0 -45 18q-19 19 -23 48q0 22 21 44.5t47 22.5zM561 891q27 0 48 -20q18 -21 18 -43q0 -29 -21 -47q-20 -21 -45 -21q-30 0 -49 21q-18 20 -18 47
q0 22 18 43q19 20 49 20z" />
    <glyph glyph-name="yacute" unicode="&#xfd;" horiz-adv-x="772" 
d="M215 576l31 -2l6 -13l-2 -20l-2 -43v-412q0 -65 86 -65q39 0 96 26q56 27 95 72v379q0 47 -9 63q2 15 39 15h70l31 -2l4 -17v-59v-613q0 -63 -35 -135q-37 -74 -96 -117q-60 -45 -129 -45q-23 0 -25 16l8 13l27 10l35 12q16 6 24 19q21 26 40 73q16 46 16 84v259
q-105 -94 -230 -94q-78 0 -129 47q-54 45 -54 127v344l-1 59q2 8 4 13l4 4l29 2h67zM488 961h109l-263 -262h-45z" />
    <glyph glyph-name="thorn" unicode="&#xfe;" horiz-adv-x="733" 
d="M134 129v1180l-3 80l-6 47q2 27 27 27h166q26 0 28 -27l-4 -47l-4 -80v-59h74q197 0 336 -43q137 -43 231 -123q92 -80 135 -176q41 -99 41 -218q0 -108 -43 -196t-125 -154q-84 -65 -211 -103q-129 -37 -288 -37l-150 9v-80l4 -72l4 -44q0 -13 -28 -13h-166
q-23 0 -27 13l4 24l4 41zM338 264l174 -16q201 0 330 66q131 59 201 161q28 50 46.5 107t18.5 108q0 97 -45 189t-129 166q-86 73 -211 114q-127 41 -284 41h-101v-936z" />
    <glyph glyph-name="ydieresis" unicode="&#xff;" horiz-adv-x="772" 
d="M215 576l31 -2l6 -13l-2 -20l-2 -43v-412q0 -65 86 -65q39 0 96 26q56 27 95 72v379q0 47 -9 63q2 15 39 15h70l31 -2l4 -17v-59v-613q0 -63 -35 -135q-37 -74 -96 -117q-60 -45 -129 -45q-23 0 -25 16l8 13l27 10l35 12q16 6 24 19q21 26 40 73q16 46 16 84v259
q-105 -94 -230 -94q-78 0 -129 47q-54 45 -54 127v344l-1 59q2 8 4 13l4 4l29 2h67zM215 891q29 0 47 -18q19 -21 19 -49q0 -27 -19.5 -46.5t-46.5 -19.5q-26 0 -45 18q-19 19 -23 48q0 22 21 44.5t47 22.5zM561 891q27 0 48 -20q18 -21 18 -43q0 -29 -21 -47
q-20 -21 -45 -21q-30 0 -49 21q-18 20 -18 47q0 22 18 43q19 20 49 20z" />
    <glyph glyph-name="dotoperator" unicode="&#x2219;" horiz-adv-x="404" 
d="M207 494q37 0 70 -29q30 -35 30 -78t-32.5 -73.5t-67.5 -30.5q-41 0 -76 31q-29 32 -29 73q0 43 31 76q29 31 74 31z" />
  </font>
</defs>
</svg>
