<?xml version="1.0" encoding="utf-8"?>
<!-- Generator: Adobe Illustrator 16.0.0, SVG Export Plug-In . SVG Version: 6.00 Build 0)  -->
<!DOCTYPE svg PUBLIC "-//W3C//DTD SVG 1.1//EN" "http://www.w3.org/Graphics/SVG/1.1/DTD/svg11.dtd">
<svg version="1.1" id="Layer_1" xmlns="http://www.w3.org/2000/svg" xmlns:xlink="http://www.w3.org/1999/xlink" x="0px" y="0px"
	 width="322px" height="235px" viewBox="0 0 322 235" enable-background="new 0 0 322 235" xml:space="preserve">
<g>
	<linearGradient id="SVGID_1_" gradientUnits="userSpaceOnUse" x1="9.2378" y1="141.8721" x2="312.6182" y2="141.8721">
		<stop  offset="0" style="stop-color:#5C5E5E"/>
		<stop  offset="1" style="stop-color:#51444C"/>
	</linearGradient>
	<polygon fill="url(#SVGID_1_)" points="159.615,229.489 312.618,141.044 162.227,54.254 9.238,142.688 	"/>
	<polygon fill="#3F403F" points="159.615,229.489 159.615,234.311 312.618,145.864 312.618,141.044 	"/>
	<polygon fill="#727373" points="9.238,142.688 9.238,147.509 159.615,234.311 159.615,229.489 	"/>
	<polygon fill="#808285" points="76.05,160.892 210.042,81.838 162.227,54.254 26.866,132.499 	"/>
	<polygon fill="#808285" points="216.274,196.724 312.617,141.044 236.116,96.896 139.27,152.487 	"/>
	<polygon fill="#FFFFFF" stroke="#00AEEF" stroke-width="0.25" stroke-miterlimit="10" points="212.402,83.21 76.397,163.44 
		25.278,133.931 24.029,134.652 76.404,164.887 213.645,83.927 	"/>
	<polygon fill="#FFFFFF" points="212.725,198.789 213.846,197.992 213.846,197.992 134.862,152.62 235.103,95.078 235.232,93.564 
		133.297,152.078 132.354,152.618 212.725,198.789 	"/>
	<g>
		<polygon fill="#957371" points="11.647,129.942 11.647,144.073 9.238,142.683 9.238,128.552 		"/>
		<polygon fill="#B7937F" points="11.647,129.942 11.647,144.073 162.034,57.272 162.034,43.142 		"/>
		<polygon fill="#F3CEC1" points="9.238,128.552 11.647,129.942 162.034,43.142 159.626,41.75 		"/>
		<polygon fill="#B7937F" points="11.656,129.942 11.656,144.073 14.065,142.683 14.065,128.552 		"/>
	</g>
	<g>
		<polygon fill="#957371" points="207.586,69.073 207.586,83.205 209.995,81.814 209.995,67.683 		"/>
		<polygon fill="#D1A68F" points="207.586,69.073 207.586,83.205 159.58,55.85 159.58,41.719 		"/>
		<polygon fill="#F3CEC1" points="209.995,67.683 207.586,69.073 159.58,41.719 161.987,40.327 		"/>
		<polygon fill="#D1A68F" points="207.577,69.074 207.577,83.205 205.168,81.814 205.168,67.683 		"/>
	</g>
	<g>
		<polygon fill="#568CC9" points="120.746,187.858 120.746,201.325 110.238,195.261 110.238,181.795 		"/>
		<path fill="#4571A3" d="M110.238,181.795v13.466l10.508,6.064v-13.467L110.238,181.795z M119.997,200.027l-9.01-5.198v-11.737
			l9.01,5.199V200.027z"/>
		<polygon fill="#4571A3" points="120.746,187.858 120.746,201.325 152.88,182.769 152.88,169.302 		"/>
		<polygon fill="#C5DBE6" points="125.657,188.337 125.657,191.778 133.87,187.035 133.87,183.594 		"/>
		<polygon fill="#C5DBE6" points="125.657,193.194 125.657,195.55 131.28,192.303 131.28,189.948 		"/>
		<polygon fill="#70A1D3" points="110.238,181.795 120.746,187.858 152.88,169.302 142.374,163.24 		"/>
		<path fill="#345881" d="M120.746,187.858v13.467l32.134-18.557v-13.467L120.746,187.858z M152.131,182.337l-30.636,17.69v-11.736
			l30.636-17.69V182.337z"/>
		<path fill="#568CC9" d="M142.374,163.24l-32.136,18.555l10.508,6.063l32.134-18.557L142.374,163.24z M111.736,181.795
			l30.637-17.69l9.008,5.198l-30.636,17.69L111.736,181.795z"/>
	</g>
	<g>
		<polygon fill="#568CC9" points="133.69,195.306 133.69,208.772 123.183,202.71 123.183,189.243 		"/>
		<path fill="#4571A3" d="M123.183,189.243v13.467l10.508,6.063v-13.467L123.183,189.243z M132.941,207.475l-9.01-5.198V190.54
			l9.01,5.198V207.475z"/>
		<polygon fill="#4571A3" points="133.69,195.306 133.69,208.772 165.825,190.216 165.825,176.75 		"/>
		<polygon fill="#C5DBE6" points="138.602,195.784 138.602,199.226 146.814,194.484 146.814,191.041 		"/>
		<polygon fill="#C5DBE6" points="138.602,200.642 138.602,202.997 144.224,199.75 144.224,197.396 		"/>
		<polygon fill="#70A1D3" points="123.183,189.243 133.69,195.306 165.825,176.75 155.318,170.688 		"/>
		<path fill="#345881" d="M133.69,195.306v13.467l32.135-18.557V176.75L133.69,195.306z M165.076,189.784l-30.636,17.69v-11.736
			l30.636-17.69V189.784z"/>
		<path fill="#568CC9" d="M155.318,170.688l-32.135,18.556l10.508,6.063l32.135-18.556L155.318,170.688z M124.682,189.242
			l30.636-17.69l9.008,5.198l-30.636,17.69L124.682,189.242z"/>
	</g>
	<g>
		<polygon fill="#568CC9" points="146.598,202.776 146.598,216.243 136.09,210.18 136.09,196.713 		"/>
		<path fill="#4571A3" d="M136.09,196.713v13.467l10.508,6.063v-13.467L136.09,196.713z M145.849,214.946l-9.01-5.199v-11.736
			l9.01,5.198V214.946z"/>
		<polygon fill="#4571A3" points="146.598,202.776 146.598,216.243 178.732,197.688 178.732,184.222 		"/>
		<polygon fill="#C5DBE6" points="151.509,203.255 151.509,206.696 159.722,201.953 159.722,198.513 		"/>
		<polygon fill="#C5DBE6" points="151.509,208.112 151.509,210.468 157.131,207.223 157.131,204.866 		"/>
		<polygon fill="#70A1D3" points="136.09,196.713 146.598,202.776 178.732,184.222 168.225,178.158 		"/>
		<path fill="#345881" d="M146.598,202.776v13.467l32.135-18.556v-13.466L146.598,202.776z M177.982,197.255l-30.636,17.69v-11.736
			l30.636-17.69V197.255z"/>
		<path fill="#568CC9" d="M168.225,178.158l-32.135,18.555l10.508,6.063l32.135-18.555L168.225,178.158z M137.589,196.713
			l30.636-17.69l9.009,5.199l-30.636,17.69L137.589,196.713z"/>
	</g>
	<linearGradient id="SVGID_2_" gradientUnits="userSpaceOnUse" x1="99.9688" y1="63.2573" x2="198.6016" y2="63.2573">
		<stop  offset="0" style="stop-color:#808285"/>
		<stop  offset="0.1359" style="stop-color:#808185"/>
		<stop  offset="0.309" style="stop-color:#848389"/>
		<stop  offset="0.5025" style="stop-color:#88858F"/>
		<stop  offset="0.7106" style="stop-color:#8A8294"/>
		<stop  offset="0.9282" style="stop-color:#847895"/>
		<stop  offset="1" style="stop-color:#817395"/>
	</linearGradient>
	<polygon fill="url(#SVGID_2_)" points="198.602,54.412 133.998,91.742 99.969,72.101 164.571,34.772 	"/>
	<polygon fill="#957371" points="125.41,59.734 127.616,61.019 164.568,39.637 164.568,37.081 	"/>
	<polygon fill="#F3CEC1" points="164.571,34.772 123.386,58.57 125.384,59.723 164.571,37.08 194.606,54.413 133.998,89.435 
		133.998,91.742 198.602,54.412 	"/>
	<g>
		<polygon fill="#D1D3D4" points="135.21,80.256 135.21,87.714 110.057,73.204 110.057,65.747 		"/>
		<polygon fill="#E6E7E8" points="135.21,80.256 135.21,87.714 148.387,80.1 148.387,72.641 		"/>
		<polygon fill="#46535A" points="146.65,75.708 147.102,75.447 147.102,80.841 146.65,81.102 		"/>
		<polygon fill="#46535A" points="145.95,76.113 146.4,75.853 146.4,81.246 145.95,81.507 		"/>
		<polygon fill="#46535A" points="145.249,76.517 145.7,76.255 145.7,81.648 145.249,81.909 		"/>
		<polygon fill="#46535A" points="144.547,76.927 144.999,76.666 144.999,82.059 144.547,82.32 		"/>
		<polygon fill="#46535A" points="143.846,77.328 144.297,77.067 144.297,82.461 143.846,82.722 		"/>
		<polygon fill="#46535A" points="143.146,77.733 143.596,77.473 143.596,82.866 143.146,83.126 		"/>
		<polygon fill="#46535A" points="142.444,78.138 142.895,77.877 142.895,83.271 142.444,83.531 		"/>
		<polygon fill="#46535A" points="141.743,78.544 142.194,78.283 142.194,83.677 141.743,83.937 		"/>
		<polygon fill="#46535A" points="141.042,78.952 141.493,78.691 141.493,84.084 141.042,84.345 		"/>
		<polygon fill="#46535A" points="140.34,79.353 140.792,79.092 140.792,84.485 140.34,84.746 		"/>
		<polygon fill="#F1F2F2" points="110.057,65.747 135.21,80.256 148.387,72.641 123.233,58.132 		"/>
		<polygon fill="#46535A" points="117.925,77.754 118.376,78.015 118.376,72.622 117.925,72.361 		"/>
		<polygon fill="#46535A" points="117.224,77.349 117.675,77.609 117.675,72.216 117.224,71.956 		"/>
		<polygon fill="#46535A" points="116.522,76.947 116.974,77.208 116.974,71.814 116.522,71.553 		"/>
		<polygon fill="#46535A" points="115.821,76.536 116.272,76.796 116.272,71.403 115.821,71.142 		"/>
		<polygon fill="#46535A" points="115.12,76.134 115.571,76.395 115.571,71.002 115.12,70.741 		"/>
		<polygon fill="#46535A" points="114.419,75.729 114.87,75.99 114.87,70.597 114.419,70.335 		"/>
		<polygon fill="#46535A" points="113.718,75.324 114.169,75.584 114.169,70.191 113.718,69.931 		"/>
		<polygon fill="#46535A" points="113.017,74.918 113.468,75.179 113.468,69.786 113.017,69.525 		"/>
		<polygon fill="#46535A" points="112.316,74.511 112.767,74.771 112.767,69.378 112.316,69.118 		"/>
		<polygon fill="#46535A" points="111.614,74.109 112.066,74.37 112.066,68.977 111.614,68.715 		"/>
		<polygon fill="#46535A" points="132.186,85.97 132.637,86.23 132.637,80.837 132.186,80.577 		"/>
		<polygon fill="#46535A" points="131.484,85.564 131.936,85.826 131.936,80.432 131.484,80.171 		"/>
		<polygon fill="#46535A" points="130.783,85.162 131.234,85.422 131.234,80.029 130.783,79.769 		"/>
		<polygon fill="#46535A" points="130.082,84.751 130.534,85.012 130.534,79.619 130.082,79.358 		"/>
		<polygon fill="#46535A" points="129.381,84.35 129.832,84.61 129.832,79.217 129.381,78.957 		"/>
		<polygon fill="#46535A" points="128.68,83.944 129.131,84.205 129.131,78.812 128.68,78.551 		"/>
		<polygon fill="#46535A" points="127.979,83.54 128.43,83.8 128.43,78.407 127.979,78.146 		"/>
		<polygon fill="#46535A" points="127.277,83.134 127.729,83.395 127.729,78.001 127.277,77.74 		"/>
		<polygon fill="#46535A" points="126.577,82.726 127.028,82.987 127.028,77.593 126.577,77.333 		"/>
		<polygon fill="#46535A" points="125.875,82.324 126.327,82.585 126.327,77.192 125.875,76.931 		"/>
		<g>
			<g>
				<ellipse fill="#414042" cx="135.071" cy="67.756" rx="1.945" ry="1.267"/>
				<ellipse fill="#E6E7E8" cx="135.071" cy="67.756" rx="0.693" ry="0.451"/>
				<path fill="#414042" d="M134.591,67.756c0-0.185,0.21-0.33,0.48-0.33s0.48,0.145,0.48,0.33c0,0.185-0.211,0.33-0.48,0.33
					S134.591,67.941,134.591,67.756z M134.688,67.756c0,0.125,0.175,0.231,0.382,0.231s0.382-0.106,0.382-0.231
					c0-0.126-0.175-0.232-0.382-0.232S134.688,67.63,134.688,67.756z"/>
				<path fill="#58595B" d="M135.071,66.621c-1.04,0-1.881,0.532-1.935,1.201c-0.002-0.022-0.01-0.043-0.01-0.065
					c0-0.7,0.871-1.267,1.945-1.267s1.945,0.567,1.945,1.267c0,0.022-0.008,0.043-0.01,0.065
					C136.952,67.153,136.111,66.621,135.071,66.621z"/>
				<path fill="#E6E7E8" d="M134.62,67.414c0,0-0.333-0.547-0.941-0.48c0,0-0.454,0.325-0.519,0.744c0,0,1.099-0.306,1.281-0.11
					C134.441,67.568,134.529,67.495,134.62,67.414z"/>
				<path fill="#E6E7E8" d="M135.614,67.477c0,0,0.576-0.315,0.576-0.665c0,0-0.395-0.288-1.007-0.233c0,0,0.337,0.486,0.205,0.777
					L135.614,67.477z"/>
				<path fill="#E6E7E8" d="M135.542,68.086c0,0,0.222,0.64,0.625,0.716c0,0,0.582-0.23,0.761-0.67c0,0-0.709,0.141-1.206-0.223
					L135.542,68.086z"/>
				<path fill="#E6E7E8" d="M134.539,68.044c0,0-0.673,0.37-0.745,0.668c0,0,0.412,0.26,0.989,0.296c0,0-0.307-0.574-0.03-0.851
					L134.539,68.044z"/>
			</g>
		</g>
	</g>
	<polygon fill="#B7937F" points="133.998,91.742 133.998,118.027 198.602,80.697 198.602,54.412 	"/>
	<polygon fill="#D1A68F" points="133.998,91.742 133.998,118.027 99.969,98.386 99.969,72.101 	"/>
	<polygon fill="#B7937F" points="100.141,84.174 100.141,137.512 133.994,118.029 133.994,64.692 	"/>
	<linearGradient id="SVGID_3_" gradientUnits="userSpaceOnUse" x1="66.1113" y1="64.6133" x2="133.9937" y2="64.6133">
		<stop  offset="0" style="stop-color:#808285"/>
		<stop  offset="0.1669" style="stop-color:#808185"/>
		<stop  offset="0.3318" style="stop-color:#838287"/>
		<stop  offset="0.4961" style="stop-color:#86848C"/>
		<stop  offset="0.6601" style="stop-color:#898492"/>
		<stop  offset="0.8237" style="stop-color:#897F95"/>
		<stop  offset="0.9852" style="stop-color:#827495"/>
		<stop  offset="1" style="stop-color:#817395"/>
	</linearGradient>
	<polygon fill="url(#SVGID_3_)" points="133.994,64.692 100.141,84.174 66.111,64.532 99.964,45.053 	"/>
	<polygon fill="#D1A68F" points="100.141,84.174 100.141,137.512 66.111,117.87 66.111,64.532 	"/>
	<polygon fill="#B7937F" points="187.242,146.93 187.242,168.471 270.464,120.423 270.464,98.882 	"/>
	<polygon fill="#D1A68F" points="270.464,98.882 187.242,146.93 153.214,127.288 236.434,79.243 	"/>
	<polygon fill="#D1A68F" points="187.242,146.93 187.242,168.471 153.214,148.829 153.214,127.288 	"/>
	<polygon fill="#512B31" points="270.464,98.882 187.242,146.93 169.91,126.451 253.13,78.406 	"/>
	<polygon fill="#442227" points="169.91,126.451 153.214,127.288 236.434,79.243 253.13,78.406 	"/>
	<polygon fill="#B7937F" points="223.214,167.69 223.214,189.231 306.436,141.184 306.436,119.643 	"/>
	<polygon fill="#D1A68F" points="306.436,119.643 223.214,167.69 189.185,148.049 272.405,100.003 	"/>
	<polygon fill="#D1A68F" points="223.214,167.69 223.214,189.231 189.185,169.59 189.185,148.049 	"/>
	<polygon fill="#957371" points="70.12,64.538 72.325,65.821 99.969,49.909 99.969,47.354 	"/>
	<polygon fill="#D1A68F" points="129.983,64.691 127.778,65.975 99.969,49.909 99.969,47.354 	"/>
	<polygon fill="#D1A68F" points="194.583,54.418 192.378,55.703 164.568,39.637 164.568,37.081 	"/>
	<g>
		<polygon fill="#F1F2F2" points="104.458,56.846 109.467,53.959 100.164,48.583 95.148,51.479 		"/>
		<polygon fill="#D1D3D4" points="95.148,51.479 95.148,54.173 104.458,59.519 104.458,56.846 		"/>
		<polygon fill="#E6E7E8" points="109.467,53.959 109.467,56.639 104.458,59.519 104.458,56.846 		"/>
		<g>
			<ellipse fill="#414042" cx="100.095" cy="51.355" rx="2.174" ry="1.416"/>
			<ellipse fill="#E6E7E8" cx="100.095" cy="51.355" rx="0.774" ry="0.504"/>
			<path fill="#414042" d="M99.559,51.355c0-0.206,0.235-0.369,0.537-0.369c0.301,0,0.537,0.163,0.537,0.369
				c0,0.208-0.235,0.369-0.537,0.369C99.794,51.724,99.559,51.563,99.559,51.355z M99.668,51.355c0,0.141,0.195,0.26,0.427,0.26
				s0.427-0.119,0.427-0.26c0-0.14-0.195-0.259-0.427-0.259S99.668,51.215,99.668,51.355z"/>
			<path fill="#58595B" d="M100.096,50.086c-1.163,0-2.103,0.595-2.163,1.343c-0.002-0.025-0.012-0.048-0.012-0.074
				c0-0.781,0.974-1.415,2.175-1.415s2.174,0.634,2.174,1.415c0,0.025-0.01,0.049-0.012,0.074
				C102.198,50.681,101.258,50.086,100.096,50.086z"/>
			<path fill="#E6E7E8" d="M99.591,50.973c0,0-0.372-0.611-1.051-0.536c0,0-0.508,0.364-0.581,0.831c0,0,1.229-0.341,1.433-0.122
				C99.393,51.146,99.49,51.063,99.591,50.973z"/>
			<path fill="#E6E7E8" d="M100.703,51.043c0,0,0.643-0.352,0.643-0.743c0,0-0.44-0.322-1.125-0.261c0,0,0.376,0.543,0.229,0.869
				L100.703,51.043z"/>
			<path fill="#E6E7E8" d="M100.622,51.724c0,0,0.248,0.716,0.698,0.801c0,0,0.65-0.257,0.851-0.749c0,0-0.793,0.157-1.349-0.25
				L100.622,51.724z"/>
			<path fill="#E6E7E8" d="M99.5,51.678c0,0-0.751,0.413-0.832,0.745c0,0,0.46,0.292,1.106,0.333c0,0-0.343-0.642-0.034-0.953
				L99.5,51.678z"/>
		</g>
		<g>
			<ellipse fill="#414042" cx="104.458" cy="53.876" rx="2.174" ry="1.416"/>
			<ellipse fill="#E6E7E8" cx="104.458" cy="53.876" rx="0.774" ry="0.504"/>
			<path fill="#414042" d="M103.921,53.876c0-0.207,0.236-0.369,0.537-0.369c0.301,0,0.536,0.162,0.536,0.369
				s-0.235,0.369-0.536,0.369C104.157,54.245,103.921,54.083,103.921,53.876z M104.031,53.876c0,0.141,0.195,0.259,0.427,0.259
				c0.231,0,0.426-0.119,0.426-0.259s-0.195-0.259-0.426-0.259C104.227,53.618,104.031,53.736,104.031,53.876z"/>
			<path fill="#58595B" d="M104.458,52.607c-1.162,0-2.103,0.595-2.163,1.342c-0.002-0.025-0.011-0.048-0.011-0.073
				c0-0.782,0.972-1.416,2.174-1.416c1.201,0,2.174,0.634,2.174,1.416c0,0.025-0.01,0.048-0.012,0.073
				C106.562,53.202,105.621,52.607,104.458,52.607z"/>
			<path fill="#E6E7E8" d="M103.954,53.494c0,0-0.372-0.611-1.05-0.536c0,0-0.508,0.363-0.58,0.831c0,0,1.228-0.341,1.433-0.124
				C103.756,53.666,103.853,53.584,103.954,53.494z"/>
			<path fill="#E6E7E8" d="M105.065,53.564c0,0,0.643-0.352,0.643-0.744c0,0-0.44-0.321-1.125-0.26c0,0,0.376,0.544,0.229,0.869
				L105.065,53.564z"/>
			<path fill="#E6E7E8" d="M104.985,54.245c0,0,0.247,0.716,0.698,0.801c0,0,0.65-0.256,0.851-0.749c0,0-0.793,0.158-1.349-0.249
				L104.985,54.245z"/>
			<path fill="#E6E7E8" d="M103.863,54.198c0,0-0.751,0.414-0.832,0.747c0,0,0.46,0.291,1.106,0.332c0,0-0.343-0.642-0.034-0.952
				L103.863,54.198z"/>
		</g>
	</g>
	<g>
		<polygon fill="#F1F2F2" points="95.399,62.073 100.408,59.186 91.104,53.81 86.088,56.706 		"/>
		<polygon fill="#D1D3D4" points="86.088,56.706 86.088,59.4 95.399,64.746 95.399,62.073 		"/>
		<polygon fill="#E6E7E8" points="100.408,59.186 100.408,61.866 95.399,64.746 95.399,62.073 		"/>
		<g>
			<ellipse fill="#414042" cx="91.036" cy="56.582" rx="2.174" ry="1.416"/>
			<ellipse fill="#E6E7E8" cx="91.036" cy="56.582" rx="0.774" ry="0.505"/>
			<path fill="#414042" d="M90.5,56.582c0-0.207,0.235-0.369,0.537-0.369c0.301,0,0.537,0.163,0.537,0.369
				c0,0.207-0.236,0.369-0.537,0.369C90.735,56.951,90.5,56.789,90.5,56.582z M90.609,56.582c0,0.141,0.195,0.259,0.427,0.259
				c0.231,0,0.427-0.119,0.427-0.259s-0.195-0.259-0.427-0.259C90.804,56.323,90.609,56.441,90.609,56.582z"/>
			<path fill="#58595B" d="M91.036,55.313c-1.162,0-2.103,0.596-2.163,1.342c-0.002-0.024-0.012-0.048-0.012-0.073
				c0-0.782,0.974-1.416,2.174-1.416c1.201,0,2.174,0.634,2.174,1.416c0,0.025-0.01,0.048-0.012,0.073
				C93.139,55.909,92.198,55.313,91.036,55.313z"/>
			<path fill="#E6E7E8" d="M90.532,56.199c0,0-0.372-0.611-1.051-0.536c0,0-0.508,0.363-0.581,0.831c0,0,1.229-0.341,1.433-0.123
				C90.333,56.372,90.431,56.289,90.532,56.199z"/>
			<path fill="#E6E7E8" d="M91.644,56.27c0,0,0.643-0.353,0.643-0.744c0,0-0.44-0.322-1.125-0.261c0,0,0.376,0.544,0.229,0.869
				L91.644,56.27z"/>
			<path fill="#E6E7E8" d="M91.563,56.951c0,0,0.248,0.715,0.699,0.801c0,0,0.65-0.257,0.851-0.75c0,0-0.793,0.157-1.349-0.25
				L91.563,56.951z"/>
			<path fill="#E6E7E8" d="M90.441,56.904c0,0-0.752,0.414-0.832,0.746c0,0,0.46,0.292,1.105,0.333c0,0-0.343-0.642-0.034-0.952
				L90.441,56.904z"/>
		</g>
		<g>
			<ellipse fill="#414042" cx="95.399" cy="59.103" rx="2.174" ry="1.416"/>
			<ellipse fill="#E6E7E8" cx="95.399" cy="59.103" rx="0.774" ry="0.504"/>
			<path fill="#414042" d="M94.862,59.103c0-0.207,0.236-0.369,0.537-0.369c0.301,0,0.536,0.163,0.536,0.369
				c0,0.207-0.235,0.368-0.536,0.368C95.098,59.471,94.862,59.31,94.862,59.103z M94.972,59.103c0,0.141,0.195,0.259,0.427,0.259
				s0.427-0.118,0.427-0.259c0-0.141-0.195-0.259-0.427-0.259S94.972,58.962,94.972,59.103z"/>
			<path fill="#58595B" d="M95.399,57.833c-1.163,0-2.103,0.595-2.163,1.342c-0.002-0.024-0.011-0.048-0.011-0.073
				c0-0.782,0.972-1.416,2.174-1.416c1.201,0,2.174,0.634,2.174,1.416c0,0.025-0.01,0.048-0.012,0.073
				C97.502,58.429,96.562,57.833,95.399,57.833z"/>
			<path fill="#E6E7E8" d="M94.895,58.721c0,0-0.372-0.612-1.051-0.536c0,0-0.508,0.364-0.58,0.831c0,0,1.228-0.341,1.433-0.123
				C94.696,58.893,94.794,58.811,94.895,58.721z"/>
			<path fill="#E6E7E8" d="M96.006,58.791c0,0,0.644-0.352,0.644-0.743c0,0-0.44-0.322-1.125-0.261c0,0,0.376,0.544,0.229,0.869
				L96.006,58.791z"/>
			<path fill="#E6E7E8" d="M95.926,59.471c0,0,0.247,0.716,0.698,0.802c0,0,0.65-0.256,0.851-0.749c0,0-0.793,0.157-1.349-0.25
				L95.926,59.471z"/>
			<path fill="#E6E7E8" d="M94.803,59.425c0,0-0.751,0.414-0.832,0.746c0,0,0.46,0.292,1.106,0.333c0,0-0.343-0.642-0.034-0.952
				L94.803,59.425z"/>
		</g>
	</g>
	<path fill="#E8E6D2" d="M205.036,73.534l-6.411-3.663c-0.007-0.004-0.016-0.005-0.023-0.009v2.696l3.171,1.812l-52.789,31.105
		c-0.171,0.1-0.247,0.319-0.234,0.584c0,0.007-0.004,0.014-0.004,0.022v7.383c0,0.373,0.525,0.676,1.172,0.676
		s1.172-0.303,1.172-0.676v-6.51l53.265-31.385c0.012-0.006,0.02-0.018,0.03-0.026c0.234-0.113,0.478-0.343,0.657-0.656
		C205.362,74.325,205.36,73.72,205.036,73.534z"/>
	<path opacity="0.2" fill="#414042" d="M205.138,73.621c-0.027,0.065-0.06,0.13-0.096,0.195c-0.18,0.314-0.423,0.543-0.657,0.657
		c-0.011,0.008-0.019,0.02-0.03,0.026l-53.265,31.384v1.073l53.265-31.384c0.012-0.007,0.02-0.019,0.03-0.026
		c0.234-0.113,0.478-0.343,0.657-0.657C205.324,74.395,205.354,73.867,205.138,73.621z"/>
	<path fill="#E8E6D2" d="M205.036,69.037l-6.411-3.663c-0.007-0.004-0.016-0.005-0.023-0.009v2.695l3.187,1.82l-56.928,33.575
		c-0.17,0.101-0.246,0.319-0.233,0.584c0,0.008-0.004,0.016-0.004,0.023v11.831c0,0.373,0.525,0.675,1.172,0.675
		c0.648,0,1.173-0.302,1.173-0.675v-10.959l57.459-33.888c0.032-0.019,0.06-0.046,0.086-0.073c0.192-0.127,0.382-0.327,0.529-0.583
		C205.362,69.828,205.36,69.222,205.036,69.037z"/>
	<path opacity="0.2" fill="#414042" d="M205.042,69.391c-0.147,0.256-0.337,0.456-0.529,0.583c-0.026,0.028-0.054,0.054-0.086,0.074
		l-57.459,33.887v0.991l57.459-33.888c0.032-0.02,0.06-0.046,0.086-0.073c0.192-0.127,0.382-0.327,0.529-0.584
		c0.271-0.477,0.309-0.981,0.117-1.238C205.126,69.226,205.089,69.309,205.042,69.391z"/>
	<g>
		<polygon fill="#568CC9" points="159.593,210.289 159.593,223.756 149.085,217.691 149.085,204.226 		"/>
		<path fill="#4571A3" d="M149.085,204.226v13.466l10.508,6.064v-13.467L149.085,204.226z M158.844,222.458l-9.009-5.199v-11.736
			l9.009,5.199V222.458z"/>
		<polygon fill="#4571A3" points="159.593,210.289 159.593,223.756 191.728,205.199 191.728,191.732 		"/>
		<polygon fill="#C5DBE6" points="164.505,210.767 164.505,214.209 172.718,209.467 172.718,206.024 		"/>
		<polygon fill="#C5DBE6" points="164.505,215.625 164.505,217.98 170.127,214.733 170.127,212.378 		"/>
		<polygon fill="#70A1D3" points="149.085,204.226 159.593,210.289 191.728,191.732 181.22,185.671 		"/>
		<path fill="#345881" d="M159.593,210.289v13.467l32.135-18.557v-13.467L159.593,210.289z M190.979,204.767l-30.636,17.691v-11.736
			l30.636-17.691V204.767z"/>
		<path fill="#568CC9" d="M181.22,185.671l-32.135,18.555l10.508,6.063l32.135-18.557L181.22,185.671z M150.583,204.225
			l30.636-17.689l9.01,5.198l-30.637,17.689L150.583,204.225z"/>
	</g>
	<g>
		<polygon fill="#188A57" points="47.867,148.905 47.867,162.373 58.375,156.31 58.375,142.843 		"/>
		<path fill="#00673F" d="M47.867,148.905v13.468l10.508-6.063v-13.467L47.867,148.905z M57.626,155.877l-9.009,5.198v-11.736
			l9.009-5.199V155.877z"/>
		<polygon fill="#2BB673" points="47.867,148.905 47.867,162.373 15.732,143.816 15.732,130.351 		"/>
		<polygon fill="#C5DBE6" points="42.956,149.385 42.956,152.826 34.743,148.084 34.743,144.643 		"/>
		<polygon fill="#C5DBE6" points="42.956,154.241 42.956,156.598 37.334,153.352 37.334,150.996 		"/>
		<polygon fill="#62C08F" points="58.375,142.843 47.867,148.905 15.732,130.351 26.24,124.287 		"/>
		<path fill="#188A57" d="M15.732,130.351v13.466l32.135,18.557v-13.468L15.732,130.351z M47.118,161.075l-30.636-17.69v-11.736
			l30.636,17.69V161.075z"/>
		<path fill="#2BB673" d="M26.24,124.287l-10.507,6.063l32.135,18.555l10.508-6.063L26.24,124.287z M17.231,130.351l9.009-5.198
			l30.637,17.69l-9.009,5.198L17.231,130.351z"/>
	</g>
	<polygon fill="#512B31" points="306.436,119.643 223.214,167.69 205.881,147.212 289.102,99.167 	"/>
	<polygon fill="#442227" points="205.881,147.212 189.185,148.049 272.405,100.003 289.102,99.167 	"/>
	<g>
		<linearGradient id="SVGID_4_" gradientUnits="userSpaceOnUse" x1="40.8496" y1="143.9004" x2="76.7695" y2="134.2297">
			<stop  offset="0" style="stop-color:#B0B867"/>
			<stop  offset="0.2795" style="stop-color:#AAB567"/>
			<stop  offset="0.5781" style="stop-color:#9AAE69"/>
			<stop  offset="0.8846" style="stop-color:#82A56C"/>
			<stop  offset="1" style="stop-color:#77A16D"/>
		</linearGradient>
		<polygon fill="url(#SVGID_4_)" points="59.065,121.857 40.753,132.403 74.584,151.957 92.935,141.385 		"/>
		<polygon fill="#FBC58D" points="59.06,121.857 59.06,122.686 92.215,141.8 92.935,141.387 		"/>
		<polygon fill="#BD7B5C" points="59.06,121.857 59.06,122.686 41.472,132.818 40.753,132.403 		"/>
	</g>
	<path fill="#F3CEC1" d="M99.964,45.053L66.111,64.532l34.029,19.642l33.853-19.481L99.964,45.053z M70.112,64.535l29.85-17.177
		l30.031,17.332l-29.852,17.178L70.112,64.535z"/>
	<path opacity="0.2" fill="#414042" d="M146.967,103.936c0,0-0.817,0.197-0.817,1.738v10.864c0,0,0.76-0.111,0.817-0.644V103.936z"
		/>
	<path opacity="0.2" fill="#414042" d="M151.09,105.886c0,0-0.816,0.198-0.816,1.738v6.487c0,0,0.758-0.111,0.816-0.644V105.886z"/>
	<polygon fill="#58595B" points="187.549,56.069 166.032,68.502 154.698,61.961 176.214,49.528 	"/>
	<g>
		<polygon fill="#414042" points="176.895,50.933 176.324,51.263 185.151,56.357 185.723,56.027 		"/>
		<polygon fill="#414042" points="175.267,51.875 184.095,56.97 184.666,56.64 175.837,51.545 		"/>
		<polygon fill="#414042" points="174.209,52.487 183.037,57.582 183.608,57.252 174.78,52.157 		"/>
		<polygon fill="#414042" points="173.151,53.099 181.979,58.194 182.551,57.863 173.723,52.769 		"/>
		<polygon fill="#414042" points="172.095,53.711 180.922,58.806 181.493,58.476 172.665,53.381 		"/>
		<polygon fill="#414042" points="171.037,54.324 179.864,59.418 180.437,59.088 171.607,53.993 		"/>
		<polygon fill="#414042" points="169.979,54.935 178.807,60.03 179.379,59.7 170.551,54.605 		"/>
		<polygon fill="#414042" points="168.922,55.547 177.75,60.642 178.321,60.312 169.493,55.217 		"/>
		<polygon fill="#414042" points="167.865,56.16 176.692,61.254 177.264,60.924 168.436,55.829 		"/>
		<polygon fill="#414042" points="166.808,56.771 175.635,61.866 176.207,61.536 167.378,56.441 		"/>
		<polygon fill="#414042" points="165.75,57.384 174.577,62.479 175.149,62.148 166.321,57.054 		"/>
		<polygon fill="#414042" points="164.693,57.996 173.521,63.091 174.092,62.761 165.264,57.666 		"/>
		<polygon fill="#414042" points="163.636,58.608 172.463,63.703 173.035,63.373 164.206,58.278 		"/>
		<polygon fill="#414042" points="162.578,59.22 171.405,64.314 171.978,63.984 163.149,58.89 		"/>
		<polygon fill="#414042" points="161.521,59.833 170.348,64.927 170.92,64.597 162.092,59.502 		"/>
		<polygon fill="#414042" points="160.463,60.444 169.291,65.539 169.862,65.208 161.034,60.114 		"/>
		<polygon fill="#414042" points="159.406,61.056 168.233,66.151 168.806,65.821 159.977,60.726 		"/>
		<polygon fill="#414042" points="158.348,61.668 167.176,66.763 167.747,66.433 158.919,61.338 		"/>
		<polygon fill="#414042" points="157.291,62.28 166.119,67.375 166.689,67.045 157.862,61.95 		"/>
	</g>
	<g>
		<polygon opacity="0.4" fill="#414042" points="192.552,143.801 175.219,123.322 158.6,124.155 156.358,125.449 173.054,124.612 
			190.388,145.091 192.576,143.826 		"/>
		<polygon opacity="0.4" fill="#414042" points="196.945,141.271 179.612,120.795 162.993,121.627 160.752,122.921 177.447,122.084 
			194.781,142.563 196.97,141.299 		"/>
		<polygon opacity="0.4" fill="#414042" points="201.339,138.744 184.006,118.266 167.387,119.099 165.146,120.394 181.841,119.557 
			199.174,140.033 201.363,138.77 		"/>
		<polygon opacity="0.4" fill="#414042" points="205.731,136.215 188.398,115.737 171.78,116.57 169.539,117.864 186.234,117.027 
			203.567,137.506 205.757,136.242 		"/>
		<polygon opacity="0.4" fill="#414042" points="210.125,133.688 192.792,113.209 176.174,114.042 173.933,115.336 190.628,114.499 
			207.961,134.977 210.149,133.713 		"/>
		<polygon opacity="0.4" fill="#414042" points="214.519,131.158 197.186,110.68 180.567,111.514 178.326,112.807 195.021,111.97 
			212.355,132.449 214.543,131.185 		"/>
		<polygon opacity="0.4" fill="#414042" points="218.912,128.631 201.579,108.152 184.961,108.985 182.719,110.279 199.414,109.442 
			216.747,129.92 218.937,128.657 		"/>
		<polygon opacity="0.4" fill="#414042" points="223.306,126.102 205.973,105.624 189.354,106.457 187.112,107.75 203.808,106.914 
			221.141,127.393 223.33,126.128 		"/>
		<polygon opacity="0.4" fill="#414042" points="227.699,123.573 210.366,103.096 193.747,103.928 191.506,105.223 208.201,104.386 
			225.534,124.863 227.724,123.601 		"/>
		<polygon opacity="0.4" fill="#414042" points="232.093,121.045 214.76,100.567 198.141,101.4 195.899,102.694 212.595,101.857 
			229.928,122.335 232.117,121.071 		"/>
		<polygon opacity="0.4" fill="#414042" points="236.486,118.517 219.152,98.039 202.534,98.872 200.293,100.166 216.988,99.329 
			234.321,119.808 236.511,118.544 		"/>
		<polygon opacity="0.4" fill="#414042" points="240.879,115.988 223.546,95.511 206.928,96.344 204.687,97.638 221.382,96.801 
			238.715,117.278 240.903,116.015 		"/>
		<polygon opacity="0.4" fill="#414042" points="245.272,113.46 227.939,92.982 211.321,93.815 209.08,95.109 225.775,94.272 
			243.108,114.75 245.297,113.487 		"/>
		<polygon opacity="0.4" fill="#414042" points="249.666,110.932 232.333,90.454 215.715,91.287 213.473,92.581 230.168,91.744 
			247.501,112.222 249.69,110.958 		"/>
		<polygon opacity="0.4" fill="#414042" points="254.06,108.403 236.727,87.925 220.108,88.759 217.866,90.052 234.562,89.215 
			251.895,109.693 254.084,108.43 		"/>
		<polygon opacity="0.4" fill="#414042" points="258.453,105.875 241.12,85.397 224.501,86.23 222.26,87.524 238.955,86.687 
			256.288,107.165 258.478,105.901 		"/>
		<polygon opacity="0.4" fill="#414042" points="262.847,103.347 245.514,82.869 228.895,83.702 226.653,84.996 243.349,84.159 
			260.682,104.637 262.871,103.373 		"/>
		<polygon opacity="0.4" fill="#414042" points="267.24,100.819 249.907,80.34 233.288,81.173 231.047,82.467 247.742,81.63 
			265.075,102.109 267.265,100.845 		"/>
	</g>
	<g>
		<polygon opacity="0.4" fill="#414042" points="228.637,164.512 211.304,144.033 194.686,144.867 192.444,146.16 209.141,145.323 
			226.474,165.802 228.661,164.538 		"/>
		<polygon opacity="0.4" fill="#414042" points="233.03,161.983 215.697,141.505 199.079,142.338 196.838,143.632 213.534,142.795 
			230.867,163.273 233.055,162.009 		"/>
		<polygon opacity="0.4" fill="#414042" points="237.424,159.455 220.091,138.978 203.473,139.81 201.23,141.104 217.927,140.267 
			235.26,160.745 237.448,159.481 		"/>
		<polygon opacity="0.4" fill="#414042" points="241.817,156.927 224.484,136.448 207.866,137.281 205.624,138.576 222.319,137.739 
			239.653,158.217 241.842,156.952 		"/>
		<polygon opacity="0.4" fill="#414042" points="246.211,154.397 228.878,133.921 212.259,134.753 210.018,136.047 226.713,135.21 
			244.047,155.688 246.235,154.425 		"/>
		<polygon opacity="0.4" fill="#414042" points="250.604,151.87 233.271,131.392 216.652,132.226 214.411,133.52 231.106,132.682 
			248.44,153.159 250.629,151.896 		"/>
		<polygon opacity="0.4" fill="#414042" points="254.998,149.341 237.665,128.863 221.046,129.696 218.805,130.99 235.501,130.153 
			252.834,150.632 255.022,149.368 		"/>
		<polygon opacity="0.4" fill="#414042" points="259.391,146.813 242.058,126.335 225.439,127.169 223.198,128.462 239.894,127.625 
			257.228,148.103 259.416,146.84 		"/>
		<polygon opacity="0.4" fill="#414042" points="263.784,144.284 246.451,123.807 229.833,124.64 227.592,125.934 244.287,125.097 
			261.621,145.575 263.809,144.311 		"/>
		<polygon opacity="0.4" fill="#414042" points="268.178,141.757 250.845,121.278 234.227,122.111 231.985,123.405 248.68,122.568 
			266.015,143.046 268.203,141.783 		"/>
		<polygon opacity="0.4" fill="#414042" points="272.571,139.228 255.238,118.75 238.62,119.583 236.378,120.877 253.073,120.04 
			270.407,140.519 272.596,139.254 		"/>
		<polygon opacity="0.4" fill="#414042" points="276.965,136.699 259.632,116.222 243.013,117.055 240.771,118.349 257.467,117.512 
			274.801,137.99 276.989,136.727 		"/>
		<polygon opacity="0.4" fill="#414042" points="281.358,134.172 264.025,113.693 247.406,114.526 245.165,115.82 261.86,114.983 
			279.193,135.461 281.383,134.197 		"/>
		<polygon opacity="0.4" fill="#414042" points="285.752,131.643 268.419,111.165 251.8,111.998 249.559,113.292 266.254,112.455 
			283.588,132.934 285.776,131.67 		"/>
		<polygon opacity="0.4" fill="#414042" points="290.145,129.115 272.812,108.637 256.193,109.47 253.951,110.764 270.648,109.927 
			287.981,130.404 290.17,129.141 		"/>
		<polygon opacity="0.4" fill="#414042" points="294.538,126.586 277.205,106.108 260.587,106.941 258.346,108.235 275.042,107.398 
			292.375,127.877 294.563,126.612 		"/>
		<polygon opacity="0.4" fill="#414042" points="298.932,124.059 281.599,103.58 264.98,104.413 262.737,105.707 279.436,104.87 
			296.769,125.348 298.956,124.084 		"/>
		<polygon opacity="0.4" fill="#414042" points="303.325,121.529 285.992,101.051 269.374,101.884 267.132,103.178 283.827,102.341 
			301.161,122.819 303.35,121.556 		"/>
	</g>
	<g>
		<polygon fill="#715253" points="180.195,149.547 180.195,164.418 159.18,152.288 159.18,137.417 		"/>
		<polygon fill="#989DA0" points="180.195,162.757 180.195,164.418 159.18,152.291 160.65,151.439 		"/>
		<polygon fill="#957371" points="159.18,137.417 159.18,152.285 160.648,151.438 160.648,138.264 		"/>
		<polygon fill="#273A44" points="180.195,149.546 180.195,152.012 159.952,140.332 159.952,137.865 		"/>
		<polygon fill="#6F7476" points="160.648,149.7 168.402,145.207 180.195,152.012 180.195,162.757 160.648,151.438 		"/>
	</g>
	<g>
		<polygon fill="#893C41" points="180.354,142.299 180.354,148.643 180.661,148.466 180.661,142.122 		"/>
		<polygon fill="#FDD6BE" points="180.354,142.299 180.354,148.643 159.026,136.327 159.026,129.982 		"/>
		<polygon fill="#C5737B" points="180.661,142.122 180.354,142.299 159.026,129.982 159.333,129.805 		"/>
		<path fill="#B7535A" d="M159.026,129.982v6.345l21.327,12.315v-6.344L159.026,129.982z M179.653,147.43l-19.928-11.505v-4.729
			l19.928,11.505V147.43z"/>
	</g>
	<g>
		<polygon fill="#893C41" points="82.724,113.107 82.724,127.811 83.031,127.634 83.031,112.93 		"/>
		<polygon fill="#FDD6BE" points="82.724,113.107 82.724,127.811 68.165,119.416 68.165,104.712 		"/>
		<polygon fill="#C5737B" points="83.031,112.93 82.724,113.107 68.165,104.712 68.472,104.535 		"/>
		<path fill="#B7535A" d="M68.165,104.712v14.704l14.559,8.395v-14.704L68.165,104.712z M82.024,126.597l-13.16-7.584v-13.087
			l13.16,7.584V126.597z"/>
	</g>
	<g>
		<polygon fill="#715253" points="216.233,170.343 216.233,185.215 195.218,173.085 195.218,158.213 		"/>
		<polygon fill="#989DA0" points="216.233,183.554 216.233,185.215 195.218,173.088 196.688,172.236 		"/>
		<polygon fill="#957371" points="195.218,158.213 195.218,173.082 196.687,172.234 196.687,159.061 		"/>
		<polygon fill="#273A44" points="216.233,170.342 216.233,172.808 195.99,161.129 195.99,158.662 		"/>
		<polygon fill="#6F7476" points="196.687,170.497 204.44,166.004 216.233,172.808 216.233,183.554 196.687,172.234 		"/>
	</g>
	<g>
		<polygon fill="#893C41" points="216.391,163.096 216.391,169.439 216.698,169.263 216.698,162.919 		"/>
		<polygon fill="#FDD6BE" points="216.391,163.096 216.391,169.439 195.064,157.124 195.064,150.779 		"/>
		<polygon fill="#C5737B" points="216.698,162.919 216.391,163.096 195.064,150.779 195.371,150.602 		"/>
		<path fill="#B7535A" d="M195.064,150.779v6.345l21.326,12.315v-6.344L195.064,150.779z M215.691,168.226l-19.929-11.504v-4.729
			l19.929,11.505V168.226z"/>
	</g>
	<g>
		<polygon fill="#50BBE3" points="100.141,91.55 100.141,99.059 71.611,82.602 71.611,75.094 		"/>
		<polygon fill="#957371" points="71.611,75.098 71.611,82.605 72.452,82.12 72.452,75.581 		"/>
		<polygon fill="#F3CEC1" points="71.611,82.6 100.141,99.055 100.141,98.071 72.452,82.114 		"/>
	</g>
	<g>
		<polygon fill="#50BBE3" points="100.141,91.55 100.141,99.059 128.67,82.602 128.67,75.094 		"/>
		<polygon fill="#957371" points="128.67,75.098 128.67,82.605 127.829,82.12 127.829,75.581 		"/>
		<polygon fill="#F3CEC1" points="128.67,82.6 100.141,99.055 100.141,98.071 127.829,82.114 		"/>
	</g>
	<g>
		<polygon fill="#50BBE3" points="100.141,106.7 100.141,114.208 71.611,97.751 71.611,90.244 		"/>
		<polygon fill="#957371" points="71.611,90.247 71.611,97.754 72.452,97.269 72.452,90.729 		"/>
		<polygon fill="#F3CEC1" points="71.611,97.75 100.141,114.204 100.141,113.22 72.452,97.263 		"/>
	</g>
	<g>
		<polygon fill="#50BBE3" points="100.141,106.7 100.141,114.208 128.67,97.751 128.67,90.244 		"/>
		<polygon fill="#957371" points="128.67,90.247 128.67,97.754 127.829,97.269 127.829,90.729 		"/>
		<polygon fill="#F3CEC1" points="128.67,97.75 100.141,114.204 100.141,113.22 127.829,97.263 		"/>
	</g>
	<g>
		<polygon fill="#50BBE3" points="104.969,118.217 104.969,125.725 128.67,112.057 128.67,104.549 		"/>
		<polygon fill="#957371" points="128.67,104.552 128.67,112.06 127.829,111.575 127.829,105.035 		"/>
		<polygon fill="#F3CEC1" points="128.67,112.055 104.969,125.722 104.969,124.737 127.829,111.569 		"/>
	</g>
	<g>
		<path fill="#426F82" d="M169.613,48.741c-0.65-0.779-2.301-1.319-4.227-1.294c-1.927,0.025-3.563,0.606-4.194,1.402l-0.277,0.003
			v0.733c0.013,1.149,2.04,2.055,4.524,2.024c2.484-0.032,4.485-0.989,4.471-2.138v-0.733L169.613,48.741z"/>
		
			<ellipse transform="matrix(0.0127 0.9999 -0.9999 0.0127 212.108 -117.2236)" fill="#0C4759" cx="165.413" cy="48.794" rx="2.081" ry="4.498"/>
		<path fill="#D2D8D4" d="M168.646,2.528v45.847c0,0.82-1.448,1.485-3.233,1.485c-1.786,0-3.234-0.665-3.234-1.485V2.528H168.646z"
			/>
		<ellipse fill="#E6E7E8" cx="165.413" cy="2.528" rx="3.234" ry="1.484"/>
		<ellipse fill="#808285" cx="165.412" cy="2.528" rx="2.39" ry="0.915"/>
		<path fill="#B7535A" d="M165.413,15.729c-1.519,0-2.804-0.459-3.234-1.091v-4.175c0,0.82,1.448,1.485,3.234,1.485
			c1.785,0,3.233-0.665,3.233-1.485v4.175C168.217,15.27,166.932,15.729,165.413,15.729z"/>
		<path fill="#B7535A" d="M165.413,22.89c-1.519,0-2.804-0.459-3.234-1.091v-4.175c0,0.821,1.448,1.485,3.234,1.485
			c1.785,0,3.233-0.664,3.233-1.485v4.175C168.217,22.431,166.932,22.89,165.413,22.89z"/>
		<path fill="#B7535A" d="M165.413,48.421c-1.519,0-2.804-0.459-3.234-1.091v-4.175c0,0.819,1.448,1.484,3.234,1.484
			c1.785,0,3.233-0.665,3.233-1.484v4.175C168.217,47.962,166.932,48.421,165.413,48.421z"/>
	</g>
	<g>
		<path fill="#426F82" d="M156.82,55.671c-0.651-0.779-2.301-1.319-4.226-1.294c-1.928,0.024-3.564,0.606-4.195,1.402l-0.278,0.003
			v0.733c0.015,1.149,2.041,2.055,4.525,2.023c2.484-0.031,4.485-0.989,4.47-2.139v-0.732L156.82,55.671z"/>
		<path fill="#0C4759" d="M152.646,57.806c-2.484,0.032-4.51-0.875-4.525-2.023c-0.015-1.149,1.987-2.107,4.473-2.139
			c2.482-0.032,4.509,0.874,4.522,2.024C157.131,56.816,155.13,57.774,152.646,57.806z"/>
		<path fill="#D2D8D4" d="M155.854,9.458v45.847c0,0.82-1.448,1.485-3.234,1.485s-3.234-0.665-3.234-1.485V9.458H155.854z"/>
		<ellipse fill="#E6E7E8" cx="152.62" cy="9.458" rx="3.234" ry="1.484"/>
		<ellipse fill="#808285" cx="152.619" cy="9.458" rx="2.39" ry="0.916"/>
		<path fill="#B7535A" d="M152.62,22.659c-1.519,0-2.804-0.459-3.234-1.091v-4.175c0,0.82,1.448,1.485,3.234,1.485
			s3.234-0.665,3.234-1.485v4.175C155.424,22.199,154.139,22.659,152.62,22.659z"/>
		<path fill="#B7535A" d="M152.62,29.819c-1.519,0-2.804-0.458-3.234-1.09v-4.175c0,0.82,1.448,1.485,3.234,1.485
			s3.234-0.665,3.234-1.485v4.175C155.424,29.361,154.139,29.819,152.62,29.819z"/>
		<path fill="#B7535A" d="M152.62,55.351c-1.519,0-2.804-0.459-3.234-1.091v-4.175c0,0.82,1.448,1.484,3.234,1.484
			s3.234-0.665,3.234-1.484v4.175C155.424,54.892,154.139,55.351,152.62,55.351z"/>
	</g>
	<g>
		<path fill="#426F82" d="M144.027,62.601c-0.65-0.78-2.301-1.32-4.227-1.294c-1.927,0.024-3.563,0.606-4.194,1.402l-0.278,0.003
			v0.733c0.013,1.149,2.04,2.055,4.524,2.023c2.485-0.032,4.485-0.99,4.471-2.139v-0.733L144.027,62.601z"/>
		
			<ellipse transform="matrix(0.0126 0.9999 -0.9999 0.0126 200.7216 -77.9477)" fill="#0C4759" cx="139.827" cy="62.655" rx="2.081" ry="4.498"/>
		<path fill="#D2D8D4" d="M143.061,16.388v45.846c0,0.821-1.448,1.486-3.234,1.486s-3.234-0.665-3.234-1.486V16.388H143.061z"/>
		<ellipse fill="#E6E7E8" cx="139.826" cy="16.388" rx="3.234" ry="1.485"/>
		<ellipse fill="#808285" cx="139.827" cy="16.388" rx="2.39" ry="0.916"/>
		<path fill="#B7535A" d="M139.826,29.588c-1.518,0-2.804-0.459-3.234-1.091v-4.175c0,0.82,1.448,1.485,3.234,1.485
			s3.234-0.665,3.234-1.485v4.175C142.63,29.129,141.345,29.588,139.826,29.588z"/>
		<path fill="#B7535A" d="M139.826,36.75c-1.518,0-2.804-0.459-3.234-1.091v-4.175c0,0.82,1.448,1.485,3.234,1.485
			s3.234-0.665,3.234-1.485v4.175C142.63,36.292,141.345,36.75,139.826,36.75z"/>
		<path fill="#B7535A" d="M139.826,62.281c-1.518,0-2.804-0.459-3.234-1.091v-4.175c0,0.82,1.448,1.485,3.234,1.485
			s3.234-0.665,3.234-1.485v4.175C142.63,61.822,141.345,62.281,139.826,62.281z"/>
	</g>
	<g>
		<polygon fill="#384F5A" points="97.453,135.179 97.453,121.227 85.674,114.451 85.674,128.384 		"/>
		<polygon fill="#B7937F" points="84.998,114.063 85.674,114.451 85.674,128.384 84.998,128.77 		"/>
		<polygon fill="#B7937F" points="85.674,128.384 85,128.769 97.453,135.959 97.453,135.179 		"/>
		<g>
			<polygon fill="#9CBBE2" points="90.644,129.729 90.644,119.644 89.246,118.845 89.246,128.92 			"/>
			<polygon fill="#D1D3D4" points="89.246,118.845 89.596,119.045 89.596,128.725 89.246,128.92 			"/>
			<polygon fill="#BCBEC0" points="89.596,128.725 90.644,129.316 90.644,129.729 89.246,128.92 			"/>
		</g>
		<g>
			<polygon fill="#9CBBE2" points="93.712,131.42 93.712,121.334 92.314,120.536 92.314,130.611 			"/>
			<polygon fill="#D1D3D4" points="92.314,120.536 92.665,120.736 92.665,130.415 92.314,130.611 			"/>
			<polygon fill="#BCBEC0" points="92.665,130.415 93.712,131.006 93.712,131.42 92.314,130.611 			"/>
		</g>
		<polygon fill="#22353E" points="91.425,117.76 91.425,131.699 91.635,131.82 91.635,131.759 91.635,117.88 		"/>
	</g>
	<g>
		<g>
			<polygon fill="#61313F" points="159.932,88.659 159.932,82.491 161.876,81.379 161.876,87.534 			"/>
			<polygon fill="#957371" points="161.876,81.379 161.388,81.658 161.388,87.26 161.876,87.534 			"/>
			<polygon fill="#957371" points="161.388,87.26 159.932,88.083 159.932,88.659 161.876,87.534 			"/>
		</g>
		<g>
			<polygon fill="#61313F" points="154.905,91.563 154.905,85.394 156.85,84.283 156.85,90.437 			"/>
			<polygon fill="#957371" points="156.85,84.283 156.362,84.562 156.362,90.165 156.85,90.437 			"/>
			<polygon fill="#957371" points="156.362,90.165 154.905,90.987 154.905,91.563 156.85,90.437 			"/>
		</g>
		<g>
			<polygon fill="#61313F" points="149.879,94.471 149.879,88.302 151.824,87.192 151.824,93.345 			"/>
			<polygon fill="#957371" points="151.824,87.192 151.336,87.471 151.336,93.072 151.824,93.345 			"/>
			<polygon fill="#957371" points="151.336,93.072 149.879,93.895 149.879,94.471 151.824,93.345 			"/>
		</g>
		<g>
			<polygon fill="#61313F" points="144.853,97.372 144.853,91.203 146.797,90.092 146.797,96.246 			"/>
			<polygon fill="#957371" points="146.797,90.092 146.31,90.371 146.31,95.974 146.797,96.246 			"/>
			<polygon fill="#957371" points="146.31,95.974 144.853,96.796 144.853,97.372 146.797,96.246 			"/>
		</g>
		<g>
			<polygon fill="#61313F" points="139.826,100.281 139.826,94.113 141.771,93.002 141.771,99.156 			"/>
			<polygon fill="#957371" points="141.771,93.002 141.284,93.281 141.284,98.883 141.771,99.156 			"/>
			<polygon fill="#957371" points="141.284,98.883 139.826,99.706 139.826,100.281 141.771,99.156 			"/>
		</g>
	</g>
	<g>
		<g>
			<polygon fill="#61313F" points="191.229,70.579 191.229,64.411 193.174,63.299 193.174,69.453 			"/>
			<polygon fill="#957371" points="193.174,63.299 192.686,63.578 192.686,69.18 193.174,69.453 			"/>
			<polygon fill="#957371" points="192.686,69.18 191.229,70.003 191.229,70.579 193.174,69.453 			"/>
		</g>
		<g>
			<polygon fill="#61313F" points="186.203,73.481 186.203,67.314 188.147,66.203 188.147,72.357 			"/>
			<polygon fill="#957371" points="188.147,66.203 187.66,66.481 187.66,72.084 188.147,72.357 			"/>
			<polygon fill="#957371" points="187.66,72.084 186.203,72.907 186.203,73.481 188.147,72.357 			"/>
		</g>
		<g>
			<polygon fill="#61313F" points="181.176,76.39 181.176,70.222 183.122,69.111 183.122,75.265 			"/>
			<polygon fill="#957371" points="183.122,69.111 182.634,69.39 182.634,74.993 183.122,75.265 			"/>
			<polygon fill="#957371" points="182.634,74.993 181.176,75.815 181.176,76.39 183.122,75.265 			"/>
		</g>
		<g>
			<polygon fill="#61313F" points="176.15,79.292 176.15,73.124 178.095,72.012 178.095,78.167 			"/>
			<polygon fill="#957371" points="178.095,72.012 177.607,72.291 177.607,77.894 178.095,78.167 			"/>
			<polygon fill="#957371" points="177.607,77.894 176.15,78.716 176.15,79.292 178.095,78.167 			"/>
		</g>
		<g>
			<polygon fill="#61313F" points="171.123,82.201 171.123,76.034 173.068,74.922 173.068,81.075 			"/>
			<polygon fill="#957371" points="173.068,74.922 172.581,75.201 172.581,80.803 173.068,81.075 			"/>
			<polygon fill="#957371" points="172.581,80.803 171.123,81.626 171.123,82.201 173.068,81.075 			"/>
		</g>
	</g>
	<g>
		<polygon fill="#61313F" points="230.825,172.146 230.825,168.134 233.92,166.366 233.92,170.355 		"/>
		<polygon fill="#957371" points="233.92,166.366 233.145,166.81 233.145,169.922 233.92,170.355 		"/>
		<polygon fill="#957371" points="233.145,169.922 230.825,171.23 230.825,172.146 233.92,170.355 		"/>
	</g>
	<g>
		<polygon fill="#61313F" points="238.982,167.465 238.982,163.453 242.077,161.686 242.077,165.674 		"/>
		<polygon fill="#957371" points="242.077,161.686 241.302,162.129 241.302,165.24 242.077,165.674 		"/>
		<polygon fill="#957371" points="241.302,165.24 238.982,166.55 238.982,167.465 242.077,165.674 		"/>
	</g>
	<g>
		<polygon fill="#61313F" points="247.141,162.741 247.141,158.729 250.234,156.96 250.234,160.95 		"/>
		<polygon fill="#957371" points="250.234,156.96 249.46,157.404 249.46,160.516 250.234,160.95 		"/>
		<polygon fill="#957371" points="249.46,160.516 247.141,161.825 247.141,162.741 250.234,160.95 		"/>
	</g>
	<g>
		<polygon fill="#61313F" points="255.298,158.037 255.298,154.025 258.393,152.258 258.393,156.246 		"/>
		<polygon fill="#957371" points="258.393,152.258 257.617,152.7 257.617,155.813 258.393,156.246 		"/>
		<polygon fill="#957371" points="257.617,155.813 255.298,157.122 255.298,158.037 258.393,156.246 		"/>
	</g>
	<g>
		<polygon fill="#61313F" points="263.455,153.324 263.455,149.313 266.55,147.545 266.55,151.532 		"/>
		<polygon fill="#957371" points="266.55,147.545 265.774,147.987 265.774,151.1 266.55,151.532 		"/>
		<polygon fill="#957371" points="265.774,151.1 263.455,152.408 263.455,153.324 266.55,151.532 		"/>
	</g>
	<g>
		<polygon fill="#61313F" points="271.613,148.604 271.613,144.592 274.707,142.824 274.707,146.813 		"/>
		<polygon fill="#957371" points="274.707,142.824 273.931,143.268 273.931,146.38 274.707,146.813 		"/>
		<polygon fill="#957371" points="273.931,146.38 271.613,147.688 271.613,148.604 274.707,146.813 		"/>
	</g>
	<g>
		<polygon fill="#61313F" points="279.771,143.896 279.771,139.884 282.865,138.116 282.865,142.104 		"/>
		<polygon fill="#957371" points="282.865,138.116 282.09,138.559 282.09,141.671 282.865,142.104 		"/>
		<polygon fill="#957371" points="282.09,141.671 279.771,142.979 279.771,143.896 282.865,142.104 		"/>
	</g>
	<g>
		<polygon fill="#61313F" points="287.928,139.186 287.928,135.174 291.022,133.406 291.022,137.395 		"/>
		<polygon fill="#957371" points="291.022,133.406 290.246,133.85 290.246,136.962 291.022,137.395 		"/>
		<polygon fill="#957371" points="290.246,136.962 287.928,138.271 287.928,139.186 291.022,137.395 		"/>
	</g>
	<g>
		<polygon fill="#61313F" points="296.085,134.47 296.085,130.458 299.18,128.69 299.18,132.679 		"/>
		<polygon fill="#957371" points="299.18,128.69 298.403,129.133 298.403,132.244 299.18,132.679 		"/>
		<polygon fill="#957371" points="298.403,132.244 296.085,133.555 296.085,134.47 299.18,132.679 		"/>
	</g>
	<g>
		<g>
			<polygon fill="#BCBEC0" points="78.45,85.912 78.741,85.744 78.741,79.208 78.45,79.041 			"/>
			<polygon fill="#E6E7E8" points="78.45,85.917 78.45,79.041 77.964,78.762 77.964,85.637 			"/>
		</g>
		<g>
			<polygon fill="#BCBEC0" points="85.385,89.909 85.676,89.739 85.676,83.205 85.385,83.037 			"/>
			<polygon fill="#E6E7E8" points="85.385,89.914 85.385,83.037 84.899,82.757 84.899,89.633 			"/>
		</g>
		<g>
			<polygon fill="#BCBEC0" points="92.348,93.933 92.639,93.764 92.639,87.229 92.348,87.061 			"/>
			<polygon fill="#E6E7E8" points="92.348,93.938 92.348,87.061 91.862,86.782 91.862,93.657 			"/>
		</g>
		<polygon fill="#E6E7E8" points="100.141,98.429 100.141,91.552 99.655,91.273 99.655,98.148 		"/>
		<polygon fill="#BCBEC0" points="100.141,98.429 100.141,91.552 100.626,91.273 100.626,98.148 		"/>
	</g>
	<g>
		<polygon fill="#BCBEC0" points="78.45,101.063 78.741,100.893 78.741,94.358 78.45,94.191 		"/>
		<polygon fill="#E6E7E8" points="78.45,101.068 78.45,94.191 77.964,93.912 77.964,100.787 		"/>
	</g>
	<g>
		<polygon fill="#BCBEC0" points="85.385,105.059 85.676,104.889 85.676,98.354 85.385,98.187 		"/>
		<polygon fill="#E6E7E8" points="85.385,105.063 85.385,98.187 84.899,97.907 84.899,104.782 		"/>
	</g>
	<g>
		<polygon fill="#BCBEC0" points="92.348,109.083 92.639,108.914 92.639,102.378 92.348,102.211 		"/>
		<polygon fill="#E6E7E8" points="92.348,109.088 92.348,102.211 91.862,101.932 91.862,108.807 		"/>
	</g>
	<g>
		<polygon fill="#BCBEC0" points="121.722,85.965 121.431,85.796 121.431,79.262 121.722,79.094 		"/>
		<polygon fill="#E6E7E8" points="121.722,85.971 121.722,79.094 122.208,78.815 122.208,85.69 		"/>
	</g>
	<g>
		<polygon fill="#BCBEC0" points="114.787,89.962 114.496,89.792 114.496,83.257 114.787,83.09 		"/>
		<polygon fill="#E6E7E8" points="114.787,89.967 114.787,83.09 115.273,82.811 115.273,89.686 		"/>
	</g>
	<g>
		<polygon fill="#BCBEC0" points="107.824,93.986 107.534,93.817 107.534,87.282 107.824,87.114 		"/>
		<polygon fill="#E6E7E8" points="107.824,93.991 107.824,87.114 108.31,86.835 108.31,93.71 		"/>
	</g>
	<g>
		<polygon fill="#BCBEC0" points="121.722,101.128 121.431,100.958 121.431,94.423 121.722,94.256 		"/>
		<polygon fill="#E6E7E8" points="121.722,101.133 121.722,94.256 122.208,93.977 122.208,100.852 		"/>
	</g>
	<g>
		<polygon fill="#BCBEC0" points="114.787,105.124 114.496,104.955 114.496,98.419 114.787,98.252 		"/>
		<polygon fill="#E6E7E8" points="114.787,105.129 114.787,98.252 115.273,97.973 115.273,104.848 		"/>
	</g>
	<g>
		<polygon fill="#BCBEC0" points="107.824,109.148 107.534,108.979 107.534,102.443 107.824,102.276 		"/>
		<polygon fill="#E6E7E8" points="107.824,109.153 107.824,102.276 108.31,101.998 108.31,108.873 		"/>
	</g>
	<polygon fill="#E6E7E8" points="100.141,113.579 100.141,106.702 99.655,106.423 99.655,113.298 	"/>
	<polygon fill="#BCBEC0" points="100.141,113.579 100.141,106.702 100.626,106.423 100.626,113.298 	"/>
	<g>
		<path opacity="0.2" fill="#58595B" d="M64.995,130.112c0.024-0.056,0.047-0.112,0.068-0.169c0.001-0.002,0.001-0.004,0.003-0.006
			c0.02-0.056,0.04-0.11,0.057-0.164c0.001-0.006,0.002-0.009,0.004-0.012c0.016-0.054,0.032-0.105,0.045-0.159
			c0.001-0.006,0.003-0.012,0.004-0.018c0.013-0.051,0.024-0.101,0.035-0.15c0.002-0.009,0.003-0.018,0.005-0.025
			c0.009-0.047,0.018-0.095,0.024-0.142c0.001-0.011,0.002-0.021,0.004-0.033c0.006-0.044,0.01-0.089,0.014-0.132
			c0-0.015,0.001-0.027,0.001-0.041c0.003-0.04,0.005-0.082,0.005-0.122c0-0.017,0-0.032,0-0.049c0-0.037-0.001-0.075-0.004-0.112
			c-0.001-0.019-0.003-0.038-0.005-0.058c-0.003-0.032-0.006-0.066-0.01-0.1c-0.003-0.022-0.008-0.045-0.012-0.068
			c-0.005-0.028-0.01-0.058-0.017-0.086c-0.005-0.027-0.013-0.053-0.021-0.078c-0.006-0.025-0.012-0.05-0.02-0.074
			c-0.009-0.031-0.021-0.063-0.032-0.093c-0.007-0.019-0.012-0.037-0.02-0.056c-0.02-0.049-0.041-0.097-0.065-0.145
			c-0.772-1.533-3.484-1.665-6.057-0.295c-0.102,0.055-0.202,0.111-0.3,0.168c-0.026,0.017-0.052,0.031-0.078,0.047
			c-0.083,0.049-0.165,0.1-0.246,0.151c-0.015,0.009-0.03,0.019-0.045,0.028c-0.095,0.063-0.189,0.126-0.28,0.19
			c-0.015,0.01-0.03,0.021-0.046,0.032c-0.081,0.059-0.16,0.117-0.238,0.177c-0.013,0.01-0.025,0.021-0.039,0.03
			c-0.182,0.142-0.354,0.287-0.516,0.438c-0.005,0.005-0.01,0.011-0.016,0.015c-1.199,1.118-1.834,2.436-1.622,3.497l-2.477,1.319
			c-0.065,0.034-0.108,0.113-0.114,0.228c-0.01,0.229,0.134,0.515,0.322,0.637c0.092,0.063,0.18,0.071,0.245,0.036l0,0.002
			l2.478-1.319c1.025,1.126,3.452,1.11,5.767-0.123c1.555-0.828,2.702-2.016,3.197-3.164L64.995,130.112z"/>
		<g>
			<path fill="#724E50" d="M53.948,128.356h-1.413v5.992c0,0.104,0.067,0.21,0.206,0.288c0.276,0.159,0.725,0.159,0.999,0
				c0.138-0.078,0.207-0.183,0.207-0.287h0.001V128.356z"/>
			<path fill="#895E61" d="M52.536,128.356v5.992c0,0.013,0.004,0.024,0.006,0.038c0.275,0.109,0.657,0.095,0.902-0.047
				c0.137-0.078,0.206-0.184,0.206-0.288h0.002v-5.695H52.536z"/>
			<linearGradient id="SVGID_5_" gradientUnits="userSpaceOnUse" x1="59.5098" y1="127.9072" x2="47.1923" y2="118.1615">
				<stop  offset="0" style="stop-color:#7CA25C"/>
				<stop  offset="1" style="stop-color:#ACB060"/>
			</linearGradient>
			<path fill="url(#SVGID_5_)" d="M56.253,117.532L56.253,117.532L56.253,117.532c-0.147-0.243-0.302-0.468-0.467-0.674
				c-0.001,0-0.001-0.001-0.002-0.001c-0.054-0.068-0.109-0.133-0.165-0.197c-0.002-0.002-0.003-0.004-0.005-0.006
				c-0.055-0.062-0.11-0.121-0.167-0.178c-0.004-0.004-0.007-0.007-0.01-0.011c-0.055-0.055-0.111-0.109-0.167-0.16
				c-0.005-0.005-0.011-0.01-0.017-0.016c-0.055-0.049-0.11-0.096-0.166-0.141c-0.008-0.007-0.017-0.014-0.025-0.021
				c-0.053-0.042-0.107-0.083-0.162-0.123c-0.012-0.008-0.024-0.016-0.036-0.024c-0.052-0.036-0.104-0.071-0.156-0.104
				c-0.016-0.01-0.032-0.018-0.046-0.027c-0.05-0.03-0.1-0.059-0.151-0.085c-0.019-0.011-0.039-0.019-0.058-0.029
				c-0.048-0.024-0.095-0.047-0.144-0.068c-0.024-0.011-0.048-0.019-0.071-0.029c-0.045-0.018-0.089-0.036-0.134-0.052
				c-0.029-0.01-0.058-0.018-0.087-0.026c-0.041-0.013-0.082-0.026-0.123-0.037c-0.036-0.009-0.071-0.015-0.106-0.023
				c-0.036-0.007-0.071-0.016-0.107-0.023c-0.044-0.008-0.089-0.012-0.134-0.018c-0.027-0.003-0.055-0.008-0.083-0.01
				c-0.073-0.006-0.146-0.01-0.22-0.01c-2.403,0-4.351,3.362-4.351,7.509c0,0.164,0.004,0.328,0.01,0.49
				c0.001,0.043,0.004,0.085,0.005,0.128c0.006,0.137,0.016,0.274,0.026,0.41c0.002,0.024,0.003,0.05,0.005,0.074
				c0.014,0.162,0.03,0.321,0.051,0.479c0.003,0.025,0.007,0.051,0.01,0.076c0.019,0.142,0.04,0.281,0.063,0.421
				c0.003,0.021,0.006,0.041,0.011,0.063c0.055,0.323,0.124,0.636,0.203,0.939c0.002,0.009,0.004,0.018,0.006,0.025
				c0.686,2.596,2.2,4.402,3.961,4.402c2.401,0,4.349-3.363,4.349-7.51C57.591,120.818,57.078,118.898,56.253,117.532z"/>
			<path opacity="0.2" fill="#58595B" d="M56.253,117.532c-0.074-0.121-0.148-0.238-0.227-0.35c0.41,1.145,0.647,2.493,0.647,3.938
				c0,4.148-1.948,7.511-4.35,7.511c-1.06,0-2.03-0.656-2.785-1.743c0.766,2.141,2.137,3.57,3.703,3.57
				c2.401,0,4.349-3.363,4.349-7.51C57.591,120.818,57.078,118.898,56.253,117.532z"/>
		</g>
	</g>
	<g>
		<path opacity="0.2" fill="#58595B" d="M78.712,129.832c0.024-0.058,0.047-0.114,0.068-0.171c0-0.002,0.001-0.004,0.002-0.006
			c0.02-0.056,0.04-0.11,0.057-0.164c0.001-0.005,0.002-0.009,0.003-0.012c0.017-0.054,0.032-0.105,0.046-0.159
			c0.001-0.006,0.003-0.012,0.004-0.017c0.013-0.052,0.024-0.102,0.035-0.151c0.001-0.009,0.002-0.018,0.004-0.024
			c0.009-0.048,0.017-0.095,0.023-0.142c0.002-0.012,0.003-0.022,0.004-0.033c0.006-0.045,0.011-0.088,0.014-0.133
			c0.001-0.013,0.002-0.027,0.002-0.041c0.002-0.04,0.004-0.081,0.004-0.122c0-0.016-0.001-0.032-0.001-0.048
			c0-0.038-0.001-0.076-0.003-0.112c-0.001-0.02-0.004-0.038-0.005-0.059c-0.004-0.032-0.006-0.065-0.011-0.1
			c-0.002-0.022-0.007-0.045-0.012-0.067c-0.005-0.028-0.01-0.059-0.016-0.087c-0.005-0.026-0.013-0.053-0.02-0.078
			c-0.006-0.024-0.012-0.05-0.02-0.074c-0.009-0.031-0.021-0.062-0.032-0.093c-0.007-0.019-0.013-0.037-0.02-0.056
			c-0.021-0.049-0.042-0.097-0.065-0.145c-0.771-1.533-3.483-1.664-6.056-0.295c-0.102,0.056-0.202,0.111-0.3,0.168
			c-0.026,0.017-0.052,0.031-0.079,0.047c-0.083,0.049-0.164,0.1-0.245,0.151c-0.015,0.009-0.03,0.02-0.046,0.028
			c-0.095,0.063-0.189,0.126-0.28,0.191c-0.016,0.011-0.031,0.021-0.046,0.031c-0.081,0.059-0.16,0.117-0.238,0.178
			c-0.013,0.01-0.025,0.02-0.038,0.029c-0.182,0.142-0.354,0.288-0.517,0.438c-0.005,0.004-0.01,0.01-0.016,0.014
			c-1.2,1.118-1.835,2.436-1.623,3.498l-2.476,1.319c-0.065,0.034-0.109,0.112-0.114,0.227c-0.01,0.229,0.134,0.515,0.321,0.639
			c0.093,0.061,0.181,0.069,0.246,0.036l0,0.001l2.477-1.32c1.025,1.126,3.452,1.11,5.767-0.123
			c1.555-0.828,2.703-2.016,3.197-3.164L78.712,129.832z"/>
		<g>
			<path fill="#724E50" d="M67.666,128.074h-1.413v5.992c0,0.105,0.068,0.21,0.206,0.29c0.275,0.158,0.724,0.158,1,0
				c0.137-0.08,0.206-0.185,0.206-0.289h0.001V128.074z"/>
			<path fill="#895E61" d="M66.253,128.074v5.992c0,0.013,0.004,0.025,0.006,0.038c0.275,0.11,0.657,0.095,0.902-0.047
				c0.137-0.078,0.206-0.183,0.206-0.287h0.002v-5.696H66.253z"/>
			<linearGradient id="SVGID_6_" gradientUnits="userSpaceOnUse" x1="73.228" y1="127.625" x2="60.9105" y2="117.8793">
				<stop  offset="0" style="stop-color:#7CA25C"/>
				<stop  offset="1" style="stop-color:#ACB060"/>
			</linearGradient>
			<path fill="url(#SVGID_6_)" d="M69.971,117.25L69.971,117.25L69.971,117.25c-0.146-0.243-0.302-0.468-0.467-0.674
				c0-0.001-0.001-0.001-0.001-0.002c-0.055-0.068-0.109-0.133-0.165-0.196c-0.002-0.002-0.004-0.004-0.006-0.006
				c-0.054-0.062-0.11-0.122-0.167-0.179c-0.003-0.004-0.007-0.007-0.01-0.011c-0.056-0.056-0.111-0.109-0.167-0.161
				c-0.006-0.005-0.011-0.01-0.017-0.015c-0.055-0.05-0.109-0.097-0.166-0.142c-0.008-0.007-0.016-0.013-0.025-0.02
				c-0.053-0.042-0.107-0.083-0.162-0.123c-0.012-0.008-0.023-0.015-0.035-0.024c-0.052-0.036-0.104-0.072-0.157-0.104
				c-0.015-0.009-0.031-0.018-0.046-0.026c-0.049-0.03-0.1-0.059-0.15-0.086c-0.02-0.01-0.039-0.019-0.059-0.028
				c-0.048-0.024-0.095-0.048-0.144-0.068c-0.024-0.011-0.048-0.019-0.071-0.029c-0.044-0.018-0.089-0.037-0.135-0.052
				c-0.029-0.01-0.058-0.018-0.087-0.026c-0.041-0.013-0.081-0.027-0.123-0.037c-0.035-0.009-0.07-0.016-0.105-0.023
				s-0.071-0.016-0.107-0.022c-0.045-0.008-0.09-0.012-0.134-0.018c-0.028-0.004-0.056-0.009-0.083-0.011
				c-0.073-0.006-0.146-0.01-0.221-0.01c-2.403,0-4.35,3.362-4.35,7.509c0,0.164,0.003,0.328,0.009,0.49
				c0.002,0.043,0.004,0.086,0.005,0.128c0.007,0.139,0.016,0.274,0.027,0.411c0.001,0.023,0.002,0.049,0.005,0.074
				c0.014,0.161,0.03,0.32,0.05,0.479c0.003,0.025,0.007,0.051,0.01,0.075c0.019,0.142,0.04,0.282,0.063,0.421
				c0.003,0.021,0.007,0.042,0.01,0.063c0.056,0.323,0.124,0.636,0.203,0.939c0.002,0.01,0.004,0.018,0.006,0.026
				c0.685,2.595,2.2,4.401,3.96,4.401c2.402,0,4.35-3.362,4.35-7.51C71.309,120.537,70.795,118.616,69.971,117.25z"/>
			<path opacity="0.2" fill="#58595B" d="M69.971,117.25c-0.073-0.121-0.148-0.238-0.226-0.351c0.411,1.145,0.648,2.494,0.648,3.938
				c0,4.147-1.948,7.51-4.351,7.51c-1.059,0-2.03-0.655-2.784-1.743c0.766,2.141,2.136,3.57,3.702,3.57
				c2.402,0,4.35-3.362,4.35-7.51C71.309,120.537,70.795,118.616,69.971,117.25z"/>
		</g>
	</g>
	<g>
		<path opacity="0.2" fill="#58595B" d="M84.528,141.753c0.024-0.056,0.047-0.112,0.069-0.169c0-0.002,0.001-0.004,0.002-0.007
			c0.021-0.054,0.04-0.109,0.057-0.163c0.001-0.005,0.002-0.009,0.004-0.012c0.016-0.054,0.031-0.105,0.045-0.159
			c0.001-0.005,0.003-0.012,0.004-0.017c0.013-0.052,0.024-0.102,0.035-0.151c0.002-0.009,0.003-0.018,0.004-0.025
			c0.009-0.047,0.018-0.095,0.024-0.142c0.001-0.011,0.002-0.021,0.004-0.032c0.005-0.045,0.011-0.089,0.014-0.132
			c0.001-0.014,0.001-0.028,0.002-0.042c0.002-0.04,0.004-0.082,0.004-0.121c0-0.018,0-0.034,0-0.05
			c-0.001-0.038-0.002-0.075-0.004-0.112c-0.001-0.02-0.004-0.037-0.005-0.058c-0.004-0.033-0.006-0.066-0.011-0.1
			c-0.003-0.022-0.008-0.045-0.012-0.067c-0.005-0.029-0.01-0.059-0.017-0.088c-0.005-0.026-0.012-0.052-0.02-0.077
			c-0.006-0.024-0.012-0.05-0.02-0.074c-0.009-0.031-0.021-0.063-0.032-0.093c-0.007-0.019-0.012-0.037-0.02-0.056
			c-0.02-0.049-0.041-0.097-0.065-0.144c-0.772-1.534-3.483-1.666-6.057-0.296c-0.102,0.054-0.202,0.11-0.3,0.168
			c-0.026,0.016-0.052,0.031-0.077,0.047c-0.083,0.049-0.166,0.099-0.246,0.151c-0.016,0.01-0.03,0.02-0.046,0.028
			c-0.096,0.063-0.189,0.126-0.28,0.191c-0.015,0.009-0.03,0.021-0.045,0.031c-0.081,0.059-0.161,0.117-0.238,0.177
			c-0.013,0.01-0.026,0.021-0.039,0.03c-0.182,0.142-0.354,0.288-0.516,0.438c-0.005,0.004-0.01,0.01-0.016,0.015
			c-1.2,1.117-1.835,2.435-1.623,3.497l-2.476,1.319c-0.065,0.034-0.108,0.111-0.113,0.227c-0.01,0.229,0.134,0.515,0.321,0.637
			c0.093,0.063,0.18,0.071,0.245,0.037l0,0.002l2.477-1.32c1.025,1.126,3.452,1.11,5.767-0.123c1.555-0.828,2.703-2.016,3.197-3.163
			L84.528,141.753z"/>
		<g>
			<path fill="#724E50" d="M73.481,139.997h-1.413v5.992c0,0.104,0.068,0.21,0.206,0.289c0.275,0.159,0.725,0.159,1,0
				c0.137-0.079,0.206-0.184,0.206-0.288h0.001V139.997z"/>
			<path fill="#895E61" d="M72.069,139.997v5.992c0,0.013,0.004,0.025,0.006,0.038c0.275,0.109,0.657,0.095,0.901-0.047
				c0.137-0.079,0.206-0.183,0.206-0.287h0.002v-5.696H72.069z"/>
			<linearGradient id="SVGID_7_" gradientUnits="userSpaceOnUse" x1="79.0439" y1="139.5479" x2="66.7254" y2="129.8013">
				<stop  offset="0" style="stop-color:#7CA25C"/>
				<stop  offset="1" style="stop-color:#ACB060"/>
			</linearGradient>
			<path fill="url(#SVGID_7_)" d="M75.787,129.173L75.787,129.173L75.787,129.173c-0.146-0.243-0.302-0.469-0.467-0.673
				c-0.001-0.002-0.001-0.003-0.002-0.004c-0.054-0.066-0.109-0.132-0.165-0.195c-0.001-0.003-0.004-0.004-0.005-0.006
				c-0.055-0.062-0.11-0.121-0.167-0.179c-0.003-0.004-0.007-0.008-0.01-0.011c-0.055-0.056-0.111-0.109-0.167-0.161
				c-0.005-0.005-0.011-0.01-0.017-0.015c-0.055-0.05-0.11-0.097-0.166-0.143c-0.008-0.006-0.017-0.014-0.026-0.021
				c-0.053-0.041-0.107-0.083-0.161-0.122c-0.012-0.009-0.024-0.015-0.036-0.023c-0.052-0.036-0.104-0.071-0.157-0.104
				c-0.016-0.01-0.031-0.018-0.046-0.026c-0.05-0.03-0.1-0.06-0.15-0.086c-0.019-0.01-0.039-0.02-0.058-0.028
				c-0.048-0.024-0.095-0.048-0.144-0.069c-0.024-0.01-0.048-0.019-0.072-0.027c-0.044-0.019-0.088-0.037-0.134-0.054
				c-0.029-0.009-0.058-0.017-0.087-0.026c-0.041-0.013-0.082-0.025-0.123-0.036c-0.035-0.01-0.07-0.016-0.105-0.023
				c-0.036-0.008-0.072-0.017-0.108-0.023c-0.045-0.008-0.089-0.012-0.134-0.017c-0.028-0.005-0.055-0.009-0.083-0.012
				c-0.074-0.006-0.146-0.01-0.221-0.01c-2.404,0-4.351,3.362-4.351,7.51c0,0.165,0.004,0.327,0.011,0.49
				c0,0.042,0.003,0.085,0.005,0.129c0.006,0.137,0.015,0.273,0.025,0.408c0.002,0.026,0.003,0.051,0.005,0.075
				c0.014,0.162,0.031,0.321,0.05,0.48c0.003,0.024,0.007,0.05,0.01,0.075c0.019,0.142,0.04,0.281,0.063,0.42
				c0.003,0.021,0.006,0.042,0.01,0.063c0.056,0.323,0.124,0.638,0.203,0.94c0.002,0.01,0.004,0.018,0.007,0.025
				c0.685,2.597,2.2,4.402,3.96,4.402c2.402,0,4.35-3.362,4.35-7.51C77.125,132.459,76.611,130.539,75.787,129.173z"/>
			<path opacity="0.2" fill="#58595B" d="M75.787,129.173c-0.073-0.122-0.148-0.239-0.226-0.351c0.41,1.145,0.647,2.492,0.647,3.938
				c0,4.147-1.948,7.509-4.35,7.509c-1.06,0-2.031-0.655-2.785-1.742c0.766,2.142,2.137,3.57,3.703,3.57
				c2.402,0,4.35-3.362,4.35-7.51C77.125,132.459,76.611,130.539,75.787,129.173z"/>
		</g>
	</g>
	<polygon opacity="0.5" fill="#FFFFFF" points="72.452,82.114 77.964,78.762 72.452,75.581 	"/>
	<polygon opacity="0.5" fill="#FFFFFF" points="78.741,85.744 84.253,82.392 78.741,79.21 	"/>
	<polygon opacity="0.5" fill="#FFFFFF" points="85.676,89.74 91.187,86.387 85.676,83.206 	"/>
	<polygon opacity="0.5" fill="#FFFFFF" points="92.639,93.764 98.15,90.411 92.639,87.23 	"/>
	<polygon opacity="0.5" fill="#FFFFFF" points="72.452,97.249 77.964,93.896 72.452,90.715 	"/>
	<polygon opacity="0.5" fill="#FFFFFF" points="78.741,100.878 84.253,97.525 78.741,94.344 	"/>
	<polygon opacity="0.5" fill="#FFFFFF" points="85.676,104.874 91.187,101.521 85.676,98.34 	"/>
	<polygon opacity="0.5" fill="#FFFFFF" points="92.639,108.898 98.15,105.545 92.639,102.364 	"/>
	<polygon opacity="0.5" fill="#FFFFFF" points="100.626,97.791 100.626,91.273 105.767,88.305 	"/>
	<polygon opacity="0.5" fill="#FFFFFF" points="108.31,93.358 108.31,86.84 113.45,83.873 	"/>
	<polygon opacity="0.5" fill="#FFFFFF" points="115.273,89.353 115.273,82.834 120.413,79.867 	"/>
	<polygon opacity="0.5" fill="#FFFFFF" points="122.208,85.345 122.208,78.827 127.348,75.859 	"/>
	<polygon opacity="0.5" fill="#FFFFFF" points="100.626,112.938 100.626,106.419 105.767,103.451 	"/>
	<polygon opacity="0.5" fill="#FFFFFF" points="104.969,124.738 104.969,118.221 127.829,105.035 	"/>
	<polygon opacity="0.5" fill="#FFFFFF" points="108.31,108.504 108.31,101.987 113.45,99.018 	"/>
	<polygon opacity="0.5" fill="#FFFFFF" points="115.273,104.499 115.273,97.98 120.413,95.013 	"/>
	<polygon opacity="0.5" fill="#FFFFFF" points="122.208,100.491 122.208,93.973 127.348,91.005 	"/>
</g>
</svg>
