<?xml version="1.0" encoding="utf-8"?>
<!-- Generator: Adobe Illustrator 16.0.0, SVG Export Plug-In . SVG Version: 6.00 Build 0)  -->
<!DOCTYPE svg PUBLIC "-//W3C//DTD SVG 1.1//EN" "http://www.w3.org/Graphics/SVG/1.1/DTD/svg11.dtd">
<svg version="1.1" id="Layer_1" xmlns="http://www.w3.org/2000/svg" xmlns:xlink="http://www.w3.org/1999/xlink" x="0px" y="0px"
	 width="322px" height="235px" viewBox="0 0 322 235" enable-background="new 0 0 322 235" xml:space="preserve">
<g>
	<rect x="75.495" y="0.258" fill="#C7695B" width="34.965" height="104.896"/>
	<polygon fill="#C7695B" points="110.46,35.223 110.46,70.188 110.46,70.188 110.46,105.154 145.426,105.154 145.426,70.188 
		145.426,70.188 145.426,35.223 	"/>
	<rect x="110.46" y="96.413" fill="#FFFFFF" width="34.966" height="8.741"/>
	<rect x="31.8" y="105.154" fill="#7A7E83" width="69.919" height="8.74"/>
	<polygon fill="#C7695B" points="40.53,35.223 40.53,70.188 40.53,70.188 40.53,105.154 75.495,105.154 75.495,70.188 
		75.495,70.188 75.495,35.223 	"/>
	<rect x="101.719" y="96.413" fill="#FFFFFF" width="8.741" height="8.741"/>
	<polygon fill="#FFFFFF" points="75.496,68.002 75.496,70.188 75.496,72.374 75.496,74.558 110.46,74.558 110.46,72.374 
		110.46,70.188 110.46,68.002 	"/>
	<rect x="75.495" y="96.413" fill="#FFFFFF" width="8.742" height="8.741"/>
	<rect x="84.237" y="104.06" fill="#FFFFFF" width="17.482" height="1.094"/>
	<rect x="84.237" y="104.06" opacity="0.2" fill="#010101" width="17.482" height="1.094"/>
	<rect x="84.237" y="102.967" fill="#FFFFFF" width="17.482" height="1.093"/>
	<rect x="84.237" y="101.875" fill="#FFFFFF" width="17.482" height="1.092"/>
	<rect x="84.237" y="100.782" fill="#FFFFFF" width="17.482" height="1.093"/>
	<rect x="84.237" y="99.689" fill="#FFFFFF" width="17.482" height="1.093"/>
	<rect x="84.237" y="98.597" fill="#FFFFFF" width="17.482" height="1.092"/>
	<rect x="84.237" y="97.504" fill="#FFFFFF" width="17.482" height="1.093"/>
	<rect x="84.237" y="96.413" fill="#FFFFFF" width="17.482" height="1.092"/>
	<rect x="84.237" y="101.875" opacity="0.2" fill="#010101" width="17.482" height="1.092"/>
	<rect x="84.237" y="99.689" opacity="0.2" fill="#010101" width="17.482" height="1.093"/>
	<rect x="84.237" y="97.504" opacity="0.2" fill="#010101" width="17.482" height="1.093"/>
	<rect x="84.236" y="78.929" fill="#5B7B86" width="17.483" height="17.484"/>
	<rect x="84.236" y="11.185" fill="#5B7B86" width="17.483" height="56.341"/>
	<rect x="119.201" y="96.413" fill="#5B7B86" width="17.483" height="8.741"/>
	<rect x="49.271" y="70.188" fill="#5B7B86" width="17.483" height="17.482"/>
	<rect x="127.396" y="96.413" fill="#FFFFFF" width="1.093" height="8.741"/>
	<rect x="49.271" y="43.964" fill="#5B7B86" width="17.483" height="17.483"/>
	<rect x="119.201" y="70.188" fill="#5B7B86" width="17.483" height="17.482"/>
	<rect x="119.201" y="43.964" fill="#5B7B86" width="17.483" height="17.483"/>
	<rect x="40.53" y="96.413" fill="#FFFFFF" width="34.965" height="8.741"/>
	<rect x="92.432" y="78.93" fill="#FFFFFF" width="1.093" height="17.482"/>
	<rect x="49.271" y="52.159" fill="#FFFFFF" width="17.481" height="1.093"/>
	<polygon fill="#DC7363" points="40.53,33.039 40.53,34.132 40.53,35.225 75.495,35.225 75.495,34.132 75.495,33.039 	"/>
	<polygon fill="#DC7363" points="110.46,33.039 110.46,34.132 110.46,35.225 145.425,35.225 145.425,34.132 145.425,33.039 	"/>
	<polygon fill="#DC7363" points="75.495,0.284 75.495,1.376 75.495,2.469 110.46,2.469 110.46,1.376 110.46,0.284 	"/>
	<polygon opacity="0.2" fill="#010101" points="75.495,2.521 75.495,3.613 75.495,4.706 110.46,4.706 110.46,3.613 110.46,2.521 	
		"/>
	<polygon opacity="0.2" fill="#010101" points="40.53,35.224 40.53,36.315 40.53,37.409 75.495,37.409 75.495,36.315 75.495,35.224 
			"/>
	<polygon opacity="0.2" fill="#010101" points="119.201,35.224 119.201,36.315 119.201,37.409 145.425,37.409 145.425,36.315 
		145.425,35.224 	"/>
	<rect x="119.202" y="52.159" fill="#FFFFFF" width="17.481" height="1.093"/>
	<rect x="49.271" y="78.383" fill="#FFFFFF" width="17.481" height="1.093"/>
	<rect x="119.202" y="78.383" fill="#FFFFFF" width="17.482" height="1.093"/>
	<rect x="92.432" y="11.186" fill="#FFFFFF" width="1.093" height="50.263"/>
	<rect x="84.237" y="87.124" fill="#FFFFFF" width="17.482" height="1.093"/>
	<rect x="84.237" y="19.38" fill="#FFFFFF" width="17.482" height="1.092"/>
	<rect x="84.237" y="28.12" fill="#FFFFFF" width="17.482" height="1.094"/>
	<rect x="84.237" y="36.862" fill="#FFFFFF" width="17.482" height="1.092"/>
	<rect x="84.237" y="45.604" fill="#FFFFFF" width="17.482" height="1.092"/>
	<rect x="84.237" y="54.344" fill="#FFFFFF" width="17.482" height="1.092"/>
	<rect x="84.237" y="91.767" fill="#FFFFFF" width="17.482" height="1.093"/>
	<polygon opacity="0.2" fill="#010101" points="136.684,96.413 123.14,96.413 119.202,89.626 119.202,35.223 110.46,35.223 
		110.46,74.561 75.495,74.561 78.332,79.476 88.111,96.413 110.46,96.413 110.46,96.413 110.46,105.154 119.201,105.154 
		119.202,105.154 121.387,105.154 128.212,105.154 123.774,97.504 136.684,97.504 	"/>
	<rect x="49.271" y="96.413" fill="#5B7B86" width="17.483" height="8.741"/>
	<rect x="57.466" y="96.413" fill="#FFFFFF" width="1.092" height="8.741"/>
	<rect x="127.396" y="70.188" fill="#FFFFFF" width="1.093" height="8.741"/>
	<rect x="127.396" y="43.964" fill="#FFFFFF" width="1.093" height="8.741"/>
	<rect x="57.466" y="70.188" fill="#FFFFFF" width="1.093" height="8.741"/>
	<rect x="57.466" y="43.964" fill="#FFFFFF" width="1.093" height="8.741"/>
	<polygon opacity="0.2" fill="#010101" points="66.753,43.965 49.271,43.965 49.271,46.15 49.271,46.15 49.271,61.447 
		51.457,61.447 51.457,45.057 66.753,45.057 	"/>
	<polygon opacity="0.2" fill="#010101" points="66.753,70.188 49.271,70.188 49.271,72.374 49.271,72.374 49.271,87.67 
		51.457,87.67 51.457,71.281 66.753,71.281 	"/>
	<polygon opacity="0.2" fill="#010101" points="66.753,96.413 49.271,96.413 49.271,98.597 49.271,98.597 49.271,105.154 
		51.457,105.154 51.457,97.504 66.753,97.504 	"/>
	<polygon opacity="0.2" fill="#010101" points="136.684,43.965 119.202,43.965 119.202,46.15 119.202,46.15 119.202,61.447 
		121.388,61.447 121.388,45.057 136.684,45.057 	"/>
	<polygon opacity="0.2" fill="#010101" points="101.719,11.185 84.237,11.185 84.237,13.37 84.237,13.37 84.237,65.818 
		86.423,65.818 86.423,12.277 101.719,12.277 	"/>
	<polygon opacity="0.2" fill="#010101" points="136.684,70.188 119.202,70.188 119.202,72.374 119.202,72.374 119.202,87.67 
		121.388,87.67 121.388,71.281 136.684,71.281 	"/>
	<path fill="#FFFFFF" d="M103.903,68.002c0-6.033-4.891-10.925-10.926-10.925c-6.035,0-10.926,4.892-10.926,10.925H103.903z"/>
	<path opacity="0.05" fill="#010101" d="M99.533,68.002c0-3.62-2.936-6.555-6.556-6.555c-3.621,0-6.557,2.935-6.557,6.555H99.533z"
		/>
	<path opacity="0.2" fill="#010101" d="M94.163,62.533c1.914,0,3.602,0.95,4.604,2.395c-1.103-2.071-3.28-3.481-5.789-3.481
		c-3.621,0-6.557,2.935-6.557,6.555h2.175C88.595,64.982,91.088,62.533,94.163,62.533z"/>
	<rect x="77.681" y="74.558" fill="#FFFFFF" width="4.371" height="21.854"/>
	<rect x="103.903" y="74.558" fill="#FFFFFF" width="4.371" height="21.854"/>
	<rect x="75.495" y="74.558" fill="#FFFFFF" width="8.742" height="1.094"/>
	<polygon opacity="0.2" fill="#010101" points="75.495,74.558 75.495,75.104 81.322,75.104 81.322,75.652 84.236,75.652 
		84.236,75.286 84.236,75.104 84.236,74.924 84.236,74.558 84.236,74.558 	"/>
	<rect x="76.588" y="75.652" fill="#FFFFFF" width="6.556" height="1.091"/>
	<rect x="102.812" y="95.32" fill="#FFFFFF" width="6.556" height="1.093"/>
	<rect x="76.588" y="95.32" fill="#FFFFFF" width="6.556" height="1.093"/>
	<rect x="101.718" y="74.558" fill="#FFFFFF" width="8.742" height="1.094"/>
	<rect x="102.812" y="75.652" fill="#FFFFFF" width="6.556" height="1.091"/>
	<polygon opacity="0.2" fill="#010101" points="76.587,75.653 76.587,76.199 80.958,76.198 80.958,76.744 83.144,76.744 
		83.144,76.38 83.144,76.196 83.144,76.016 83.144,75.652 83.144,75.649 	"/>
	<polygon opacity="0.2" fill="#010101" points="101.719,74.558 101.719,75.104 107.546,75.104 107.546,75.652 110.46,75.652 
		110.46,75.286 110.46,75.104 110.46,74.924 110.46,74.558 110.46,74.558 	"/>
	<polygon opacity="0.2" fill="#010101" points="102.812,75.653 102.812,76.199 107.182,76.198 107.182,76.744 109.368,76.744 
		109.368,76.38 109.368,76.196 109.368,76.016 109.368,75.652 109.368,75.649 	"/>
	<polygon opacity="0.2" fill="#010101" points="77.679,76.745 77.679,77.292 80.595,77.292 80.595,95.32 82.052,95.32 
		82.052,89.127 82.052,81.843 82.052,76.744 	"/>
	<polygon opacity="0.2" fill="#010101" points="103.903,76.745 103.903,77.292 106.818,77.292 106.818,95.32 108.276,95.32 
		108.276,89.127 108.276,81.843 108.276,76.744 	"/>
	<g>
		<polygon fill="#F4C150" points="70.009,96.418 86.388,96.418 87.492,97.259 87.492,109.516 70.009,109.516 		"/>
		<polygon fill="#F4C150" points="99.51,98.604 99.514,107.696 87.492,109.516 86.388,96.418 		"/>
		<polygon fill="#F4C150" points="52.526,96.418 31.8,96.418 31.8,109.516 52.526,109.516 70.009,109.516 70.009,96.418 		"/>
		<rect x="31.789" y="87.677" fill="#5B7B86" width="54.599" height="8.741"/>
		<path fill="#FFCE5A" d="M89.808,108.423h-2.221c0-4.216,3.418-7.634,7.633-7.634l4.285,0.004l0.01,7.629H89.808z"/>
		<rect x="31.789" y="98.596" fill="#6B6C6C" width="55.69" height="1.095"/>
		<rect x="31.789" y="101.876" fill="#6B6C6C" width="55.69" height="1.092"/>
		<rect x="55.686" y="108.419" fill="#6B6C6C" width="32.357" height="1.093"/>
		<rect x="31.789" y="108.419" fill="#6B6C6C" width="13.595" height="1.093"/>
		<path fill="#F4C150" d="M83.109,83.306c2.414,0,4.37,1.958,4.37,4.372h-55.69v-4.372H83.109z"/>
		<polygon fill="#6B6C6C" points="95.723,105.145 101.719,105.145 101.719,109.516 98.356,109.516 		"/>
		<path fill="#535353" d="M87.479,109.516c0-3.019,2.447-5.466,5.465-5.466s5.465,2.447,5.465,5.466H87.479z"/>
		<circle fill="#6B6C6C" cx="92.945" cy="109.516" r="4.372"/>
		<path fill="none" d="M92.945,104.104c2.984,0,5.412,2.428,5.412,5.412H87.532C87.532,106.531,89.96,104.104,92.945,104.104z"/>
		<circle fill="#A3A3A2" cx="92.944" cy="109.516" r="2.187"/>
		<path fill="#535353" d="M44.867,109.516c0-3.019,2.447-5.466,5.465-5.466c3.018,0,5.463,2.447,5.463,5.466H44.867z"/>
		<circle fill="#6B6C6C" cx="50.332" cy="109.516" r="4.372"/>
		<circle fill="#A3A3A2" cx="50.331" cy="109.516" r="2.187"/>
		<rect x="97.328" y="102.967" fill="#F8951D" width="2.186" height="2.185"/>
		<g>
			<path fill="#6B6C6C" d="M31.789,84.946h54.729c0.264,0.329,0.48,0.695,0.642,1.092H31.789V84.946z"/>
		</g>
		<rect x="76.593" y="87.677" fill="#5B7B86" width="4.371" height="20.749"/>
		<rect x="71.13" y="87.677" fill="#5B7B86" width="4.37" height="20.749"/>
		<rect x="80.964" y="86.771" fill="#F4C150" width="1.092" height="10.488"/>
		<rect x="75.5" y="86.771" fill="#F4C150" width="1.093" height="21.647"/>
		<rect x="60.204" y="86.771" fill="#F4C150" width="1.092" height="10.488"/>
		<rect x="40.537" y="86.771" fill="#F4C150" width="1.092" height="10.488"/>
		<rect x="50.371" y="86.771" fill="#F4C150" width="1.092" height="10.488"/>
		<rect x="70.038" y="86.771" fill="#F4C150" width="1.093" height="21.647"/>
		<rect x="80.964" y="86.771" fill="#F4C150" width="1.092" height="21.647"/>
		<rect x="86.388" y="86.584" fill="#6B6C6C" width="4.37" height="1.093"/>
		<polygon fill="#6B6C6C" points="98.417,97.248 98.417,100.789 97.324,100.789 97.324,96.419 		"/>
		<path fill="#6B6C6C" d="M90.757,87.677v3.278c0,0.603-0.489,1.091-1.092,1.091v-4.37H90.757z"/>
		<path fill="#6B6C6C" d="M97.324,95.327v1.093v1.093c0,0.603-0.488,1.092-1.092,1.092v-2.185v-2.185
			C96.836,94.234,97.324,94.723,97.324,95.327z"/>
		<path fill="#6B6C6C" d="M98.417,97.003v1.092v1.094c0,0.603-0.489,1.093-1.093,1.093v-2.187v-2.184
			C97.928,95.912,98.417,96.401,98.417,97.003z"/>
		<rect x="61.296" y="91.501" fill="#E0E1E0" width="8.741" height="1.093"/>
		<rect x="51.462" y="91.501" fill="#E0E1E0" width="8.742" height="1.093"/>
		<rect x="41.589" y="91.501" fill="#E0E1E0" width="8.741" height="1.093"/>
		<rect x="31.794" y="91.501" fill="#E0E1E0" width="8.742" height="1.093"/>
	</g>
	<g>
		<path fill="#90615A" d="M83.333,71.17c-0.21-0.096-0.473-0.173-0.8-0.236h-0.012c-0.298-0.055-0.553-0.14-0.698-0.238
			c-0.064-0.043-0.114-0.09-0.141-0.131c-0.023-0.036-0.032-0.072-0.032-0.13c0-0.112,0.066-0.217,0.198-0.313
			c0.16-0.114,0.383-0.18,0.614-0.18c0.331,0,0.602,0.157,0.896,0.349c0.056,0.035,0.121,0.054,0.187,0.054
			c0.116,0,0.221-0.057,0.282-0.15c0.05-0.069,0.068-0.154,0.054-0.239c-0.017-0.088-0.068-0.17-0.147-0.221l-0.014-0.009
			c-0.297-0.186-0.704-0.442-1.257-0.442c-0.378,0-0.739,0.108-1.017,0.302c-0.303,0.219-0.478,0.527-0.478,0.849
			c0,0.173,0.048,0.339,0.14,0.481c0.119,0.185,0.305,0.336,0.551,0.449c0.199,0.09,0.444,0.163,0.749,0.22h0.011
			c0.326,0.06,0.606,0.152,0.768,0.255c0.072,0.046,0.122,0.094,0.157,0.151c0.032,0.053,0.044,0.093,0.044,0.154
			c0,0.134-0.076,0.256-0.226,0.362c-0.176,0.126-0.427,0.196-0.69,0.196l-0.013,0.001c-0.387,0-0.808-0.225-1.05-0.417
			c-0.141-0.111-0.367-0.091-0.483,0.046c-0.055,0.069-0.08,0.157-0.07,0.246c0.009,0.089,0.054,0.169,0.125,0.225
			c0.332,0.255,0.86,0.56,1.492,0.565h0.001c0.406,0,0.791-0.115,1.085-0.324c0.325-0.228,0.512-0.554,0.512-0.898
			c0-0.176-0.052-0.352-0.145-0.496C83.803,71.458,83.61,71.302,83.333,71.17z"/>
		<path fill="#90615A" d="M87.937,72.286c-0.08,0-0.157,0.023-0.218,0.067c-0.253,0.196-0.553,0.296-0.893,0.296
			c-0.369,0-0.724-0.138-0.998-0.388c-0.256-0.243-0.403-0.582-0.403-0.931s0.14-0.671,0.403-0.932
			c0.275-0.251,0.63-0.389,0.999-0.389c0.341,0,0.648,0.103,0.893,0.298c0.06,0.044,0.138,0.07,0.219,0.07
			c0.117,0,0.23-0.052,0.304-0.141c0.118-0.159,0.089-0.383-0.067-0.508c-0.383-0.289-0.85-0.442-1.349-0.442
			c-1.178,0.005-2.14,0.923-2.146,2.045c0.006,1.127,0.968,2.043,2.146,2.043c0.499,0,0.966-0.152,1.35-0.441
			c0.156-0.12,0.186-0.349,0.064-0.512C88.168,72.336,88.054,72.286,87.937,72.286z"/>
		<path fill="#90615A" d="M91.745,69.395c-0.202,0-0.361,0.155-0.361,0.352v1.286h-1.389v-1.286c0-0.197-0.161-0.352-0.367-0.352
			c-0.203,0-0.361,0.155-0.361,0.352v3.276c0,0.197,0.158,0.35,0.361,0.35c0.206,0,0.367-0.153,0.367-0.35v-1.287h1.389v1.287
			c0,0.197,0.159,0.35,0.361,0.35c0.207,0,0.367-0.153,0.367-0.35v-3.276C92.112,69.55,91.952,69.395,91.745,69.395z"/>
		<path fill="#90615A" d="M94.989,69.285c-0.544,0-1.066,0.221-1.435,0.607c-0.374,0.387-0.58,0.897-0.58,1.438
			c0,0.545,0.206,1.056,0.58,1.436c0.375,0.386,0.897,0.607,1.435,0.607c0.521,0,1.045-0.226,1.401-0.607
			c0.381-0.388,0.59-0.898,0.59-1.436c0-0.534-0.209-1.043-0.59-1.436C96.04,69.512,95.515,69.285,94.989,69.285z M94.989,72.649
			c-0.342,0-0.65-0.134-0.894-0.388c-0.238-0.236-0.375-0.576-0.375-0.931c0-0.354,0.138-0.697,0.376-0.939
			c0.239-0.25,0.548-0.382,0.894-0.382c0.326,0,0.635,0.136,0.871,0.382c0.239,0.248,0.375,0.591,0.375,0.939
			c0,0.349-0.136,0.689-0.375,0.934C95.62,72.511,95.311,72.649,94.989,72.649z"/>
		<path fill="#90615A" d="M99.794,69.285c-0.543,0-1.067,0.221-1.435,0.607c-0.374,0.387-0.579,0.897-0.579,1.438
			c0,0.545,0.206,1.056,0.579,1.436c0.374,0.386,0.897,0.607,1.435,0.607c0.521,0,1.045-0.226,1.4-0.607
			c0.381-0.388,0.592-0.898,0.592-1.436c0-0.534-0.21-1.043-0.59-1.436C100.844,69.512,100.32,69.285,99.794,69.285z M99.794,72.649
			c-0.342,0-0.651-0.134-0.895-0.388c-0.238-0.236-0.375-0.576-0.375-0.931c0-0.354,0.137-0.697,0.376-0.939
			c0.24-0.25,0.548-0.382,0.894-0.382c0.326,0,0.635,0.136,0.871,0.382c0.239,0.248,0.376,0.591,0.376,0.939
			c0,0.349-0.137,0.689-0.376,0.934C100.426,72.511,100.116,72.649,99.794,72.649z"/>
		<path fill="#90615A" d="M105.022,72.665h-1.503v-2.918c0-0.194-0.165-0.352-0.367-0.352c-0.199,0-0.361,0.158-0.361,0.352v3.276
			c0,0.193,0.162,0.35,0.361,0.35h1.871c0.196,0,0.361-0.16,0.361-0.35C105.383,72.83,105.218,72.665,105.022,72.665z"/>
	</g>
</g>
<g>
	<rect x="195.688" y="22.11" fill="#DDF1F6" width="39.335" height="83.042"/>
	<rect x="235.022" y="65.816" fill="#DDF1F6" width="34.963" height="39.336"/>
	<rect x="200.057" y="26.482" fill="#557F8D" width="4.37" height="8.741"/>
	<rect x="208.797" y="26.482" fill="#557F8D" width="4.372" height="8.741"/>
	<rect x="217.539" y="26.482" fill="#557F8D" width="4.371" height="8.741"/>
	<rect x="226.28" y="26.482" fill="#557F8D" width="4.37" height="8.741"/>
	<rect x="200.057" y="39.594" fill="#557F8D" width="4.37" height="8.741"/>
	<rect x="208.797" y="39.594" fill="#557F8D" width="4.372" height="8.741"/>
	<rect x="217.539" y="39.594" fill="#557F8D" width="4.371" height="8.741"/>
	<rect x="226.28" y="39.594" fill="#557F8D" width="4.37" height="8.741"/>
	<rect x="200.057" y="52.706" fill="#557F8D" width="4.37" height="8.742"/>
	<rect x="208.797" y="52.706" fill="#557F8D" width="4.372" height="8.742"/>
	<rect x="217.539" y="52.706" fill="#557F8D" width="4.371" height="8.742"/>
	<rect x="226.28" y="52.706" fill="#557F8D" width="4.37" height="8.742"/>
	<rect x="200.057" y="65.816" fill="#557F8D" width="4.37" height="8.742"/>
	<rect x="208.797" y="65.816" fill="#557F8D" width="4.372" height="8.742"/>
	<rect x="217.539" y="65.816" fill="#557F8D" width="4.371" height="8.742"/>
	<rect x="226.28" y="65.816" fill="#557F8D" width="4.37" height="8.742"/>
	<rect x="202.241" y="78.819" fill="#3E92C9" width="26.225" height="4.369"/>
	<rect x="235.022" y="70.188" fill="#557F8D" width="30.595" height="4.371"/>
	<rect x="235.022" y="78.929" fill="#557F8D" width="30.595" height="4.37"/>
	<rect x="235.022" y="87.67" fill="#557F8D" width="30.595" height="4.371"/>
	<rect x="235.022" y="96.412" fill="#557F8D" width="30.595" height="4.371"/>
	<rect x="208.797" y="17.74" fill="#FFFFFF" width="2.187" height="4.37"/>
	<rect x="208.797" y="17.74" opacity="0.2" fill="#010101" width="2.187" height="2.186"/>
	<rect x="219.724" y="17.74" fill="#FFFFFF" width="2.187" height="4.37"/>
	<rect x="206.613" y="0.258" fill="#FFFFFF" width="17.482" height="17.482"/>
	<rect x="206.613" y="85.483" fill="#557F8D" width="17.482" height="17.483"/>
	<polygon fill="#3E92C9" points="217.54,2.443 217.54,7.361 213.169,7.361 213.169,7.361 213.169,2.443 208.797,2.443 
		208.797,15.555 213.169,15.555 213.169,10.638 213.169,10.638 217.54,10.638 217.54,15.555 221.91,15.555 221.91,2.443 	"/>
	<polygon opacity="0.2" fill="#010101" points="239.392,65.816 235.022,65.816 235.022,105.152 239.392,105.152 243.762,105.152 
		243.762,65.816 	"/>
	<rect x="214.807" y="85.483" fill="#DDF1F6" width="1.094" height="17.483"/>
	<rect x="202.241" y="102.966" fill="#BADBDB" width="26.225" height="2.186"/>
	<g>
		<path fill="#DDF1F6" d="M218.095,95.873h-3.296v-3.295h3.296V95.873z M215.908,94.764h1.076v-1.076h-1.076V94.764z"/>
	</g>
	<g>
		<path fill="#DDF1F6" d="M215.908,95.873h-3.296v-3.295h3.296V95.873z M213.724,94.764h1.075v-1.076h-1.075V94.764z"/>
	</g>
	<polygon opacity="0.2" fill="#010101" points="235.022,94.375 235.022,105.152 228.466,105.152 228.466,102.966 213.773,102.966 
		202.241,83.181 228.466,83.188 	"/>
	<rect x="219.724" y="17.74" opacity="0.2" fill="#010101" width="2.187" height="2.186"/>
	<rect x="215.999" y="105.154" fill="#86888C" width="43.582" height="6.575"/>
	<g>
		<g>
			<path fill="#557F8D" d="M224.201,99.161c0,0,4.277-4.82,5.949-6.413c1.566-1.494,11.403-0.865,11.403-0.865l8.802,0.23
				l8.679,0.046v7.001h-8.741h-8.739l0,0l0,0H224.201z"/>
			<rect x="236.091" y="88.238" fill="#4CA3DA" width="2.185" height="2.187"/>
			<path fill="#FFFFFF" d="M224.559,97.594c-0.183,0.214-0.338,0.411-0.479,0.589c-0.402,0.51-0.684,0.874-1.076,1.067
				c-0.362,0.178-0.698,0.347-1.021,0.508c-5.445,2.763-5.181,3.406-5.181,9.241l8.293-1.105c0,0,17.258,0.358,17.259,0.358
				l17.229,0.747v-9.838v-6.534c0-0.613-0.497-1.111-1.111-1.111c-5.175,0-26.692,0-26.743,0c-0.006,0-0.016,0-0.021,0
				C229.361,91.516,228.715,92.704,224.559,97.594z M232.281,99.161h-7.563c0.064-0.08,0.13-0.161,0.195-0.245l0.035-0.045
				c0.145-0.182,0.286-0.36,0.456-0.559c0.538-0.634,1.018-1.206,1.451-1.721c2.95-3.517,3.41-3.964,4.85-3.964h0.56h0.031
				L232.281,99.161z M241.006,99.161h-7.615l0.017-6.553h7.599V99.161z M249.747,99.161H242.1v-6.553h7.647V99.161z M250.838,99.161
				v-6.553h7.65v6.553H250.838z"/>
			<path fill="#6B6C6C" d="M222.884,105.176c-0.708,0.694-1.148,1.66-1.148,2.73c0,0.38,0.057,0.747,0.16,1.093h-5.896v-3.823
				H222.884z"/>
			<path fill="#6B6C6C" d="M249.007,107.906c0,0.38,0.057,0.747,0.16,1.093h-21.783c0.104-0.346,0.161-0.713,0.161-1.093H249.007z"
				/>
			<path fill="#575858" d="M220.377,107.905c0-2.111,1.714-3.823,3.824-3.823c2.111,0,3.822,1.712,3.822,3.823
				c0,0.379-0.057,0.746-0.16,1.092h-7.324C220.436,108.651,220.377,108.284,220.377,107.905z"/>
			<path fill="#575858" d="M248.658,107.906c0-2.111,1.712-3.823,3.822-3.823s3.823,1.712,3.823,3.823
				c0,0.38-0.059,0.747-0.161,1.093h-7.325C248.714,108.653,248.658,108.286,248.658,107.906z"/>
			<circle fill="#6B6C6C" cx="224.201" cy="107.905" r="2.731"/>
			<circle fill="#FFFFFF" cx="224.201" cy="107.905" r="1.092"/>
			<circle fill="#6B6C6C" cx="252.479" cy="107.906" r="2.729"/>
			<path fill="#6B6C6C" d="M255.153,105.176h4.428v3.823h-3.438c0.103-0.346,0.161-0.713,0.161-1.093
				C256.304,106.836,255.861,105.87,255.153,105.176z"/>
			<circle fill="#FFFFFF" cx="252.48" cy="107.906" r="1.092"/>
			<rect x="236.091" y="90.424" fill="#FFFFFF" width="2.185" height="1.092"/>
			<g>
				<circle fill="#F16465" cx="237.183" cy="104.082" r="2.73"/>
				<rect x="236.637" y="102.445" fill="#FFFFFF" width="1.092" height="3.276"/>
				<rect x="235.545" y="103.536" fill="#FFFFFF" width="3.277" height="1.093"/>
			</g>
		</g>
		<g>
			<path fill="#FFFFFF" d="M249.007,92.608c0.408,0,0.74,0.333,0.74,0.741v5.073c0,0.409-0.332,0.739-0.74,0.739h-6.168
				c-0.408,0-0.739-0.331-0.739-0.739v-5.073c0-0.408,0.331-0.741,0.739-0.741H249.007L249.007,92.608z M249.007,91.869h-6.168
				c-0.816,0-1.48,0.665-1.48,1.48v5.073c0,0.815,0.664,1.48,1.48,1.48h6.168c0.816,0,1.479-0.666,1.479-1.48v-5.073
				C250.486,92.534,249.823,91.869,249.007,91.869L249.007,91.869z"/>
		</g>
		<g>
			<path fill="#FFFFFF" d="M240.267,92.608c0.408,0,0.739,0.333,0.739,0.741v5.073c0,0.409-0.331,0.739-0.739,0.739H234.1
				c-0.408,0-0.741-0.331-0.741-0.739v-5.073c0-0.408,0.333-0.741,0.741-0.741H240.267L240.267,92.608z M240.267,91.869H234.1
				c-0.815,0-1.48,0.665-1.48,1.48v5.073c0,0.815,0.665,1.48,1.48,1.48h6.167c0.815,0,1.48-0.666,1.48-1.48v-5.073
				C241.747,92.534,241.082,91.869,240.267,91.869L240.267,91.869z"/>
		</g>
		<path fill="#FFFFFF" d="M231.547,91.869h-0.219v0.739h0.219c0.408,0,0.739,0.333,0.739,0.741v5.073
			c0,0.409-0.331,0.739-0.739,0.739h-0.219v0.741h0.219c0.816,0,1.481-0.666,1.481-1.48v-5.073
			C233.028,92.534,232.363,91.869,231.547,91.869z"/>
		<g>
			<path fill="#FFFFFF" d="M257.722,92.608c0.408,0,0.74,0.333,0.74,0.741v5.073c0,0.409-0.332,0.739-0.74,0.739h-6.167
				c-0.408,0-0.741-0.331-0.741-0.739v-5.073c0-0.408,0.333-0.741,0.741-0.741H257.722L257.722,92.608z M257.722,91.869h-6.167
				c-0.817,0-1.48,0.665-1.48,1.48v5.073c0,0.815,0.663,1.48,1.48,1.48h6.167c0.816,0,1.479-0.666,1.479-1.48v-5.073
				C259.201,92.534,258.538,91.869,257.722,91.869L257.722,91.869z"/>
		</g>
	</g>
</g>
<g>
	<g>
		<polygon fill="#B6D5DB" points="110.421,143.054 75.45,125.571 75.45,125.571 75.45,230.273 110.421,230.273 		"/>
		<rect x="40.503" y="160.436" fill="#B6D5DB" width="17.486" height="69.804"/>
		<polygon fill="#B6D5DB" points="145.389,160.436 136.624,151.421 127.904,160.438 127.904,230.239 145.389,230.239 		"/>
		<rect x="110.421" y="195.404" fill="#BFDEE6" width="17.485" height="34.834"/>
		<polygon fill="#B6D5DB" points="75.474,177.92 66.731,168.91 57.989,177.922 57.989,230.239 75.474,230.239 		"/>
	</g>
	<g>
		<path fill="#86CEE5" d="M113.297,204.045h-1.093v-1.081c0-0.343-0.279-0.621-0.621-0.621c-0.342,0-0.621,0.278-0.621,0.621h-1.093
			c0-0.947,0.769-1.714,1.713-1.714c0.945,0,1.713,0.767,1.713,1.714V204.045z"/>
	</g>
	<g>
		<path fill="#86CEE5" d="M108.628,204.045h-1.092v-1.081c0-0.947,0.768-1.714,1.713-1.714c0.945,0,1.713,0.767,1.713,1.714h-1.093
			c0-0.343-0.278-0.621-0.621-0.621s-0.621,0.278-0.621,0.621V204.045z"/>
	</g>
	<rect x="109.324" y="208.415" fill="#FEFAD6" width="2.186" height="4.372"/>
	<rect x="108.231" y="205.138" fill="#FEFAD6" width="4.372" height="1.094"/>
	<rect x="107.138" y="204.045" fill="#FEFAD6" width="6.559" height="1.093"/>
	<rect x="108.23" y="205.138" opacity="0.2" fill="#010101" width="4.373" height="0.639"/>
	<path fill="#FEFAD6" d="M110.417,206.231h-2.187c0,0,1.094,0.464,1.094,2.186h1.093h1.092c0-1.722,1.093-2.186,1.093-2.186H110.417
		z"/>
	<rect x="109.87" y="202.94" fill="#FEFAD6" width="1.094" height="1.097"/>
	<rect x="108.778" y="204.037" fill="#86CEE5" width="1.092" height="8.75"/>
	<rect x="110.963" y="204.037" fill="#86CEE5" width="1.092" height="8.75"/>
	<rect x="67.635" y="224.828" fill="#575858" width="20.058" height="1.091"/>
	<rect x="66.2" y="224.28" fill="#717171" width="2.186" height="5.997"/>
	<rect x="66.2" y="215.885" fill="#575858" width="2.186" height="8.382"/>
	<rect x="86.938" y="215.885" fill="#575858" width="2.186" height="8.382"/>
	<rect x="86.938" y="224.267" fill="#717171" width="2.186" height="6.011"/>
	<rect x="40.482" y="230.253" fill="#39A84A" width="104.907" height="4.372"/>
	<rect x="64.551" y="212.787" fill="#7D5C25" width="26.22" height="4.372"/>
	<rect x="64.551" y="218.271" fill="#7D5C25" width="26.22" height="4.37"/>
	<rect x="64.557" y="223.735" fill="#7D5C25" width="26.215" height="1.093"/>
	<rect x="103.885" y="212.787" fill="#FFF0D0" width="13.063" height="4.372"/>
	<rect x="103.885" y="214.972" opacity="0.2" fill="#010101" width="13.063" height="1.094"/>
	<rect x="102.792" y="212.787" fill="#FEFAD6" width="15.25" height="2.188"/>
	<path fill="#FFF0D0" d="M112.575,221.533c0-2.417,1.958-4.374,4.374-4.374h-13.063c2.415,0,4.373,1.957,4.373,4.374
		c0,2.415-1.958,4.372-4.373,4.372h13.063C114.533,225.905,112.575,223.948,112.575,221.533z"/>
	<path opacity="0.2" fill="#010101" d="M112.576,221.533c0-2.417,1.958-4.374,4.373-4.374h-13.063c2.415,0,4.373,1.957,4.373,4.374
		H112.576z"/>
	<rect x="99.514" y="225.905" fill="#FEFAD6" width="21.806" height="4.372"/>
	<rect x="113.696" y="212.787" fill="#86CEE5" width="2.186" height="13.132"/>
	<g>
		<path fill="#FFFFFF" d="M112.039,212.787h-1.11c0-1.496,1.218-2.715,2.716-2.715v1.111
			C112.759,211.184,112.039,211.903,112.039,212.787z"/>
	</g>
	<g>
		<path fill="#FFFFFF" d="M115.896,225.919h-1.11c0-1.495,1.218-2.714,2.714-2.714v1.109
			C116.616,224.314,115.896,225.035,115.896,225.919z"/>
	</g>
	<g>
		<path fill="#FFFFFF" d="M112.039,212.787h-1.11c0-0.453-0.195-0.884-0.525-1.187c-0.329,0.303-0.524,0.733-0.524,1.187h-1.111
			c0-0.965,0.521-1.867,1.359-2.351l0.278-0.159l0.278,0.159C111.52,210.922,112.039,211.822,112.039,212.787z"/>
	</g>
	<g>
		<path fill="#FFFFFF" d="M109.879,212.787h-1.111c0-0.884-0.72-1.604-1.604-1.604v-1.111
			C108.662,210.072,109.879,211.291,109.879,212.787z"/>
	</g>
	<rect x="104.978" y="212.787" fill="#86CEE5" width="2.185" height="13.132"/>
	<rect x="111.509" y="212.787" fill="#86CEE5" width="1.093" height="13.132"/>
	<circle fill="#FFFFFF" cx="119.135" cy="223.765" r="0.546"/>
	<path fill="#FFFFFF" d="M102.272,223.737c0-0.303-0.245-0.549-0.546-0.549c-0.301,0-0.546,0.246-0.546,0.549
		c0,0.3,0.245,0.543,0.546,0.543C102.027,224.28,102.272,224.037,102.272,223.737z"/>
	<circle fill="#FFFFFF" cx="115.282" cy="210.603" r="0.546"/>
	<circle fill="#FFFFFF" cx="105.524" cy="210.628" r="0.546"/>
	<g>
		<path fill="#FFFFFF" d="M114.771,225.919h-1.111c0-0.452-0.195-0.884-0.523-1.186c-0.331,0.302-0.526,0.733-0.526,1.186h-1.11
			c0-0.964,0.521-1.866,1.358-2.35l0.278-0.161l0.278,0.161C114.251,224.053,114.771,224.955,114.771,225.919z"/>
	</g>
	<g>
		<path fill="#FFFFFF" d="M112.585,225.919h-1.111c0-0.884-0.719-1.604-1.604-1.604v-1.109
			C111.367,223.205,112.585,224.424,112.585,225.919z"/>
	</g>
	<g>
		<path fill="#FFFFFF" d="M106.08,225.926h-1.111c0-0.887-0.72-1.605-1.605-1.605v-1.111
			C104.861,223.209,106.08,224.43,106.08,225.926z"/>
	</g>
	<g>
		<path fill="#FFFFFF" d="M107.172,225.919h-1.111c0-1.495,1.219-2.714,2.716-2.714v1.109
			C107.892,224.314,107.172,225.035,107.172,225.919z"/>
	</g>
	<g>
		<rect x="68.633" y="210.523" fill="#F4A355" width="0.547" height="2.264"/>
		<polygon fill="#F4A355" points="69.18,212.241 69.18,212.787 69.746,212.787 		"/>
		
			<rect x="68.487" y="208.56" transform="matrix(0.5 -0.866 0.866 0.5 -146.7737 165.0764)" fill="#67A0D6" width="2.185" height="2.186"/>
		
			<rect x="66.994" y="208.96" transform="matrix(0.4998 -0.8661 0.8661 0.4998 -147.8767 164.0317)" fill="#67A0D6" width="2.186" height="2.187"/>
		<polygon fill="#F4A355" points="72.166,208.707 71.073,208.161 71.073,209.252 		"/>
		<circle fill="#67A0D6" cx="70.126" cy="208.707" r="1.093"/>
		<circle fill="#67A0D6" cx="69.033" cy="210.599" r="1.092"/>
		<circle fill="#010101" cx="70.126" cy="208.707" r="0.272"/>
	</g>
	<g>
		<rect x="95.626" y="174.948" fill="#ED6E61" width="2.186" height="2.188"/>
		<polygon fill="#F4A355" points="93.605,176.042 94.698,175.496 94.698,176.589 		"/>
		<circle fill="#ED6E61" cx="95.627" cy="176.042" r="1.093"/>
		<circle fill="#ED6E61" cx="97.812" cy="176.042" r="1.092"/>
		<circle fill="#010101" cx="95.626" cy="176.042" r="0.272"/>
		<rect x="97.813" y="177.137" fill="#F4A355" width="1.094" height="0.546"/>
		<path fill="#D56457" d="M96.042,174.947c0,0,0-1.581,0-2.185c0-0.604,0.489-1.094,1.093-1.094h1.093v3.278H96.042z"/>
		<path fill="#ED6E61" d="M96.866,174.947c0,0,0-1.581,0-2.185c0-0.604,0.489-1.094,1.093-1.094h1.093v3.278H96.866z"/>
		<path fill="#F4A355" d="M97.813,177.683c0,0.302,0.244,0.546,0.546,0.546v-0.546H97.813z"/>
		<polygon fill="#ED6E61" points="99.052,177.133 99.052,174.949 101.236,174.949 		"/>
		<rect x="96.866" y="174.947" fill="#ED6E61" width="2.186" height="2.186"/>
	</g>
	<circle fill="#39A84A" cx="137.726" cy="212.765" r="7.663"/>
	<rect x="130.063" y="182.109" fill="#39A84A" width="15.327" height="30.655"/>
	<g>
		<path fill="#7D5C25" d="M137.726,217.707c-2.725,0-4.942-2.217-4.942-4.942v-8.42h2.222v8.42c0,1.501,1.22,2.721,2.721,2.721
			c1.501,0,2.722-1.22,2.722-2.721v-7.248h2.221v7.248C142.668,215.49,140.452,217.707,137.726,217.707z"/>
	</g>
	<rect x="136.632" y="210.575" fill="#7D5C25" width="2.186" height="19.678"/>
	<rect x="134.447" y="228.069" fill="#FFFFFF" width="6.557" height="2.184"/>
	<circle fill="#4BB855" cx="137.726" cy="205.103" r="7.663"/>
	<path fill="#4BB855" d="M145.389,182.109c0-4.231-3.43-7.66-7.664-7.66c-4.232,0-7.663,3.429-7.663,7.66
		c0,4.233,3.431,7.665,7.663,7.665C141.959,189.774,145.389,186.343,145.389,182.109z"/>
	<rect x="130.063" y="182.109" fill="#4BB855" width="15.327" height="22.993"/>
	<path fill="#39A84A" d="M139.918,206.741c-0.603,0-1.092,0.487-1.092,1.092v1.092c0,0.604,0.489,1.093,1.092,1.093
		c0.604,0,1.092-0.489,1.092-1.093v-1.092C141.011,207.229,140.522,206.741,139.918,206.741z"/>
	<path fill="#39A84A" d="M133.348,193.582c-0.604,0-1.093,0.488-1.093,1.092v1.092c0,0.604,0.489,1.094,1.093,1.094
		c0.603,0,1.092-0.49,1.092-1.094v-1.092C134.44,194.07,133.951,193.582,133.348,193.582z"/>
	<path fill="#39A84A" d="M139.918,177.195c-0.603,0-1.092,0.487-1.092,1.092v1.091c0,0.604,0.489,1.094,1.092,1.094
		c0.604,0,1.092-0.489,1.092-1.094v-1.091C141.011,177.683,140.522,177.195,139.918,177.195z"/>
	<path fill="#60BC5D" d="M139.918,187.027c-0.603,0-1.092,0.487-1.092,1.092v1.093c0,0.602,0.489,1.092,1.092,1.092
		c0.604,0,1.092-0.49,1.092-1.092v-1.093C141.011,187.515,140.522,187.027,139.918,187.027z"/>
	<path fill="#60BC5D" d="M142.104,196.939c-0.603,0-1.093,0.489-1.093,1.094v1.091c0,0.604,0.49,1.093,1.093,1.093
		c0.603,0,1.092-0.488,1.092-1.093v-1.091C143.196,197.429,142.707,196.939,142.104,196.939z"/>
	<path fill="#60BC5D" d="M142.104,190.304c-0.603,0-1.093,0.489-1.093,1.094v1.092c0,0.604,0.49,1.093,1.093,1.093
		c0.603,0,1.092-0.489,1.092-1.093v-1.092C143.196,190.793,142.707,190.304,142.104,190.304z"/>
	<path fill="#60BC5D" d="M137.726,180.472c-0.603,0-1.093,0.489-1.093,1.094v1.092c0,0.604,0.49,1.091,1.093,1.091
		s1.093-0.486,1.093-1.091v-1.092C138.818,180.961,138.329,180.472,137.726,180.472z"/>
	<path fill="#60BC5D" d="M142.104,180.472c-0.603,0-1.093,0.489-1.093,1.094v1.092c0,0.604,0.49,1.091,1.093,1.091
		c0.603,0,1.092-0.486,1.092-1.091v-1.092C143.196,180.961,142.707,180.472,142.104,180.472z"/>
	<path fill="#60BC5D" d="M135.533,177.195c-0.603,0-1.093,0.487-1.093,1.092v1.091c0,0.604,0.49,1.094,1.093,1.094
		c0.603,0,1.092-0.489,1.092-1.094v-1.091C136.625,177.683,136.135,177.195,135.533,177.195z"/>
	<path fill="#60BC5D" d="M137.726,193.582c-0.603,0-1.093,0.488-1.093,1.092v1.092c0,0.604,0.49,1.094,1.093,1.094
		s1.093-0.49,1.093-1.094v-1.092C138.818,194.07,138.329,193.582,137.726,193.582z"/>
	<path fill="#60BC5D" d="M133.348,183.748c-0.604,0-1.093,0.49-1.093,1.095v1.091c0,0.604,0.489,1.094,1.093,1.094
		c0.603,0,1.092-0.489,1.092-1.094v-1.091C134.44,184.238,133.951,183.748,133.348,183.748z"/>
	<path fill="#60BC5D" d="M133.348,196.939c-0.604,0-1.093,0.489-1.093,1.094v1.091c0,0.604,0.489,1.093,1.093,1.093
		c0.603,0,1.092-0.488,1.092-1.093v-1.091C134.44,197.429,133.951,196.939,133.348,196.939z"/>
	<path fill="#60BC5D" d="M135.533,206.741c-0.603,0-1.093,0.487-1.093,1.092v1.092c0,0.604,0.49,1.093,1.093,1.093
		c0.603,0,1.092-0.489,1.092-1.093v-1.092C136.625,207.229,136.135,206.741,135.533,206.741z"/>
	<path fill="#39A84A" d="M142.104,183.748c-0.603,0-1.093,0.49-1.093,1.095v1.091c0,0.604,0.49,1.094,1.093,1.094
		c0.603,0,1.092-0.489,1.092-1.094v-1.091C143.196,184.238,142.707,183.748,142.104,183.748z"/>
	<path fill="#39A84A" d="M133.348,187.027c-0.604,0-1.093,0.487-1.093,1.092v1.093c0,0.602,0.489,1.092,1.093,1.092
		c0.603,0,1.092-0.49,1.092-1.092v-1.093C134.44,187.515,133.951,187.027,133.348,187.027z"/>
	<path fill="#39A84A" d="M133.348,203.462c-0.604,0-1.093,0.49-1.093,1.095v1.091c0,0.603,0.489,1.094,1.093,1.094
		c0.603,0,1.092-0.491,1.092-1.094v-1.091C134.44,203.952,133.951,203.462,133.348,203.462z"/>
	<path fill="#39A84A" d="M142.104,193.582c-0.603,0-1.093,0.488-1.093,1.092v1.092c0,0.604,0.49,1.094,1.093,1.094
		c0.603,0,1.092-0.49,1.092-1.094v-1.092C143.196,194.07,142.707,193.582,142.104,193.582z"/>
	<path fill="#39A84A" d="M139.918,200.217c-0.603,0-1.092,0.488-1.092,1.093v1.094c0,0.603,0.489,1.092,1.092,1.092
		c0.604,0,1.092-0.489,1.092-1.092v-1.094C141.011,200.705,140.522,200.217,139.918,200.217z"/>
	<path fill="#39A84A" d="M135.533,200.157c-0.603,0-1.093,0.488-1.093,1.093v1.091c0,0.604,0.49,1.094,1.093,1.094
		c0.603,0,1.092-0.49,1.092-1.094v-1.091C136.625,200.646,136.135,200.157,135.533,200.157z"/>
	<path fill="#39A84A" d="M135.533,190.304c-0.603,0-1.093,0.489-1.093,1.094v1.092c0,0.604,0.49,1.093,1.093,1.093
		c0.603,0,1.092-0.489,1.092-1.093v-1.092C136.625,190.793,136.135,190.304,135.533,190.304z"/>
	<path fill="#39A84A" d="M137.726,183.748c-0.603,0-1.093,0.49-1.093,1.095v1.091c0,0.604,0.49,1.094,1.093,1.094
		s1.093-0.489,1.093-1.094v-1.091C138.818,184.238,138.329,183.748,137.726,183.748z"/>
	<path fill="#39A84A" d="M142.104,203.462c-0.603,0-1.093,0.49-1.093,1.095v1.091c0,0.603,0.49,1.094,1.093,1.094
		c0.603,0,1.092-0.491,1.092-1.094v-1.091C143.196,203.952,142.707,203.462,142.104,203.462z"/>
	<circle fill="#39A84A" cx="48.146" cy="212.765" r="7.664"/>
	<rect x="40.482" y="182.109" fill="#39A84A" width="15.327" height="30.655"/>
	<g>
		<path fill="#7D5C25" d="M48.146,217.707c-2.726,0-4.942-2.217-4.942-4.942v-8.42h2.221v8.42c0,1.501,1.22,2.721,2.721,2.721
			c1.5,0,2.721-1.22,2.721-2.721v-7.248h2.221v7.248C53.088,215.49,50.871,217.707,48.146,217.707z"/>
	</g>
	<rect x="47.053" y="210.575" fill="#7D5C25" width="2.186" height="19.678"/>
	<rect x="44.867" y="228.069" fill="#FFFFFF" width="6.557" height="2.184"/>
	<circle fill="#4BB855" cx="48.146" cy="205.103" r="7.664"/>
	<path fill="#4BB855" d="M55.809,182.109c0-4.231-3.431-7.66-7.664-7.66c-4.232,0-7.664,3.429-7.664,7.66
		c0,4.233,3.432,7.665,7.664,7.665C52.378,189.774,55.809,186.343,55.809,182.109z"/>
	<rect x="40.482" y="182.109" fill="#4BB855" width="15.327" height="22.993"/>
	<path fill="#39A84A" d="M50.338,206.741c-0.603,0-1.092,0.487-1.092,1.092v1.092c0,0.604,0.489,1.093,1.092,1.093
		c0.603,0,1.093-0.489,1.093-1.093v-1.092C51.431,207.229,50.941,206.741,50.338,206.741z"/>
	<path fill="#39A84A" d="M43.767,183.748c-0.603,0-1.092,0.49-1.092,1.095v1.091c0,0.604,0.49,1.094,1.092,1.094
		c0.603,0,1.093-0.489,1.093-1.094v-1.091C44.86,184.238,44.37,183.748,43.767,183.748z"/>
	<path fill="#39A84A" d="M52.523,180.472c-0.603,0-1.092,0.489-1.092,1.094v1.092c0,0.604,0.489,1.091,1.092,1.091
		s1.092-0.486,1.092-1.091v-1.092C53.616,180.961,53.126,180.472,52.523,180.472z"/>
	<path fill="#39A84A" d="M48.153,187.027c-0.603,0-1.092,0.487-1.092,1.092v1.093c0,0.602,0.49,1.092,1.092,1.092
		c0.604,0,1.093-0.49,1.093-1.092v-1.093C49.246,187.515,48.756,187.027,48.153,187.027z"/>
	<path fill="#60BC5D" d="M50.338,190.304c-0.603,0-1.092,0.489-1.092,1.094v1.092c0,0.604,0.489,1.093,1.092,1.093
		c0.603,0,1.093-0.489,1.093-1.093v-1.092C51.431,190.793,50.941,190.304,50.338,190.304z"/>
	<path fill="#60BC5D" d="M43.767,193.582c-0.603,0-1.092,0.488-1.092,1.092v1.092c0,0.604,0.49,1.094,1.092,1.094
		c0.603,0,1.093-0.49,1.093-1.094v-1.092C44.86,194.07,44.37,193.582,43.767,193.582z"/>
	<path fill="#60BC5D" d="M45.953,183.748c-0.604,0-1.093,0.49-1.093,1.095v1.091c0,0.604,0.489,1.094,1.093,1.094
		c0.603,0,1.092-0.489,1.092-1.094v-1.091C47.045,184.238,46.556,183.748,45.953,183.748z"/>
	<path fill="#60BC5D" d="M48.153,177.195c-0.603,0-1.092,0.487-1.092,1.092v1.091c0,0.604,0.49,1.094,1.092,1.094
		c0.604,0,1.093-0.489,1.093-1.094v-1.091C49.246,177.683,48.756,177.195,48.153,177.195z"/>
	<path fill="#60BC5D" d="M52.523,183.748c-0.603,0-1.092,0.49-1.092,1.095v1.091c0,0.604,0.489,1.094,1.092,1.094
		s1.092-0.489,1.092-1.094v-1.091C53.616,184.238,53.126,183.748,52.523,183.748z"/>
	<path fill="#60BC5D" d="M52.523,200.193c-0.603,0-1.092,0.49-1.092,1.093v1.093c0,0.603,0.489,1.092,1.092,1.092
		s1.092-0.489,1.092-1.092v-1.093C53.616,200.684,53.126,200.193,52.523,200.193z"/>
	<path fill="#60BC5D" d="M43.767,187.027c-0.603,0-1.092,0.487-1.092,1.092v1.093c0,0.602,0.49,1.092,1.092,1.092
		c0.603,0,1.093-0.49,1.093-1.092v-1.093C44.86,187.515,44.37,187.027,43.767,187.027z"/>
	<path fill="#60BC5D" d="M50.338,196.916c-0.603,0-1.092,0.488-1.092,1.093v1.092c0,0.604,0.489,1.093,1.092,1.093
		c0.603,0,1.093-0.488,1.093-1.093v-1.092C51.431,197.404,50.941,196.916,50.338,196.916z"/>
	<path fill="#60BC5D" d="M43.767,200.193c-0.603,0-1.092,0.49-1.092,1.093v1.093c0,0.603,0.49,1.092,1.092,1.092
		c0.603,0,1.093-0.489,1.093-1.092v-1.093C44.86,200.684,44.37,200.193,43.767,200.193z"/>
	<path fill="#60BC5D" d="M45.953,206.741c-0.604,0-1.093,0.487-1.093,1.092v1.092c0,0.604,0.489,1.093,1.093,1.093
		c0.603,0,1.092-0.489,1.092-1.093v-1.092C47.045,207.229,46.556,206.741,45.953,206.741z"/>
	<path fill="#60BC5D" d="M48.153,193.582c-0.603,0-1.092,0.488-1.092,1.092v1.092c0,0.604,0.49,1.094,1.092,1.094
		c0.604,0,1.093-0.49,1.093-1.094v-1.092C49.246,194.07,48.756,193.582,48.153,193.582z"/>
	<path fill="#39A84A" d="M52.523,187.027c-0.603,0-1.092,0.487-1.092,1.092v1.093c0,0.602,0.489,1.092,1.092,1.092
		s1.092-0.49,1.092-1.092v-1.093C53.616,187.515,53.126,187.027,52.523,187.027z"/>
	<path fill="#39A84A" d="M48.153,180.472c-0.603,0-1.092,0.489-1.092,1.094v1.092c0,0.604,0.49,1.091,1.092,1.091
		c0.604,0,1.093-0.486,1.093-1.091v-1.092C49.246,180.961,48.756,180.472,48.153,180.472z"/>
	<path fill="#39A84A" d="M45.953,196.916c-0.604,0-1.093,0.488-1.093,1.093v1.092c0,0.604,0.489,1.093,1.093,1.093
		c0.603,0,1.092-0.488,1.092-1.093v-1.092C47.045,197.404,46.556,196.916,45.953,196.916z"/>
	<path fill="#39A84A" d="M48.153,203.462c-0.603,0-1.092,0.49-1.092,1.095v1.091c0,0.603,0.49,1.094,1.092,1.094
		c0.604,0,1.093-0.491,1.093-1.094v-1.091C49.246,203.952,48.756,203.462,48.153,203.462z"/>
	<path fill="#39A84A" d="M43.767,203.462c-0.603,0-1.092,0.49-1.092,1.095v1.091c0,0.603,0.49,1.094,1.092,1.094
		c0.603,0,1.093-0.491,1.093-1.094v-1.091C44.86,203.952,44.37,203.462,43.767,203.462z"/>
	<path fill="#39A84A" d="M52.523,193.582c-0.603,0-1.092,0.488-1.092,1.092v1.092c0,0.604,0.489,1.094,1.092,1.094
		s1.092-0.49,1.092-1.094v-1.092C53.616,194.07,53.126,193.582,52.523,193.582z"/>
	<path fill="#39A84A" d="M52.523,203.462c-0.603,0-1.092,0.49-1.092,1.095v1.091c0,0.603,0.489,1.094,1.092,1.094
		s1.092-0.491,1.092-1.094v-1.091C53.616,203.952,53.126,203.462,52.523,203.462z"/>
	<path fill="#39A84A" d="M45.953,190.304c-0.604,0-1.093,0.489-1.093,1.094v1.092c0,0.604,0.489,1.093,1.093,1.093
		c0.603,0,1.092-0.489,1.092-1.093v-1.092C47.045,190.793,46.556,190.304,45.953,190.304z"/>
	<path fill="#39A84A" d="M45.953,177.195c-0.604,0-1.093,0.487-1.093,1.092v1.091c0,0.604,0.489,1.094,1.093,1.094
		c0.603,0,1.092-0.489,1.092-1.094v-1.091C47.045,177.683,46.556,177.195,45.953,177.195z"/>
</g>
<g>
	<polygon fill="#B15F52" points="233.822,151.611 178.659,151.611 178.659,190.95 178.659,230.289 287.957,230.289 287.957,230.289 
		287.957,151.611 	"/>
	<polygon opacity="0.2" fill="#010101" points="255.16,160.36 255.16,163.977 255.706,163.964 255.706,161.308 	"/>
	<rect x="178.646" y="212.803" fill="#FFFFFF" width="8.742" height="4.373"/>
	<rect x="178.646" y="204.063" fill="#FFFFFF" width="8.742" height="4.37"/>
	<rect x="178.646" y="195.32" fill="#FFFFFF" width="8.742" height="4.371"/>
	<rect x="178.646" y="186.578" fill="#FFFFFF" width="8.742" height="4.37"/>
	<rect x="178.646" y="177.835" fill="#FFFFFF" width="8.742" height="4.373"/>
	<rect x="178.646" y="169.094" fill="#FFFFFF" width="8.742" height="4.372"/>
	<rect x="178.646" y="160.351" fill="#FFFFFF" width="8.742" height="4.373"/>
	<rect x="176.616" y="151.611" fill="#FFFFFF" width="112.447" height="4.369"/>
	<rect x="178.659" y="155.98" opacity="0.2" fill="#010101" width="109.298" height="2.188"/>
	<rect x="177.553" y="221.548" fill="#9A5347" width="111.511" height="8.741"/>
	<polygon opacity="0.2" fill="#010101" points="248.936,230.289 246.423,230.289 246.423,225.917 	"/>
	<rect x="239.132" y="230.289" fill="#7A7E83" width="46.635" height="4.371"/>
	<rect x="224.564" y="203.516" fill="#C69E34" width="8.197" height="22.401"/>
	<rect x="232.762" y="203.516" fill="#C69E34" width="9.289" height="22.401"/>
	<rect x="220.194" y="225.917" fill="#FFFFFF" width="21.856" height="4.372"/>
	<rect x="242.051" y="225.917" fill="#FFFFFF" width="4.372" height="4.372"/>
	<polygon fill="#FFFFFF" points="222.381,201.332 222.381,225.917 224.564,225.917 224.564,203.52 224.564,203.52 242.051,203.52 
		242.051,225.917 244.236,225.917 244.236,201.332 	"/>
	<rect x="224.564" y="227.012" opacity="0.2" fill="#010101" width="17.484" height="1.091"/>
	<rect x="231.669" y="213.623" fill="#FEDA03" width="1.093" height="2.187"/>
	<rect x="233.854" y="213.623" fill="#FEDA03" width="1.093" height="2.187"/>
	<g opacity="0.2">
		<path fill="#010101" d="M237.817,170.877l-1.051-1.053c-1.374,1.378-2.909,0-2.909,0s-1.539,1.378-2.912,0l-1.051,1.053
			c0,0,1.619,1.262,0.514,2.864c-0.8,1.162-0.944,1.867-0.918,2.37c0.092,1.718,1.153,2.874,2.864,3.283
			c0.37,0.091,1.136,0.262,1.403,0.656c0.102,0.146,0.095,0.146,0.196,0c0.27-0.395,1.033-0.565,1.403-0.656
			c1.711-0.409,2.771-1.565,2.866-3.283c0.024-0.503-0.118-1.208-0.92-2.37C236.197,172.139,237.817,170.877,237.817,170.877z"/>
	</g>
	<rect x="224.564" y="229.196" opacity="0.2" fill="#010101" width="17.484" height="1.093"/>
	<path fill="#FFCF4E" d="M237.262,169.915l-1.048-1.052c-1.377,1.374-2.912,0-2.912,0s-1.536,1.374-2.912,0l-1.051,1.052
		c0,0,1.622,1.261,0.515,2.866c-0.802,1.162-0.946,1.864-0.919,2.368c0.039,0.727,0.253,1.351,0.613,1.862l6.834-5.129
		C236.22,170.729,237.262,169.915,237.262,169.915z"/>
	<path fill="#FEBB12" d="M236.382,171.883l-6.834,5.129c0.493,0.699,1.264,1.185,2.25,1.422c0.374,0.089,1.137,0.262,1.407,0.655
		c0.101,0.146,0.092,0.146,0.192,0c0.271-0.394,1.033-0.566,1.407-0.655c1.708-0.41,2.771-1.564,2.863-3.284
		c0.025-0.504-0.117-1.206-0.92-2.368C236.531,172.464,236.421,172.162,236.382,171.883z"/>
	<polygon fill="#4479BD" points="242.594,126.478 238.224,126.478 233.853,126.478 233.853,135.282 238.224,135.282 
		242.594,135.282 246.966,135.282 246.966,126.478 	"/>
	<rect x="230.604" y="150.55" fill="#FFFFFF" width="5.408" height="1.062"/>
	<g>
		<rect x="232.762" y="125.382" fill="#FFFFFF" width="1.091" height="24.104"/>
	</g>
	<rect x="231.664" y="149.486" fill="#FFFFFF" width="3.287" height="1.063"/>
	<g>
		<circle fill="#FEBB12" cx="240.409" cy="128.347" r="0.321"/>
		<path fill="#FEBB12" d="M242.92,129.63c0-0.181-0.143-0.323-0.32-0.323c-0.176,0-0.318,0.143-0.318,0.323
			c0,0.175,0.143,0.317,0.318,0.317C242.777,129.947,242.92,129.805,242.92,129.63z"/>
		<circle fill="#FEBB12" cx="242.599" cy="132.145" r="0.319"/>
		<circle fill="#FEBB12" cx="238.219" cy="132.145" r="0.321"/>
		<circle fill="#FEBB12" cx="240.409" cy="133.407" r="0.321"/>
		<path fill="#FEBB12" d="M238.54,129.63c0-0.181-0.146-0.323-0.324-0.323c-0.175,0-0.317,0.143-0.317,0.323
			c0,0.175,0.143,0.317,0.317,0.317C238.395,129.947,238.54,129.805,238.54,129.63z"/>
		<polygon fill="#FEBB12" points="240.41,128.347 241.141,129.612 242.6,129.612 241.871,130.878 242.6,132.145 241.141,132.145 
			240.41,133.407 239.678,132.145 238.216,132.145 238.947,130.878 238.216,129.612 239.678,129.612 		"/>
	</g>
	<polygon opacity="0.2" fill="#010101" points="187.388,160.353 187.388,164.724 178.646,164.724 179.278,165.818 187.936,165.818 
		187.936,161.3 	"/>
	<polygon opacity="0.2" fill="#010101" points="187.388,169.094 187.388,173.466 178.646,173.466 179.278,174.559 187.936,174.559 
		187.936,170.042 	"/>
	<polygon opacity="0.2" fill="#010101" points="187.388,177.835 187.388,182.208 178.646,182.208 179.278,183.302 187.936,183.302 
		187.936,178.785 	"/>
	<polygon opacity="0.2" fill="#010101" points="244.236,201.332 244.236,225.917 244.782,225.917 244.782,202.278 	"/>
	<polygon opacity="0.2" fill="#010101" points="187.388,186.578 187.388,190.95 178.646,190.95 179.278,192.041 187.936,192.041 
		187.936,187.524 	"/>
	<polygon opacity="0.2" fill="#010101" points="187.388,195.32 187.388,199.691 178.646,199.691 179.278,200.784 187.936,200.784 
		187.936,196.268 	"/>
	<polygon opacity="0.2" fill="#010101" points="187.388,204.063 187.388,208.433 178.646,208.433 179.278,209.528 187.936,209.528 
		187.936,205.009 	"/>
	<polygon opacity="0.2" fill="#010101" points="187.388,212.803 187.388,217.178 178.646,217.178 179.278,218.269 187.936,218.269 
		187.936,213.75 	"/>
	<rect x="208.163" y="199.675" fill="#577681" width="8.743" height="17.484"/>
	<rect x="192.859" y="199.675" fill="#577681" width="8.744" height="17.484"/>
	<rect x="196.138" y="195.302" fill="#FFFFFF" width="2.187" height="4.373"/>
	<rect x="192.862" y="207.869" fill="#C69E34" width="8.741" height="1.093"/>
	<polygon opacity="0.2" fill="#010101" points="198.324,195.302 198.324,198.917 198.871,198.905 198.871,196.248 	"/>
	<polygon opacity="0.2" fill="#010101" points="213.626,195.302 213.626,198.917 214.172,198.905 214.172,196.248 	"/>
	<polygon opacity="0.2" fill="#010101" points="202.697,198.579 202.697,218.269 191.77,218.269 192.399,219.362 203.244,219.362 
		203.244,199.525 	"/>
	<polygon opacity="0.2" fill="#010101" points="217.996,198.579 217.996,218.269 207.068,218.269 207.701,219.362 218.545,219.362 
		218.545,199.525 	"/>
	<rect x="192.862" y="198.579" fill="#FFFFFF" width="8.741" height="1.096"/>
	<rect x="192.862" y="217.157" fill="#FFFFFF" width="8.741" height="1.094"/>
	<rect x="208.161" y="217.157" fill="#FFFFFF" width="8.743" height="1.094"/>
	<rect x="211.44" y="195.302" fill="#FFFFFF" width="2.186" height="4.373"/>
	<rect x="208.163" y="198.579" fill="#FFFFFF" width="8.741" height="1.096"/>
	<rect x="208.163" y="207.869" fill="#C69E34" width="8.741" height="1.093"/>
	<rect x="216.904" y="198.579" fill="#FFFFFF" width="1.092" height="19.672"/>
	<rect x="207.068" y="198.579" fill="#FFFFFF" width="1.093" height="19.672"/>
	<rect x="208.163" y="164.75" fill="#577681" width="8.743" height="17.484"/>
	<polygon opacity="0.2" fill="#010101" points="213.626,160.378 213.626,163.994 214.172,163.982 214.172,161.324 	"/>
	<polygon opacity="0.2" fill="#010101" points="217.996,163.655 217.996,183.344 207.068,183.344 207.701,184.438 218.545,184.438 
		218.545,164.603 	"/>
	<rect x="208.161" y="182.234" fill="#FFFFFF" width="8.743" height="1.091"/>
	<rect x="211.44" y="160.378" fill="#FFFFFF" width="2.186" height="4.37"/>
	<rect x="208.163" y="163.655" fill="#FFFFFF" width="8.741" height="1.093"/>
	<rect x="208.163" y="172.943" fill="#C69E34" width="8.741" height="1.094"/>
	<rect x="216.904" y="163.655" fill="#FFFFFF" width="1.092" height="19.67"/>
	<rect x="207.068" y="163.655" fill="#FFFFFF" width="1.093" height="19.67"/>
	<rect x="201.604" y="198.579" fill="#FFFFFF" width="1.094" height="19.672"/>
	<rect x="191.77" y="198.579" fill="#FFFFFF" width="1.093" height="19.672"/>
	<rect x="192.859" y="164.75" fill="#577681" width="8.744" height="17.484"/>
	<rect x="196.138" y="160.378" fill="#FFFFFF" width="2.187" height="4.37"/>
	<rect x="192.862" y="172.943" fill="#C69E34" width="8.741" height="1.094"/>
	<polygon opacity="0.2" fill="#010101" points="198.324,160.378 198.324,163.994 198.871,163.982 198.871,161.324 	"/>
	<polygon opacity="0.2" fill="#010101" points="202.697,163.655 202.697,183.344 191.77,183.344 192.399,184.438 203.244,184.438 
		203.244,164.603 	"/>
	<rect x="192.862" y="163.655" fill="#FFFFFF" width="8.741" height="1.093"/>
	<rect x="192.862" y="182.234" fill="#FFFFFF" width="8.741" height="1.091"/>
	<rect x="201.604" y="163.655" fill="#FFFFFF" width="1.094" height="19.67"/>
	<rect x="191.77" y="163.655" fill="#FFFFFF" width="1.093" height="19.67"/>
	<rect x="279.213" y="212.803" fill="#FFFFFF" width="8.744" height="4.373"/>
	<rect x="279.213" y="204.063" fill="#FFFFFF" width="8.744" height="4.37"/>
	<rect x="279.213" y="195.32" fill="#FFFFFF" width="8.744" height="4.371"/>
	<rect x="279.213" y="186.578" fill="#FFFFFF" width="8.744" height="4.37"/>
	<rect x="279.213" y="177.835" fill="#FFFFFF" width="8.744" height="4.373"/>
	<rect x="279.213" y="169.094" fill="#FFFFFF" width="8.744" height="4.372"/>
	<rect x="279.213" y="160.351" fill="#FFFFFF" width="8.744" height="4.373"/>
	<polygon opacity="0.2" fill="#010101" points="287.957,217.178 279.213,217.178 279.846,218.269 287.957,218.269 	"/>
	<polygon opacity="0.2" fill="#010101" points="287.957,208.433 279.213,208.433 279.846,209.526 287.957,209.526 	"/>
	<polygon opacity="0.2" fill="#010101" points="287.957,199.697 279.213,199.697 279.846,200.79 287.957,200.79 	"/>
	<polygon opacity="0.2" fill="#010101" points="287.957,190.95 279.213,190.95 279.846,192.041 287.957,192.041 	"/>
	<polygon opacity="0.2" fill="#010101" points="287.957,182.208 279.213,182.208 279.846,183.3 287.957,183.3 	"/>
	<polygon opacity="0.2" fill="#010101" points="287.957,173.491 279.213,173.491 279.846,174.584 287.957,174.584 	"/>
	<polygon opacity="0.2" fill="#010101" points="287.957,164.724 279.213,164.724 279.846,165.816 287.957,165.816 	"/>
	<rect x="249.695" y="199.675" fill="#577681" width="8.743" height="17.484"/>
	<rect x="265" y="199.675" fill="#577681" width="8.742" height="17.484"/>
	<rect x="268.279" y="195.302" fill="#FFFFFF" width="2.186" height="4.373"/>
	<rect x="265" y="207.869" fill="#C69E34" width="8.74" height="1.093"/>
	<polygon opacity="0.2" fill="#010101" points="255.16,195.286 255.16,198.901 255.706,198.89 255.706,196.23 	"/>
	<polygon opacity="0.2" fill="#010101" points="270.462,195.286 270.462,198.901 271.011,198.89 271.011,196.23 	"/>
	<polygon opacity="0.2" fill="#010101" points="259.533,198.563 259.533,218.251 248.604,218.251 249.234,219.344 260.08,219.344 
		260.08,199.509 	"/>
	<polygon opacity="0.2" fill="#010101" points="274.833,198.563 274.833,218.251 263.905,218.251 264.537,219.344 275.382,219.344 
		275.382,199.509 	"/>
	<rect x="265" y="198.579" fill="#FFFFFF" width="8.74" height="1.096"/>
	<rect x="265" y="217.157" fill="#FFFFFF" width="8.74" height="1.094"/>
	<rect x="249.699" y="217.157" fill="#FFFFFF" width="8.739" height="1.094"/>
	<rect x="252.976" y="195.302" fill="#FFFFFF" width="2.187" height="4.373"/>
	<rect x="249.699" y="198.579" fill="#FFFFFF" width="8.739" height="1.096"/>
	<rect x="249.699" y="207.869" fill="#C69E34" width="8.739" height="1.093"/>
	<rect x="248.604" y="198.579" fill="#FFFFFF" width="1.095" height="19.672"/>
	<rect x="258.438" y="198.579" fill="#FFFFFF" width="1.095" height="19.672"/>
	<rect x="249.695" y="164.75" fill="#577681" width="8.743" height="17.484"/>
	<polygon opacity="0.2" fill="#010101" points="270.462,160.36 270.462,163.977 271.011,163.964 271.011,161.308 	"/>
	<polygon opacity="0.2" fill="#010101" points="274.833,163.638 274.833,183.325 263.905,183.325 264.537,184.419 275.382,184.419 
		275.382,164.585 	"/>
	<rect x="249.699" y="182.234" fill="#FFFFFF" width="8.739" height="1.091"/>
	<rect x="252.976" y="160.378" fill="#FFFFFF" width="2.187" height="4.37"/>
	<rect x="249.699" y="163.655" fill="#FFFFFF" width="8.739" height="1.093"/>
	<rect x="249.699" y="172.943" fill="#C69E34" width="8.739" height="1.094"/>
	<rect x="248.604" y="163.655" fill="#FFFFFF" width="1.095" height="19.67"/>
	<rect x="258.438" y="163.655" fill="#FFFFFF" width="1.095" height="19.67"/>
	<rect x="263.905" y="198.579" fill="#FFFFFF" width="1.093" height="19.672"/>
	<rect x="273.74" y="198.579" fill="#FFFFFF" width="1.093" height="19.672"/>
	<rect x="265" y="164.75" fill="#577681" width="8.742" height="17.484"/>
	<rect x="268.279" y="160.378" fill="#FFFFFF" width="2.186" height="4.37"/>
	<rect x="265" y="172.943" fill="#C69E34" width="8.74" height="1.094"/>
	<polygon opacity="0.2" fill="#010101" points="259.533,163.638 259.533,183.325 248.604,183.325 249.234,184.419 260.08,184.419 
		260.08,164.585 	"/>
	<rect x="265" y="163.655" fill="#FFFFFF" width="8.74" height="1.093"/>
	<rect x="265" y="182.234" fill="#FFFFFF" width="8.74" height="1.091"/>
	<rect x="263.905" y="163.655" fill="#FFFFFF" width="1.093" height="19.67"/>
	<rect x="273.74" y="163.655" fill="#FFFFFF" width="1.093" height="19.67"/>
	<g opacity="0.2">
		<path fill="#010101" d="M230.558,219.925v3.789h-3.788v-3.789H230.558L230.558,219.925z M231.669,218.813h-6.01v6.012h6.01
			V218.813L231.669,218.813z"/>
	</g>
	<g opacity="0.2">
		<path fill="#010101" d="M230.558,212.823v3.788h-3.788v-3.788H230.558L230.558,212.823z M231.669,211.712h-6.01v6.01h6.01V211.712
			L231.669,211.712z"/>
	</g>
	<g opacity="0.2">
		<path fill="#010101" d="M230.558,205.719v3.789h-3.788v-3.789H230.558L230.558,205.719z M231.669,204.608h-6.01v6.01h6.01V204.608
			L231.669,204.608z"/>
	</g>
	<g opacity="0.2">
		<path fill="#010101" d="M239.847,219.925v3.789h-3.788v-3.789H239.847L239.847,219.925z M240.958,218.813h-6.011v6.012h6.011
			V218.813L240.958,218.813z"/>
	</g>
	<g opacity="0.2">
		<path fill="#010101" d="M239.847,212.823v3.788h-3.788v-3.788H239.847L239.847,212.823z M240.958,211.712h-6.011v6.01h6.011
			V211.712L240.958,211.712z"/>
	</g>
	<g opacity="0.2">
		<path fill="#010101" d="M239.847,205.719v3.789h-3.788v-3.789H239.847L239.847,205.719z M240.958,204.608h-6.011v6.01h6.011
			V204.608L240.958,204.608z"/>
	</g>
	<g>
		<polygon fill="#3E7675" points="258.035,220.413 253.664,224.784 258.035,224.784 263.498,224.784 263.498,220.413 		"/>
		<rect x="267.87" y="220.413" fill="#077674" width="4.372" height="4.371"/>
		<rect x="264.044" y="220.413" fill="#3E7675" width="4.92" height="4.371"/>
		<polygon fill="#3E7675" points="273.334,220.413 268.964,220.413 268.964,224.784 275.864,224.784 		"/>
		<rect x="252.104" y="224.784" fill="#FFFFFF" width="22.891" height="6.577"/>
		<g>
			<path fill="#FEBB12" d="M258.727,225.875c0-0.139-0.112-0.251-0.254-0.251c-0.141,0-0.254,0.112-0.254,0.251
				c0,0.142,0.113,0.254,0.254,0.254C258.614,226.129,258.727,226.017,258.727,225.875z"/>
			<circle fill="#FEBB12" cx="260.205" cy="226.889" r="0.253"/>
			<circle fill="#FEBB12" cx="260.202" cy="228.876" r="0.253"/>
			<circle fill="#FEBB12" cx="256.742" cy="228.876" r="0.253"/>
			<circle fill="#FEBB12" cx="258.473" cy="229.875" r="0.254"/>
			<circle fill="#FEBB12" cx="256.742" cy="226.889" r="0.253"/>
			<polygon fill="#FEBB12" points="258.473,225.875 259.05,226.876 260.204,226.876 259.628,227.875 260.204,228.874 
				259.05,228.874 258.473,229.875 257.897,228.874 256.741,228.874 257.317,227.875 256.741,226.876 257.897,226.876 			"/>
		</g>
		<polygon fill="#F04C4C" points="262.404,217.133 261.309,217.133 260.215,217.133 260.215,218.229 261.309,218.229 
			262.404,218.229 263.496,218.229 263.496,217.133 		"/>
		<polygon fill="#316EB6" points="265.685,217.133 264.593,217.133 263.496,217.133 263.496,218.229 264.593,218.229 
			265.685,218.229 266.779,218.229 266.779,217.133 		"/>
		<polygon fill="#4E4E4E" points="265.685,218.229 264.593,218.229 263.496,218.229 262.404,218.229 261.309,218.229 
			260.215,218.229 260.215,219.32 261.309,219.32 262.404,219.32 263.496,219.32 264.593,219.32 265.685,219.32 266.779,219.32 
			266.779,218.229 		"/>
		<polygon fill="#2A2A2A" points="278.565,231.919 278.565,231.917 278.557,231.919 		"/>
		<polygon fill="#3C3C3B" points="278.536,231.919 278.557,231.919 278.536,231.919 		"/>
		<polygon fill="#316EB6" points="252.104,224.784 240.206,225.332 240.206,231.925 252.107,231.897 		"/>
		<rect x="251.388" y="230.826" fill="#3A74BA" width="19.837" height="1.093"/>
		<polygon fill="#316EB6" points="284.689,224.784 284.689,230.967 276.463,230.684 274.997,227.052 274.997,224.798 		"/>
		<polygon fill="#FEBB12" points="240.923,226.423 240.563,226.423 240.206,226.423 240.206,228.616 240.563,228.616 
			240.923,228.616 241.28,228.616 241.28,226.423 		"/>
		<polygon fill="#FFFFFF" points="239.849,226.423 239.489,226.423 239.132,226.423 239.132,228.616 239.489,228.616 
			239.849,228.616 240.206,228.616 240.206,226.423 		"/>
		<polygon fill="#F04C4C" points="284.869,225.951 284.51,225.951 284.152,225.951 284.152,228.063 284.51,228.063 284.869,228.063 
			285.229,228.063 285.229,225.951 		"/>
		<path fill="#2D67AC" d="M243.916,230.741c0.061-0.427,0.223-0.825,0.463-1.185c0.063-0.097,0.137-0.189,0.211-0.277v-0.663h-5.458
			v3.293h4.869c-0.073-0.25-0.118-0.508-0.118-0.775C243.883,231.001,243.896,230.87,243.916,230.741z"/>
		<path fill="#2D67AC" d="M285.767,228.063h-8.563c0.263,0.195,0.5,0.419,0.704,0.669c0.118,0.143,0.225,0.294,0.318,0.453
			c0.323,0.539,0.507,1.16,0.507,1.82c0,0.313,0.672,0.908,0.672,0.908h6.361V228.063z"/>
		<rect x="262.95" y="220.413" fill="#616262" width="1.094" height="10.413"/>
		<rect x="268.964" y="220.413" fill="#FFFFFF" width="1.092" height="4.371"/>
		<polygon fill="#FFFFFF" points="258.035,220.411 257.571,219.33 252.104,224.798 252.876,225.571 		"/>
		<polygon fill="#FFFFFF" points="273.09,220.413 273.09,219.32 257.571,219.32 258.035,220.413 		"/>
		<polygon fill="#FFFFFF" points="273.096,219.32 272.149,219.868 274.997,224.798 276.257,224.784 		"/>
		<polygon fill="#FFFFFF" points="271.837,219.32 270.889,219.868 273.735,224.798 274.994,224.784 		"/>
		<path fill="#303030" d="M252.104,231.422c0-2.413-1.958-4.37-4.371-4.37c-2.415,0-4.373,1.957-4.373,4.37
			c0,0.167,0.013,0.33,0.031,0.491h8.683C252.092,231.752,252.104,231.589,252.104,231.422z"/>
		<circle fill="#4B4B4B" cx="247.731" cy="231.422" r="3.277"/>
		<circle fill="#818181" cx="247.732" cy="231.422" r="1.093"/>
		<path fill="#303030" d="M279.368,231.422c0-2.413-1.958-4.37-4.371-4.37c-2.414,0-4.371,1.957-4.371,4.37
			c0,0.167,0.012,0.33,0.029,0.491h8.683C279.356,231.752,279.368,231.589,279.368,231.422z"/>
		<circle fill="#4B4B4B" cx="274.998" cy="231.422" r="3.279"/>
		<circle fill="#818181" cx="274.997" cy="231.422" r="1.093"/>
	</g>
	<polygon opacity="0.2" fill="#010101" points="242.049,203.516 225.659,203.516 224.564,203.516 224.564,225.917 225.659,225.917 
		225.659,204.608 232.762,204.608 232.762,225.917 233.854,225.917 233.854,204.608 242.049,204.608 	"/>
	<path fill="#C69E34" d="M273.742,164.75H265v17.458l0,0v0.026h8.74v-0.026h0.002V164.75z M272.647,165.843v15.3h-6.555v-15.3
		H272.647z"/>
	<path fill="#C69E34" d="M258.441,164.75h-8.742v17.458l0,0v0.026h8.739v-0.026h0.003V164.75z M257.349,165.843v15.3h-6.558v-15.3
		H257.349z"/>
	<path fill="#C69E34" d="M216.906,164.75h-8.743v17.458l0,0v0.026h8.741v-0.026h0.002V164.75z M215.813,165.843v15.3h-6.556v-15.3
		H215.813z"/>
	<path fill="#C69E34" d="M201.604,164.75h-8.744v17.458h0.003v0.026h8.741v-0.026l0,0V164.75z M200.509,165.843v15.3h-6.555v-15.3
		H200.509z"/>
	<path fill="#C69E34" d="M201.604,199.672h-8.744v17.459h0.003v0.026h8.741v-0.026l0,0V199.672z M200.509,200.767v15.299h-6.555
		v-15.299H200.509z"/>
	<path fill="#C69E34" d="M216.904,199.672h-8.743v17.459l0,0v0.026h8.743v-0.026l0,0V199.672z M215.813,200.767v15.299h-6.558
		v-15.299H215.813z"/>
	<path fill="#C69E34" d="M258.441,199.672h-8.742v17.459l0,0v0.026h8.739v-0.026h0.003V199.672z M257.346,200.767v15.299h-6.555
		v-15.299H257.346z"/>
	<path fill="#C69E34" d="M273.74,199.672h-8.742v17.459H265v0.026h8.74v-0.026l0,0V199.672z M272.647,200.767v15.299h-6.555v-15.299
		H272.647z"/>
</g>
</svg>
