<?xml version="1.0" encoding="utf-8"?>
<!-- Generator: Adobe Illustrator 16.0.0, SVG Export Plug-In . SVG Version: 6.00 Build 0)  -->
<!DOCTYPE svg PUBLIC "-//W3C//DTD SVG 1.1//EN" "http://www.w3.org/Graphics/SVG/1.1/DTD/svg11.dtd">
<svg version="1.1" id="Layer_1" xmlns="http://www.w3.org/2000/svg" xmlns:xlink="http://www.w3.org/1999/xlink" x="0px" y="0px"
	 width="322px" height="235px" viewBox="0 0 322 235" enable-background="new 0 0 322 235" xml:space="preserve">
<g>
	<rect x="25.675" y="47.75" fill="#FFFFFF" width="25.114" height="6.278"/>
	<polygon fill="#FFFFFF" points="75.902,72.865 0.561,72.865 13.118,97.978 63.344,97.978 	"/>
	<rect x="25.675" y="97.978" fill="#FFFFFF" width="25.113" height="88.043"/>
	<g>
		<rect x="35.093" y="103.978" fill="#5B7B86" width="6.278" height="69.409"/>
	</g>
	<polygon opacity="0.2" fill="#010101" points="42.417,97.978 25.675,97.978 25.675,110.535 41.371,110.535 41.371,182.102 
		50.788,182.102 50.788,110.535 50.788,97.978 	"/>
	<g>
		<path fill="#FFFFFF" d="M167.696,105.01c59.308,0,110.977,32.668,138.021,80.984h3.599
			c-27.341-50.118-80.508-84.124-141.619-84.124c-61.112,0-114.281,34.006-141.621,84.124h3.597
			C56.717,137.678,108.388,105.01,167.696,105.01z"/>
		<path fill="#5B7B86" d="M167.696,105.01c-59.309,0-110.979,32.668-138.023,80.984h276.044
			C278.673,137.678,227.004,105.01,167.696,105.01z"/>
	</g>
	<rect x="13.119" y="66.585" fill="#FFFFFF" width="50.226" height="6.279"/>
	<polygon opacity="0.2" fill="#010101" points="46.602,72.864 63.344,72.864 63.344,70.771 63.344,68.678 63.344,66.585 
		46.602,66.585 	"/>
	<rect x="21.825" y="54.028" fill="#5B7B86" width="32.813" height="12.557"/>
	<g>
		<rect x="166.897" y="104.586" fill="#FFFFFF" width="1.596" height="80.938"/>
	</g>
	<g>
		<rect x="152.746" y="104.586" fill="#FFFFFF" width="1.595" height="81.408"/>
	</g>
	<g>
		<rect x="138.593" y="105.379" fill="#FFFFFF" width="1.596" height="80.615"/>
	</g>
	<g>
		<rect x="124.441" y="109.052" fill="#FFFFFF" width="1.595" height="76.942"/>
	</g>
	<g>
		<rect x="46.797" y="54.028" fill="#FFFFFF" width="1.595" height="12.558"/>
	</g>
	<g>
		<rect x="37.435" y="54.028" fill="#FFFFFF" width="1.595" height="12.558"/>
	</g>
	<g>
		<rect x="28.07" y="54.028" fill="#FFFFFF" width="1.596" height="12.558"/>
	</g>
	<g>
		<rect x="20.23" y="52.433" fill="#FFFFFF" width="36.002" height="1.595"/>
	</g>
	<g>
		<rect x="43.714" y="35.193" fill="#577681" width="1.595" height="12.558"/>
	</g>
	<g>
		<rect x="110.289" y="113.789" fill="#FFFFFF" width="1.595" height="72.205"/>
	</g>
	<g>
		<rect x="96.137" y="119.239" fill="#FFFFFF" width="1.595" height="66.755"/>
	</g>
	<g>
		<rect x="81.984" y="127.082" fill="#FFFFFF" width="1.596" height="58.912"/>
	</g>
	<g>
		<rect x="67.832" y="137.051" fill="#FFFFFF" width="1.595" height="48.943"/>
	</g>
	<g>
		<rect x="53.68" y="151.539" fill="#FFFFFF" width="1.595" height="34.455"/>
	</g>
	<g>
		<rect x="39.527" y="165.764" fill="#FFFFFF" width="1.595" height="20.23"/>
	</g>
	<g>
		<rect x="181.051" y="104.586" fill="#FFFFFF" width="1.596" height="81.408"/>
	</g>
	<g>
		<rect x="195.203" y="105.682" fill="#FFFFFF" width="1.594" height="80.313"/>
	</g>
	<g>
		<rect x="209.354" y="109.052" fill="#FFFFFF" width="1.598" height="76.942"/>
	</g>
	<g>
		<rect x="223.507" y="113.363" fill="#FFFFFF" width="1.597" height="72.631"/>
	</g>
	<g>
		<rect x="237.658" y="120.968" fill="#FFFFFF" width="1.596" height="65.026"/>
	</g>
	<g>
		<rect x="251.813" y="127.032" fill="#FFFFFF" width="1.595" height="58.962"/>
	</g>
	<g>
		<rect x="265.964" y="138.159" fill="#FFFFFF" width="1.595" height="47.835"/>
	</g>
	<g>
		<rect x="280.115" y="150.034" fill="#FFFFFF" width="1.598" height="35.96"/>
	</g>
	<g>
		<rect x="294.269" y="166.294" fill="#FFFFFF" width="1.596" height="19.7"/>
	</g>
	<polygon fill="#5B7B86" points="72.763,79.143 3.701,79.143 9.979,91.699 66.484,91.699 	"/>
	<circle fill="#FFFFFF" cx="31.954" cy="41.471" r="6.278"/>
	<g>
		<g>
			
				<rect x="5.091" y="84.693" transform="matrix(0.3842 0.9233 -0.9233 0.3842 86.9353 40.6437)" fill="#FFFFFF" width="15.818" height="1.595"/>
		</g>
		<g>
			
				<rect x="13.341" y="84.672" transform="matrix(0.2899 0.9571 -0.9571 0.2899 96.4607 40.9323)" fill="#FFFFFF" width="14.611" height="1.595"/>
		</g>
		<g>
			
				<rect x="22.315" y="84.649" transform="matrix(0.1639 0.9865 -0.9865 0.1639 108.5861 42.7798)" fill="#FFFFFF" width="13.483" height="1.595"/>
		</g>
		<g>
			<rect x="37.435" y="79.143" fill="#FFFFFF" width="1.594" height="12.556"/>
		</g>
	</g>
	<g>
		<g>
			
				<rect x="62.665" y="77.582" transform="matrix(0.9234 0.3838 -0.3838 0.9234 37.6729 -17.8102)" fill="#FFFFFF" width="1.595" height="15.819"/>
		</g>
		<g>
			
				<rect x="55.019" y="78.165" transform="matrix(0.957 0.29 -0.29 0.957 27.1865 -12.5143)" fill="#FFFFFF" width="1.594" height="14.611"/>
		</g>
		<g>
			
				<rect x="46.609" y="78.705" transform="matrix(0.9864 0.1642 -0.1642 0.9864 14.6691 -6.6227)" fill="#FFFFFF" width="1.594" height="13.483"/>
		</g>
		<g>
			<rect x="37.435" y="79.143" fill="#FFFFFF" width="1.594" height="12.556"/>
		</g>
	</g>
	<polygon opacity="0.2" fill="#010101" points="50.789,47.75 44.231,47.75 44.231,66.585 46.797,66.585 48.392,66.585 
		54.638,66.585 54.638,54.028 56.233,54.028 56.233,52.433 50.789,52.433 	"/>
	<polygon opacity="0.2" fill="#010101" points="51.05,72.865 49.938,79.143 3.489,79.143 4.305,80.738 49.655,80.738 46.602,97.978 
		63.344,97.978 75.902,72.865 	"/>
	<path opacity="0.2" fill="#010101" d="M170.919,106.87c28.079,0,54.443,7.33,77.298,20.168
		c-23.585-13.988-51.111-22.028-80.521-22.028c-59.309,0-110.979,32.668-138.023,80.984h4.261c2.429-4.209,5.051-8.302,7.868-12.26
		C70.432,133.282,117.589,106.87,170.919,106.87z"/>
	<rect x="141.543" y="185.994" fill="#7A7E83" width="167.793" height="7.08"/>
	<rect x="141.545" y="192.268" fill="#7A7E83" width="167.792" height="6.274"/>
	<g>
		<g>
			<g>
				<rect x="141.543" y="191.471" fill="#FFFFFF" width="3.19" height="1.597"/>
			</g>
			<g>
				<path fill="#FFFFFF" d="M299.69,193.067h-6.458v-1.597h6.458V193.067z M286.776,193.067h-6.456v-1.597h6.456V193.067z
					 M273.865,193.067h-6.458v-1.597h6.458V193.067z M260.951,193.067h-6.456v-1.597h6.456V193.067z M248.038,193.067h-6.457v-1.597
					h6.457V193.067z M235.126,193.067h-6.456v-1.597h6.456V193.067z M222.213,193.067h-6.459v-1.597h6.459V193.067z M209.3,193.067
					h-6.455v-1.597h6.455V193.067z M196.385,193.067h-6.456v-1.597h6.456V193.067z M183.473,193.067h-6.457v-1.597h6.457V193.067z
					 M170.561,193.067h-6.457v-1.597h6.457V193.067z M157.646,193.067h-6.456v-1.597h6.456V193.067z"/>
			</g>
			<g>
				<rect x="306.147" y="191.471" fill="#FFFFFF" width="3.189" height="1.597"/>
			</g>
		</g>
	</g>
	<g>
		<polygon fill="#2283C5" points="321.669,132.691 304.221,164.272 271.691,164.279 305.394,132.691 		"/>
		<linearGradient id="SVGID_1_" gradientUnits="userSpaceOnUse" x1="225.4404" y1="184.3945" x2="225.4404" y2="164.2705">
			<stop  offset="0" style="stop-color:#CCCCCC"/>
			<stop  offset="1" style="stop-color:#FFFFFF"/>
		</linearGradient>
		<path fill="url(#SVGID_1_)" d="M148.516,171.075c3.144-1.299,2.439-6.805,26.998-6.805l74.181,0.012
			c10.874,0,55.142-0.01,55.142-0.01l4.501-0.002v5.313c0,0-21.338,14.812-60.229,14.812l-76.959-0.035
			c-21.952,0-30.604-3.713-30.604-7.901C141.545,174.186,144.827,172.598,148.516,171.075z"/>
		<polygon fill="none" points="275.111,175.423 275.111,175.423 275.111,175.423 		"/>
		<path fill="#426579" d="M155.751,167.206h-1.79c-1.914,0.568-4.988,3.645-4.988,3.645h6.777V167.206z"/>
		<path fill="#426579" d="M170.045,169.192c0-0.435-0.352-0.787-0.786-0.787l0,0c-0.436,0-0.79,0.353-0.79,0.787v0.87
			c0,0.436,0.354,0.788,0.79,0.788l0,0c0.435,0,0.786-0.353,0.786-0.788V169.192z"/>
		<path fill="#426579" d="M166.891,169.192c0-0.435-0.352-0.787-0.787-0.787l0,0c-0.437,0-0.789,0.353-0.789,0.787v0.87
			c0,0.436,0.353,0.788,0.789,0.788l0,0c0.436,0,0.787-0.353,0.787-0.788V169.192z"/>
		<path fill="#426579" d="M173.201,169.192c0-0.435-0.353-0.787-0.791-0.787l0,0c-0.435,0-0.787,0.353-0.787,0.787v0.87
			c0,0.436,0.353,0.788,0.787,0.788l0,0c0.438,0,0.791-0.353,0.791-0.788V169.192z"/>
		<path fill="#426579" d="M176.355,169.192c0-0.435-0.354-0.787-0.789-0.787l0,0c-0.437,0-0.79,0.353-0.79,0.787v0.87
			c0,0.436,0.354,0.788,0.79,0.788l0,0c0.435,0,0.789-0.353,0.789-0.788V169.192z"/>
		<path fill="#426579" d="M179.509,169.192c0-0.435-0.354-0.787-0.788-0.787l0,0c-0.438,0-0.79,0.353-0.79,0.787v0.87
			c0,0.436,0.353,0.788,0.79,0.788l0,0c0.435,0,0.788-0.353,0.788-0.788V169.192z"/>
		<path fill="#426579" d="M182.663,169.192c0-0.435-0.355-0.787-0.79-0.787l0,0c-0.436,0-0.789,0.353-0.789,0.787v0.87
			c0,0.436,0.354,0.788,0.789,0.788l0,0c0.435,0,0.79-0.353,0.79-0.788V169.192z"/>
		<path fill="#426579" d="M185.814,169.192c0-0.435-0.353-0.787-0.787-0.787l0,0c-0.437,0-0.789,0.353-0.789,0.787v0.87
			c0,0.436,0.353,0.788,0.789,0.788l0,0c0.435,0,0.787-0.353,0.787-0.788V169.192z"/>
		<path fill="#426579" d="M188.969,169.192c0-0.435-0.354-0.787-0.786-0.787l0,0c-0.436,0-0.79,0.353-0.79,0.787v0.87
			c0,0.436,0.354,0.788,0.79,0.788l0,0c0.433,0,0.786-0.353,0.786-0.788V169.192z"/>
		<path fill="#426579" d="M192.122,169.192c0-0.435-0.352-0.787-0.785-0.787l0,0c-0.438,0-0.79,0.353-0.79,0.787v0.87
			c0,0.436,0.352,0.788,0.79,0.788l0,0c0.434,0,0.785-0.353,0.785-0.788V169.192z"/>
		<path fill="#426579" d="M195.276,169.192c0-0.435-0.353-0.787-0.786-0.787l0,0c-0.437,0-0.789,0.353-0.789,0.787v0.87
			c0,0.436,0.353,0.788,0.789,0.788l0,0c0.434,0,0.786-0.353,0.786-0.788V169.192z"/>
		<path fill="#426579" d="M198.434,169.192c0-0.435-0.355-0.787-0.789-0.787l0,0c-0.437,0-0.79,0.353-0.79,0.787v0.87
			c0,0.436,0.354,0.788,0.79,0.788l0,0c0.434,0,0.789-0.353,0.789-0.788V169.192z"/>
		<path fill="#426579" d="M201.585,169.192c0-0.435-0.353-0.787-0.787-0.787l0,0c-0.437,0-0.789,0.353-0.789,0.787v0.87
			c0,0.436,0.353,0.788,0.789,0.788l0,0c0.435,0,0.787-0.353,0.787-0.788V169.192z"/>
		<path fill="#426579" d="M204.739,169.192c0-0.435-0.352-0.787-0.788-0.787l0,0c-0.436,0-0.789,0.353-0.789,0.787v0.87
			c0,0.436,0.354,0.788,0.789,0.788l0,0c0.437,0,0.788-0.353,0.788-0.788V169.192z"/>
		<path fill="#426579" d="M207.895,169.192c0-0.435-0.353-0.787-0.79-0.787l0,0c-0.434,0-0.786,0.353-0.786,0.787v0.87
			c0,0.436,0.353,0.788,0.786,0.788l0,0c0.438,0,0.79-0.353,0.79-0.788V169.192z"/>
		<path fill="#426579" d="M211.049,169.192c0-0.435-0.354-0.787-0.79-0.787l0,0c-0.434,0-0.787,0.353-0.787,0.787v0.87
			c0,0.436,0.354,0.788,0.787,0.788l0,0c0.437,0,0.79-0.353,0.79-0.788V169.192z"/>
		<path fill="#426579" d="M214.202,169.192c0-0.435-0.353-0.787-0.789-0.787l0,0c-0.435,0-0.789,0.353-0.789,0.787v0.87
			c0,0.436,0.354,0.788,0.789,0.788l0,0c0.437,0,0.789-0.353,0.789-0.788V169.192z"/>
		<path fill="#426579" d="M217.356,169.192c0-0.435-0.353-0.787-0.79-0.787l0,0c-0.437,0-0.785,0.353-0.785,0.787v0.87
			c0,0.436,0.349,0.788,0.785,0.788l0,0c0.438,0,0.79-0.353,0.79-0.788V169.192z"/>
		<path fill="#426579" d="M220.51,169.192c0-0.435-0.352-0.787-0.789-0.787l0,0c-0.434,0-0.786,0.353-0.786,0.787v0.87
			c0,0.436,0.353,0.788,0.786,0.788l0,0c0.438,0,0.789-0.353,0.789-0.788V169.192z"/>
		<path fill="#426579" d="M223.664,169.192c0-0.435-0.352-0.787-0.79-0.787l0,0c-0.433,0-0.786,0.353-0.786,0.787v0.87
			c0,0.436,0.354,0.788,0.786,0.788l0,0c0.438,0,0.79-0.353,0.79-0.788V169.192z"/>
		<path fill="#426579" d="M226.819,169.192c0-0.435-0.354-0.787-0.791-0.787l0,0c-0.433,0-0.787,0.353-0.787,0.787v0.87
			c0,0.436,0.354,0.788,0.787,0.788l0,0c0.438,0,0.791-0.353,0.791-0.788V169.192z"/>
		<path fill="#426579" d="M229.973,169.192c0-0.435-0.353-0.787-0.791-0.787l0,0c-0.436,0-0.787,0.353-0.787,0.787v0.87
			c0,0.436,0.352,0.788,0.787,0.788l0,0c0.438,0,0.791-0.353,0.791-0.788V169.192z"/>
		<path fill="#426579" d="M233.127,169.192c0-0.435-0.354-0.787-0.79-0.787l0,0c-0.436,0-0.789,0.353-0.789,0.787v0.87
			c0,0.436,0.354,0.788,0.789,0.788l0,0c0.437,0,0.79-0.353,0.79-0.788V169.192z"/>
		<path fill="#426579" d="M236.28,169.192c0-0.435-0.353-0.787-0.787-0.787l0,0c-0.438,0-0.791,0.353-0.791,0.787v0.87
			c0,0.436,0.353,0.788,0.791,0.788l0,0c0.435,0,0.787-0.353,0.787-0.788V169.192z"/>
		<path fill="#426579" d="M239.435,169.192c0-0.435-0.354-0.787-0.788-0.787l0,0c-0.438,0-0.79,0.353-0.79,0.787v0.87
			c0,0.436,0.353,0.788,0.79,0.788l0,0c0.435,0,0.788-0.353,0.788-0.788V169.192z"/>
		<path fill="#426579" d="M242.588,169.192c0-0.435-0.353-0.787-0.789-0.787l0,0c-0.437,0-0.788,0.353-0.788,0.787v0.87
			c0,0.436,0.352,0.788,0.788,0.788l0,0c0.437,0,0.789-0.353,0.789-0.788V169.192z"/>
		<path fill="#426579" d="M245.742,169.192c0-0.435-0.351-0.787-0.788-0.787l0,0c-0.438,0-0.789,0.353-0.789,0.787v0.87
			c0,0.436,0.352,0.788,0.789,0.788l0,0c0.438,0,0.788-0.353,0.788-0.788V169.192z"/>
		<path fill="#426579" d="M248.895,169.192c0-0.435-0.352-0.787-0.786-0.787l0,0c-0.437,0-0.79,0.353-0.79,0.787v0.87
			c0,0.436,0.354,0.788,0.79,0.788l0,0c0.435,0,0.786-0.353,0.786-0.788V169.192z"/>
		<path fill="#426579" d="M252.053,169.192c0-0.435-0.356-0.787-0.794-0.787l0,0c-0.432,0-0.786,0.353-0.786,0.787v0.87
			c0,0.436,0.354,0.788,0.786,0.788l0,0c0.438,0,0.794-0.353,0.794-0.788V169.192z"/>
		<path fill="#426579" d="M255.204,169.192c0-0.435-0.354-0.787-0.788-0.787l0,0c-0.437,0-0.79,0.353-0.79,0.787v0.87
			c0,0.436,0.354,0.788,0.79,0.788l0,0c0.434,0,0.788-0.353,0.788-0.788V169.192z"/>
		<path fill="#426579" d="M258.357,169.192c0-0.435-0.354-0.787-0.786-0.787l0,0c-0.437,0-0.789,0.353-0.789,0.787v0.87
			c0,0.436,0.353,0.788,0.789,0.788l0,0c0.433,0,0.786-0.353,0.786-0.788V169.192z"/>
		<path fill="#426579" d="M261.514,169.192c0-0.435-0.356-0.787-0.789-0.787l0,0c-0.438,0-0.791,0.353-0.791,0.787v0.87
			c0,0.436,0.354,0.788,0.791,0.788l0,0c0.433,0,0.789-0.353,0.789-0.788V169.192z"/>
		<path fill="#426579" d="M264.664,169.192c0-0.435-0.353-0.787-0.785-0.787l0,0c-0.437,0-0.791,0.353-0.791,0.787v0.87
			c0,0.436,0.354,0.788,0.791,0.788l0,0c0.433,0,0.785-0.353,0.785-0.788V169.192z"/>
		<path fill="#426579" d="M267.818,169.192c0-0.435-0.354-0.787-0.786-0.787l0,0c-0.436,0-0.787,0.353-0.787,0.787v0.87
			c0,0.436,0.352,0.788,0.787,0.788l0,0c0.433,0,0.786-0.353,0.786-0.788V169.192z"/>
		<path fill="#426579" d="M270.972,169.192c0-0.435-0.352-0.787-0.786-0.787l0,0c-0.437,0-0.789,0.353-0.789,0.787v0.87
			c0,0.436,0.353,0.788,0.789,0.788l0,0c0.435,0,0.786-0.353,0.786-0.788V169.192z"/>
		<g>
			<path fill="#2283C5" d="M283.235,180.245H144.387c-3.273-1.862-2.822-4.035-2.822-4.035h154.32
				C295.885,176.21,291.182,178.229,283.235,180.245z"/>
		</g>
		<g>
			<path opacity="0.2" fill="#010101" d="M142.438,178.684C142.375,178.622,142.358,178.629,142.438,178.684L142.438,178.684z"/>
			<path opacity="0.2" fill="#010101" d="M303.93,171.161l0.299-1.533h-17.434l-1.529,7.861c-9.449,2.339-21.567,4.209-36.157,4.209
				l-76.959-0.037c-20.895,0-27.749-1.414-27.749-1.414c4.109,2.401,12.876,4.105,27.749,4.105l76.959,0.037
				c38.891,0,60.229-14.812,60.229-14.812v-1.173C309.337,168.405,307.501,169.547,303.93,171.161z"/>
		</g>
		<polygon fill="#ACACAC" points="239.435,162.244 246.896,162.244 236.28,181.991 208.057,182.002 		"/>
		<polygon fill="#ACACAC" points="309.337,160.124 301.872,160.124 286.778,169.628 304.226,169.628 		"/>
		<polygon fill="#FAFAFA" points="220.955,182.171 220.958,182.171 220.953,182.171 		"/>
		<polygon fill="#FAFAFA" points="246.896,155.178 243.164,155.178 239.435,162.244 246.896,162.244 		"/>
		<g>
			<path fill="#FAFAFA" d="M211.803,175.413c-3.638,0-7.063,0.655-7.063,0.655v2.738v4.475c0,0,3.426,0.656,7.063,0.656
				c3.639,0,7.063-0.656,7.063-0.656v-4.475v-2.738C218.865,176.068,215.441,175.413,211.803,175.413z"/>
			<path opacity="0.2" fill="#010101" d="M204.739,181.346v1.936c0,0,3.426,0.656,7.063,0.656c3.639,0,7.063-0.656,7.063-0.656
				v-1.936c0,0-3.424,0.656-7.063,0.656C208.165,182.002,204.739,181.346,204.739,181.346z"/>
			<polygon fill="#6A6A6A" points="221.595,178.325 218.865,177.584 218.865,181.768 221.595,181.024 			"/>
			<polygon fill="#6A6A6A" points="203.152,176.335 203.152,179.675 203.152,183.015 204.749,183.281 204.749,179.675 
				204.749,176.068 			"/>
		</g>
		<rect x="231.133" y="183.653" fill="#EAEBEB" width="1.593" height="5.476"/>
		<path fill="#5A5A5A" d="M238.207,189.129c0-1.733-1.407-3.14-3.138-3.14c-1.736,0-3.141,1.406-3.141,3.14s1.404,3.139,3.141,3.139
			C236.8,192.268,238.207,190.862,238.207,189.129z"/>
		<circle fill="#5A5A5A" cx="228.79" cy="189.129" r="3.139"/>
		<circle fill="#CDCCCC" cx="228.79" cy="189.129" r="1.569"/>
		<rect x="163.737" y="183.653" fill="#EAEBEB" width="1.596" height="6.436"/>
		<circle fill="#CDCCCC" cx="235.069" cy="189.129" r="1.57"/>
		<circle fill="#5A5A5A" cx="164.536" cy="189.914" r="2.355"/>
		<circle fill="#CDCCCC" cx="164.536" cy="189.914" r="1.177"/>
		<rect x="161.396" y="183.565" fill="#CDCCCC" width="6.279" height="1.568"/>
		<rect x="225.651" y="183.566" fill="#CDCCCC" width="12.556" height="1.569"/>
	</g>
</g>
</svg>
